G04 #@! TF.FileFunction,Legend,Bot*
%FSLAX46Y46*%
G04 Gerber Fmt 4.6, Leading zero omitted, Abs format (unit mm)*
G04 Created by KiCad (PCBNEW 4.0.5) date 11/08/17 14:47:14*
%MOMM*%
%LPD*%
G01*
G04 APERTURE LIST*
%ADD10C,0.100000*%
%ADD11C,0.300000*%
%ADD12C,0.200000*%
G04 APERTURE END LIST*
D10*
D11*
X150296714Y-81810714D02*
X150368143Y-81882143D01*
X150582429Y-81953571D01*
X150725286Y-81953571D01*
X150939571Y-81882143D01*
X151082429Y-81739286D01*
X151153857Y-81596429D01*
X151225286Y-81310714D01*
X151225286Y-81096429D01*
X151153857Y-80810714D01*
X151082429Y-80667857D01*
X150939571Y-80525000D01*
X150725286Y-80453571D01*
X150582429Y-80453571D01*
X150368143Y-80525000D01*
X150296714Y-80596429D01*
X149653857Y-81953571D02*
X149653857Y-80953571D01*
X149653857Y-81239286D02*
X149582429Y-81096429D01*
X149511000Y-81025000D01*
X149368143Y-80953571D01*
X149225286Y-80953571D01*
X148153858Y-81882143D02*
X148296715Y-81953571D01*
X148582429Y-81953571D01*
X148725286Y-81882143D01*
X148796715Y-81739286D01*
X148796715Y-81167857D01*
X148725286Y-81025000D01*
X148582429Y-80953571D01*
X148296715Y-80953571D01*
X148153858Y-81025000D01*
X148082429Y-81167857D01*
X148082429Y-81310714D01*
X148796715Y-81453571D01*
X146796715Y-81953571D02*
X146796715Y-81167857D01*
X146868144Y-81025000D01*
X147011001Y-80953571D01*
X147296715Y-80953571D01*
X147439572Y-81025000D01*
X146796715Y-81882143D02*
X146939572Y-81953571D01*
X147296715Y-81953571D01*
X147439572Y-81882143D01*
X147511001Y-81739286D01*
X147511001Y-81596429D01*
X147439572Y-81453571D01*
X147296715Y-81382143D01*
X146939572Y-81382143D01*
X146796715Y-81310714D01*
X146296715Y-80953571D02*
X145725286Y-80953571D01*
X146082429Y-80453571D02*
X146082429Y-81739286D01*
X146011001Y-81882143D01*
X145868143Y-81953571D01*
X145725286Y-81953571D01*
X144653858Y-81882143D02*
X144796715Y-81953571D01*
X145082429Y-81953571D01*
X145225286Y-81882143D01*
X145296715Y-81739286D01*
X145296715Y-81167857D01*
X145225286Y-81025000D01*
X145082429Y-80953571D01*
X144796715Y-80953571D01*
X144653858Y-81025000D01*
X144582429Y-81167857D01*
X144582429Y-81310714D01*
X145296715Y-81453571D01*
X143296715Y-81953571D02*
X143296715Y-80453571D01*
X143296715Y-81882143D02*
X143439572Y-81953571D01*
X143725286Y-81953571D01*
X143868144Y-81882143D01*
X143939572Y-81810714D01*
X144011001Y-81667857D01*
X144011001Y-81239286D01*
X143939572Y-81096429D01*
X143868144Y-81025000D01*
X143725286Y-80953571D01*
X143439572Y-80953571D01*
X143296715Y-81025000D01*
X141511001Y-80596429D02*
X141439572Y-80525000D01*
X141296715Y-80453571D01*
X140939572Y-80453571D01*
X140796715Y-80525000D01*
X140725286Y-80596429D01*
X140653858Y-80739286D01*
X140653858Y-80882143D01*
X140725286Y-81096429D01*
X141582429Y-81953571D01*
X140653858Y-81953571D01*
X139725287Y-80453571D02*
X139582430Y-80453571D01*
X139439573Y-80525000D01*
X139368144Y-80596429D01*
X139296715Y-80739286D01*
X139225287Y-81025000D01*
X139225287Y-81382143D01*
X139296715Y-81667857D01*
X139368144Y-81810714D01*
X139439573Y-81882143D01*
X139582430Y-81953571D01*
X139725287Y-81953571D01*
X139868144Y-81882143D01*
X139939573Y-81810714D01*
X140011001Y-81667857D01*
X140082430Y-81382143D01*
X140082430Y-81025000D01*
X140011001Y-80739286D01*
X139939573Y-80596429D01*
X139868144Y-80525000D01*
X139725287Y-80453571D01*
X137796716Y-81953571D02*
X138653859Y-81953571D01*
X138225287Y-81953571D02*
X138225287Y-80453571D01*
X138368144Y-80667857D01*
X138511002Y-80810714D01*
X138653859Y-80882143D01*
X137296716Y-80453571D02*
X136296716Y-80453571D01*
X136939573Y-81953571D01*
X151153857Y-84503571D02*
X151153857Y-83003571D01*
X151153857Y-83575000D02*
X151011000Y-83503571D01*
X150725286Y-83503571D01*
X150582429Y-83575000D01*
X150511000Y-83646429D01*
X150439571Y-83789286D01*
X150439571Y-84217857D01*
X150511000Y-84360714D01*
X150582429Y-84432143D01*
X150725286Y-84503571D01*
X151011000Y-84503571D01*
X151153857Y-84432143D01*
X149939571Y-83503571D02*
X149582428Y-84503571D01*
X149225286Y-83503571D02*
X149582428Y-84503571D01*
X149725286Y-84860714D01*
X149796714Y-84932143D01*
X149939571Y-85003571D01*
X147511000Y-84503571D02*
X147511000Y-83003571D01*
X146796714Y-83503571D02*
X146796714Y-84503571D01*
X146796714Y-83646429D02*
X146725286Y-83575000D01*
X146582428Y-83503571D01*
X146368143Y-83503571D01*
X146225286Y-83575000D01*
X146153857Y-83717857D01*
X146153857Y-84503571D01*
X144796714Y-83503571D02*
X144796714Y-84717857D01*
X144868143Y-84860714D01*
X144939571Y-84932143D01*
X145082428Y-85003571D01*
X145296714Y-85003571D01*
X145439571Y-84932143D01*
X144796714Y-84432143D02*
X144939571Y-84503571D01*
X145225285Y-84503571D01*
X145368143Y-84432143D01*
X145439571Y-84360714D01*
X145511000Y-84217857D01*
X145511000Y-83789286D01*
X145439571Y-83646429D01*
X145368143Y-83575000D01*
X145225285Y-83503571D01*
X144939571Y-83503571D01*
X144796714Y-83575000D01*
X143868142Y-84503571D02*
X144011000Y-84432143D01*
X144082428Y-84360714D01*
X144153857Y-84217857D01*
X144153857Y-83789286D01*
X144082428Y-83646429D01*
X144011000Y-83575000D01*
X143868142Y-83503571D01*
X143653857Y-83503571D01*
X143511000Y-83575000D01*
X143439571Y-83646429D01*
X143368142Y-83789286D01*
X143368142Y-84217857D01*
X143439571Y-84360714D01*
X143511000Y-84432143D01*
X143653857Y-84503571D01*
X143868142Y-84503571D01*
X141582428Y-84503571D02*
X141582428Y-83003571D01*
X140725285Y-84503571D02*
X141368142Y-83646429D01*
X140725285Y-83003571D02*
X141582428Y-83860714D01*
X139868142Y-84503571D02*
X140011000Y-84432143D01*
X140082428Y-84360714D01*
X140153857Y-84217857D01*
X140153857Y-83789286D01*
X140082428Y-83646429D01*
X140011000Y-83575000D01*
X139868142Y-83503571D01*
X139653857Y-83503571D01*
X139511000Y-83575000D01*
X139439571Y-83646429D01*
X139368142Y-83789286D01*
X139368142Y-84217857D01*
X139439571Y-84360714D01*
X139511000Y-84432143D01*
X139653857Y-84503571D01*
X139868142Y-84503571D01*
X138725285Y-84503571D02*
X138725285Y-83503571D01*
X138725285Y-83789286D02*
X138653857Y-83646429D01*
X138582428Y-83575000D01*
X138439571Y-83503571D01*
X138296714Y-83503571D01*
X137796714Y-84503571D02*
X137796714Y-83003571D01*
X137796714Y-83575000D02*
X137653857Y-83503571D01*
X137368143Y-83503571D01*
X137225286Y-83575000D01*
X137153857Y-83646429D01*
X137082428Y-83789286D01*
X137082428Y-84217857D01*
X137153857Y-84360714D01*
X137225286Y-84432143D01*
X137368143Y-84503571D01*
X137653857Y-84503571D01*
X137796714Y-84432143D01*
D12*
X152463500Y-90424000D02*
X152463500Y-96520000D01*
M02*
