G04 #@! TF.FileFunction,Legend,Top*
%FSLAX46Y46*%
G04 Gerber Fmt 4.6, Leading zero omitted, Abs format (unit mm)*
G04 Created by KiCad (PCBNEW 4.0.5) date 11/08/17 14:47:14*
%MOMM*%
%LPD*%
G01*
G04 APERTURE LIST*
%ADD10C,0.100000*%
%ADD11C,0.200000*%
%ADD12C,0.300000*%
%ADD13C,0.150000*%
%ADD14C,0.120000*%
G04 APERTURE END LIST*
D10*
D11*
X153416000Y-65151000D02*
G75*
G03X153416000Y-65151000I-254000J0D01*
G01*
X157353000Y-85725000D02*
X157353000Y-86487000D01*
X156972000Y-86106000D02*
X157734000Y-86106000D01*
X157353000Y-73787000D02*
X157353000Y-74549000D01*
X156972000Y-74168000D02*
X157734000Y-74168000D01*
D12*
X149185286Y-60892571D02*
X149542429Y-61892571D01*
X149899571Y-60892571D01*
X151256714Y-61892571D02*
X150399571Y-61892571D01*
X150828143Y-61892571D02*
X150828143Y-60392571D01*
X150685286Y-60606857D01*
X150542428Y-60749714D01*
X150399571Y-60821143D01*
X151899571Y-61749714D02*
X151970999Y-61821143D01*
X151899571Y-61892571D01*
X151828142Y-61821143D01*
X151899571Y-61749714D01*
X151899571Y-61892571D01*
X153399571Y-61892571D02*
X152542428Y-61892571D01*
X152971000Y-61892571D02*
X152971000Y-60392571D01*
X152828143Y-60606857D01*
X152685285Y-60749714D01*
X152542428Y-60821143D01*
X149113857Y-58225571D02*
X149685286Y-58225571D01*
X149328143Y-57725571D02*
X149328143Y-59011286D01*
X149399571Y-59154143D01*
X149542429Y-59225571D01*
X149685286Y-59225571D01*
X150828143Y-59225571D02*
X150828143Y-58439857D01*
X150756714Y-58297000D01*
X150613857Y-58225571D01*
X150328143Y-58225571D01*
X150185286Y-58297000D01*
X150828143Y-59154143D02*
X150685286Y-59225571D01*
X150328143Y-59225571D01*
X150185286Y-59154143D01*
X150113857Y-59011286D01*
X150113857Y-58868429D01*
X150185286Y-58725571D01*
X150328143Y-58654143D01*
X150685286Y-58654143D01*
X150828143Y-58582714D01*
X151542429Y-58225571D02*
X151542429Y-59725571D01*
X151542429Y-58297000D02*
X151685286Y-58225571D01*
X151971000Y-58225571D01*
X152113857Y-58297000D01*
X152185286Y-58368429D01*
X152256715Y-58511286D01*
X152256715Y-58939857D01*
X152185286Y-59082714D01*
X152113857Y-59154143D01*
X151971000Y-59225571D01*
X151685286Y-59225571D01*
X151542429Y-59154143D01*
X153471000Y-59154143D02*
X153328143Y-59225571D01*
X153042429Y-59225571D01*
X152899572Y-59154143D01*
X152828143Y-59011286D01*
X152828143Y-58439857D01*
X152899572Y-58297000D01*
X153042429Y-58225571D01*
X153328143Y-58225571D01*
X153471000Y-58297000D01*
X153542429Y-58439857D01*
X153542429Y-58582714D01*
X152828143Y-58725571D01*
X154828143Y-59154143D02*
X154685286Y-59225571D01*
X154399572Y-59225571D01*
X154256714Y-59154143D01*
X154185286Y-59082714D01*
X154113857Y-58939857D01*
X154113857Y-58511286D01*
X154185286Y-58368429D01*
X154256714Y-58297000D01*
X154399572Y-58225571D01*
X154685286Y-58225571D01*
X154828143Y-58297000D01*
X156113857Y-59225571D02*
X156113857Y-58439857D01*
X156042428Y-58297000D01*
X155899571Y-58225571D01*
X155613857Y-58225571D01*
X155471000Y-58297000D01*
X156113857Y-59154143D02*
X155971000Y-59225571D01*
X155613857Y-59225571D01*
X155471000Y-59154143D01*
X155399571Y-59011286D01*
X155399571Y-58868429D01*
X155471000Y-58725571D01*
X155613857Y-58654143D01*
X155971000Y-58654143D01*
X156113857Y-58582714D01*
X156828143Y-59225571D02*
X156828143Y-58225571D01*
X156828143Y-58511286D02*
X156899571Y-58368429D01*
X156971000Y-58297000D01*
X157113857Y-58225571D01*
X157256714Y-58225571D01*
X157542428Y-58225571D02*
X158113857Y-58225571D01*
X157756714Y-57725571D02*
X157756714Y-59011286D01*
X157828142Y-59154143D01*
X157971000Y-59225571D01*
X158113857Y-59225571D01*
X158613857Y-58654143D02*
X159756714Y-58654143D01*
X161113857Y-59225571D02*
X161113857Y-57725571D01*
X161113857Y-59154143D02*
X160971000Y-59225571D01*
X160685286Y-59225571D01*
X160542428Y-59154143D01*
X160471000Y-59082714D01*
X160399571Y-58939857D01*
X160399571Y-58511286D01*
X160471000Y-58368429D01*
X160542428Y-58297000D01*
X160685286Y-58225571D01*
X160971000Y-58225571D01*
X161113857Y-58297000D01*
X161828143Y-59225571D02*
X161828143Y-58225571D01*
X161828143Y-57725571D02*
X161756714Y-57797000D01*
X161828143Y-57868429D01*
X161899571Y-57797000D01*
X161828143Y-57725571D01*
X161828143Y-57868429D01*
X162399572Y-58225571D02*
X162756715Y-59225571D01*
X163113857Y-58225571D02*
X162756715Y-59225571D01*
X162613857Y-59582714D01*
X162542429Y-59654143D01*
X162399572Y-59725571D01*
X164254571Y-64075285D02*
X162754571Y-64075285D01*
X164183143Y-63432428D02*
X164254571Y-63218142D01*
X164254571Y-62860999D01*
X164183143Y-62718142D01*
X164111714Y-62646713D01*
X163968857Y-62575285D01*
X163826000Y-62575285D01*
X163683143Y-62646713D01*
X163611714Y-62718142D01*
X163540286Y-62860999D01*
X163468857Y-63146713D01*
X163397429Y-63289571D01*
X163326000Y-63360999D01*
X163183143Y-63432428D01*
X163040286Y-63432428D01*
X162897429Y-63360999D01*
X162826000Y-63289571D01*
X162754571Y-63146713D01*
X162754571Y-62789571D01*
X162826000Y-62575285D01*
X164254571Y-61932428D02*
X162754571Y-61932428D01*
X162754571Y-61361000D01*
X162826000Y-61218142D01*
X162897429Y-61146714D01*
X163040286Y-61075285D01*
X163254571Y-61075285D01*
X163397429Y-61146714D01*
X163468857Y-61218142D01*
X163540286Y-61361000D01*
X163540286Y-61932428D01*
D11*
X152463500Y-90424000D02*
X152463500Y-96520000D01*
D12*
X150476334Y-68084000D02*
X150343000Y-68012571D01*
X150143000Y-68012571D01*
X149943000Y-68084000D01*
X149809667Y-68226857D01*
X149743000Y-68369714D01*
X149676334Y-68655429D01*
X149676334Y-68869714D01*
X149743000Y-69155429D01*
X149809667Y-69298286D01*
X149943000Y-69441143D01*
X150143000Y-69512571D01*
X150276334Y-69512571D01*
X150476334Y-69441143D01*
X150543000Y-69369714D01*
X150543000Y-68869714D01*
X150276334Y-68869714D01*
X151143000Y-69512571D02*
X151143000Y-68012571D01*
X151943000Y-69512571D01*
X151943000Y-68012571D01*
X152609667Y-69512571D02*
X152609667Y-68012571D01*
X152943001Y-68012571D01*
X153143001Y-68084000D01*
X153276334Y-68226857D01*
X153343001Y-68369714D01*
X153409667Y-68655429D01*
X153409667Y-68869714D01*
X153343001Y-69155429D01*
X153276334Y-69298286D01*
X153143001Y-69441143D01*
X152943001Y-69512571D01*
X152609667Y-69512571D01*
X155009667Y-67941143D02*
X153809667Y-69869714D01*
X156143001Y-68012571D02*
X155476334Y-68012571D01*
X155409668Y-68726857D01*
X155476334Y-68655429D01*
X155609668Y-68584000D01*
X155943001Y-68584000D01*
X156076334Y-68655429D01*
X156143001Y-68726857D01*
X156209668Y-68869714D01*
X156209668Y-69226857D01*
X156143001Y-69369714D01*
X156076334Y-69441143D01*
X155943001Y-69512571D01*
X155609668Y-69512571D01*
X155476334Y-69441143D01*
X155409668Y-69369714D01*
X156609667Y-68012571D02*
X157076334Y-69512571D01*
X157543001Y-68012571D01*
D11*
X139065000Y-64008000D02*
X139065000Y-64770000D01*
X137287000Y-64008000D02*
X139065000Y-64008000D01*
X137287000Y-64770000D02*
X137287000Y-64008000D01*
X156337000Y-56388000D02*
X156337000Y-57150000D01*
X154559000Y-56388000D02*
X156337000Y-56388000D01*
X154559000Y-57150000D02*
X154559000Y-56388000D01*
X136965220Y-65842274D02*
X136965220Y-66858274D01*
X136978000Y-70374000D02*
X136978000Y-69485000D01*
D13*
X151003000Y-85090000D02*
X151003000Y-80010000D01*
X151003000Y-80010000D02*
X153543000Y-80010000D01*
X153543000Y-80010000D02*
X153543000Y-85090000D01*
X153543000Y-85090000D02*
X151003000Y-85090000D01*
X152273000Y-85090000D02*
X152273000Y-86360000D01*
X152273000Y-80010000D02*
X152273000Y-78740000D01*
X156591000Y-80010000D02*
X156591000Y-85090000D01*
X156591000Y-85090000D02*
X154051000Y-85090000D01*
X154051000Y-85090000D02*
X154051000Y-80010000D01*
X154051000Y-80010000D02*
X156591000Y-80010000D01*
X155321000Y-80010000D02*
X155321000Y-78740000D01*
X155321000Y-85090000D02*
X155321000Y-86360000D01*
X132715000Y-85090000D02*
X132715000Y-80010000D01*
X132715000Y-80010000D02*
X135255000Y-80010000D01*
X135255000Y-80010000D02*
X135255000Y-85090000D01*
X135255000Y-85090000D02*
X132715000Y-85090000D01*
X133985000Y-85090000D02*
X133985000Y-86360000D01*
X133985000Y-80010000D02*
X133985000Y-78740000D01*
X144907000Y-85090000D02*
X144907000Y-80010000D01*
X144907000Y-80010000D02*
X147447000Y-80010000D01*
X147447000Y-80010000D02*
X147447000Y-85090000D01*
X147447000Y-85090000D02*
X144907000Y-85090000D01*
X146177000Y-85090000D02*
X146177000Y-86360000D01*
X146177000Y-80010000D02*
X146177000Y-78740000D01*
X150495000Y-80010000D02*
X150495000Y-85090000D01*
X150495000Y-85090000D02*
X147955000Y-85090000D01*
X147955000Y-85090000D02*
X147955000Y-80010000D01*
X147955000Y-80010000D02*
X150495000Y-80010000D01*
X149225000Y-80010000D02*
X149225000Y-78740000D01*
X149225000Y-85090000D02*
X149225000Y-86360000D01*
X138811000Y-85090000D02*
X138811000Y-80010000D01*
X138811000Y-80010000D02*
X141351000Y-80010000D01*
X141351000Y-80010000D02*
X141351000Y-85090000D01*
X141351000Y-85090000D02*
X138811000Y-85090000D01*
X140081000Y-85090000D02*
X140081000Y-86360000D01*
X140081000Y-80010000D02*
X140081000Y-78740000D01*
X135763000Y-85090000D02*
X135763000Y-80010000D01*
X135763000Y-80010000D02*
X138303000Y-80010000D01*
X138303000Y-80010000D02*
X138303000Y-85090000D01*
X138303000Y-85090000D02*
X135763000Y-85090000D01*
X137033000Y-85090000D02*
X137033000Y-86360000D01*
X137033000Y-80010000D02*
X137033000Y-78740000D01*
X144399000Y-80010000D02*
X144399000Y-85090000D01*
X144399000Y-85090000D02*
X141859000Y-85090000D01*
X141859000Y-85090000D02*
X141859000Y-80010000D01*
X141859000Y-80010000D02*
X144399000Y-80010000D01*
X143129000Y-80010000D02*
X143129000Y-78740000D01*
X143129000Y-85090000D02*
X143129000Y-86360000D01*
X139220695Y-72155010D02*
G75*
G03X138733000Y-71452000I-2187695J-996990D01*
G01*
X134845305Y-72155010D02*
G75*
G02X135333000Y-71452000I2187695J-996990D01*
G01*
X138733000Y-71452000D02*
X135333000Y-71452000D01*
X139217879Y-74145127D02*
G75*
G02X137033000Y-75552000I-2184879J993127D01*
G01*
X134848121Y-74145127D02*
G75*
G03X137033000Y-75552000I2184879J993127D01*
G01*
X161000000Y-71669000D02*
X161000000Y-76667000D01*
X161140000Y-71677000D02*
X161140000Y-74014000D01*
X161140000Y-74322000D02*
X161140000Y-76659000D01*
X161280000Y-71693000D02*
X161280000Y-73695000D01*
X161280000Y-74641000D02*
X161280000Y-76643000D01*
X161420000Y-71717000D02*
X161420000Y-73548000D01*
X161420000Y-74788000D02*
X161420000Y-76619000D01*
X161560000Y-71750000D02*
X161560000Y-73456000D01*
X161560000Y-74880000D02*
X161560000Y-76586000D01*
X161700000Y-71791000D02*
X161700000Y-73400000D01*
X161700000Y-74936000D02*
X161700000Y-76545000D01*
X161840000Y-71841000D02*
X161840000Y-73373000D01*
X161840000Y-74963000D02*
X161840000Y-76495000D01*
X161980000Y-71902000D02*
X161980000Y-73370000D01*
X161980000Y-74966000D02*
X161980000Y-76434000D01*
X162120000Y-71972000D02*
X162120000Y-73392000D01*
X162120000Y-74944000D02*
X162120000Y-76364000D01*
X162260000Y-72054000D02*
X162260000Y-73442000D01*
X162260000Y-74894000D02*
X162260000Y-76282000D01*
X162400000Y-72149000D02*
X162400000Y-73524000D01*
X162400000Y-74812000D02*
X162400000Y-76187000D01*
X162540000Y-72260000D02*
X162540000Y-73656000D01*
X162540000Y-74680000D02*
X162540000Y-76076000D01*
X162680000Y-72388000D02*
X162680000Y-73903000D01*
X162680000Y-74433000D02*
X162680000Y-75948000D01*
X162820000Y-72537000D02*
X162820000Y-75799000D01*
X162960000Y-72716000D02*
X162960000Y-75620000D01*
X163100000Y-72935000D02*
X163100000Y-75401000D01*
X163240000Y-73224000D02*
X163240000Y-75112000D01*
X163380000Y-73696000D02*
X163380000Y-74640000D01*
X162725000Y-74168000D02*
G75*
G03X162725000Y-74168000I-800000J0D01*
G01*
X163462500Y-74168000D02*
G75*
G03X163462500Y-74168000I-2537500J0D01*
G01*
X162842695Y-79267010D02*
G75*
G03X162355000Y-78564000I-2187695J-996990D01*
G01*
X158467305Y-79267010D02*
G75*
G02X158955000Y-78564000I2187695J-996990D01*
G01*
X162355000Y-78564000D02*
X158955000Y-78564000D01*
X162839879Y-81257127D02*
G75*
G02X160655000Y-82664000I-2184879J993127D01*
G01*
X158470121Y-81257127D02*
G75*
G03X160655000Y-82664000I2184879J993127D01*
G01*
X159123000Y-57159000D02*
X159123000Y-55889000D01*
X151773000Y-57159000D02*
X151773000Y-55889000D01*
X151773000Y-44949000D02*
X151773000Y-46219000D01*
X159123000Y-44949000D02*
X159123000Y-46219000D01*
X159123000Y-57159000D02*
X151773000Y-57159000D01*
X159123000Y-44949000D02*
X151773000Y-44949000D01*
X159123000Y-55889000D02*
X160408000Y-55889000D01*
X160968000Y-83607000D02*
X160968000Y-88605000D01*
X161108000Y-83615000D02*
X161108000Y-85952000D01*
X161108000Y-86260000D02*
X161108000Y-88597000D01*
X161248000Y-83631000D02*
X161248000Y-85633000D01*
X161248000Y-86579000D02*
X161248000Y-88581000D01*
X161388000Y-83655000D02*
X161388000Y-85486000D01*
X161388000Y-86726000D02*
X161388000Y-88557000D01*
X161528000Y-83688000D02*
X161528000Y-85394000D01*
X161528000Y-86818000D02*
X161528000Y-88524000D01*
X161668000Y-83729000D02*
X161668000Y-85338000D01*
X161668000Y-86874000D02*
X161668000Y-88483000D01*
X161808000Y-83779000D02*
X161808000Y-85311000D01*
X161808000Y-86901000D02*
X161808000Y-88433000D01*
X161948000Y-83840000D02*
X161948000Y-85308000D01*
X161948000Y-86904000D02*
X161948000Y-88372000D01*
X162088000Y-83910000D02*
X162088000Y-85330000D01*
X162088000Y-86882000D02*
X162088000Y-88302000D01*
X162228000Y-83992000D02*
X162228000Y-85380000D01*
X162228000Y-86832000D02*
X162228000Y-88220000D01*
X162368000Y-84087000D02*
X162368000Y-85462000D01*
X162368000Y-86750000D02*
X162368000Y-88125000D01*
X162508000Y-84198000D02*
X162508000Y-85594000D01*
X162508000Y-86618000D02*
X162508000Y-88014000D01*
X162648000Y-84326000D02*
X162648000Y-85841000D01*
X162648000Y-86371000D02*
X162648000Y-87886000D01*
X162788000Y-84475000D02*
X162788000Y-87737000D01*
X162928000Y-84654000D02*
X162928000Y-87558000D01*
X163068000Y-84873000D02*
X163068000Y-87339000D01*
X163208000Y-85162000D02*
X163208000Y-87050000D01*
X163348000Y-85634000D02*
X163348000Y-86578000D01*
X162693000Y-86106000D02*
G75*
G03X162693000Y-86106000I-800000J0D01*
G01*
X163430500Y-86106000D02*
G75*
G03X163430500Y-86106000I-2537500J0D01*
G01*
X145562000Y-49994000D02*
X145562000Y-46994000D01*
X148062000Y-46994000D02*
X148062000Y-49994000D01*
X143236000Y-66552000D02*
X143236000Y-69552000D01*
X140736000Y-69552000D02*
X140736000Y-66552000D01*
X145673000Y-63520000D02*
X148673000Y-63520000D01*
X148673000Y-66020000D02*
X145673000Y-66020000D01*
X136978000Y-66885000D02*
X136978000Y-67085000D01*
X136978000Y-69479000D02*
X136978000Y-69299000D01*
X133750256Y-69168643D02*
G75*
G03X136978000Y-69485000I1727744J1003643D01*
G01*
X134425994Y-69298068D02*
G75*
G03X136529000Y-69299000I1052006J1133068D01*
G01*
X136965220Y-66858274D02*
G75*
G03X133728000Y-67205000I-1497220J-1306726D01*
G01*
X136491889Y-67085747D02*
G75*
G03X134444000Y-67105000I-1013889J-1079253D01*
G01*
X156718000Y-65151000D02*
X161798000Y-65151000D01*
X153898000Y-65431000D02*
X153898000Y-63881000D01*
X154178000Y-62611000D02*
X156718000Y-62611000D01*
X156718000Y-62611000D02*
X156718000Y-65151000D01*
X161798000Y-65151000D02*
X161798000Y-60071000D01*
X161798000Y-60071000D02*
X156718000Y-60071000D01*
X153898000Y-65431000D02*
X155448000Y-65431000D01*
X154178000Y-60071000D02*
X154178000Y-62611000D01*
X156718000Y-60071000D02*
X154178000Y-60071000D01*
X141851000Y-64779000D02*
X141851000Y-63509000D01*
X134501000Y-64779000D02*
X134501000Y-63509000D01*
X134501000Y-44949000D02*
X134501000Y-46219000D01*
X141851000Y-44949000D02*
X141851000Y-46219000D01*
X141851000Y-64779000D02*
X134501000Y-64779000D01*
X141851000Y-44949000D02*
X134501000Y-44949000D01*
X141851000Y-63509000D02*
X143136000Y-63509000D01*
X144907000Y-57404000D02*
X144907000Y-62484000D01*
X144907000Y-62484000D02*
X147447000Y-62484000D01*
X147447000Y-62484000D02*
X147447000Y-57404000D01*
X147727000Y-54584000D02*
X147727000Y-56134000D01*
X147447000Y-57404000D02*
X144907000Y-57404000D01*
X144627000Y-56134000D02*
X144627000Y-54584000D01*
X144627000Y-54584000D02*
X147727000Y-54584000D01*
X161533000Y-53809000D02*
X161533000Y-53509000D01*
X156033000Y-53809000D02*
X156033000Y-53509000D01*
X156033000Y-48299000D02*
X156033000Y-48599000D01*
X161533000Y-48299000D02*
X161533000Y-48599000D01*
X161533000Y-53809000D02*
X156033000Y-53809000D01*
X161533000Y-48299000D02*
X156033000Y-48299000D01*
X161533000Y-53509000D02*
X163283000Y-53509000D01*
X146840695Y-72155010D02*
G75*
G03X146353000Y-71452000I-2187695J-996990D01*
G01*
X142465305Y-72155010D02*
G75*
G02X142953000Y-71452000I2187695J-996990D01*
G01*
X146353000Y-71452000D02*
X142953000Y-71452000D01*
X146837879Y-74145127D02*
G75*
G02X144653000Y-75552000I-2184879J993127D01*
G01*
X142468121Y-74145127D02*
G75*
G03X144653000Y-75552000I2184879J993127D01*
G01*
X154460695Y-72155010D02*
G75*
G03X153973000Y-71452000I-2187695J-996990D01*
G01*
X150085305Y-72155010D02*
G75*
G02X150573000Y-71452000I2187695J-996990D01*
G01*
X153973000Y-71452000D02*
X150573000Y-71452000D01*
X154457879Y-74145127D02*
G75*
G02X152273000Y-75552000I-2184879J993127D01*
G01*
X150088121Y-74145127D02*
G75*
G03X152273000Y-75552000I2184879J993127D01*
G01*
X160909000Y-69596000D02*
X158369000Y-69596000D01*
X163729000Y-69876000D02*
X162179000Y-69876000D01*
X160909000Y-69596000D02*
X160909000Y-67056000D01*
X162179000Y-66776000D02*
X163729000Y-66776000D01*
X163729000Y-66776000D02*
X163729000Y-69876000D01*
X160909000Y-67056000D02*
X158369000Y-67056000D01*
X158369000Y-67056000D02*
X158369000Y-69596000D01*
D14*
X152139667Y-89896905D02*
X151873000Y-89515952D01*
X151682524Y-89896905D02*
X151682524Y-89096905D01*
X151987286Y-89096905D01*
X152063477Y-89135000D01*
X152101572Y-89173095D01*
X152139667Y-89249286D01*
X152139667Y-89363571D01*
X152101572Y-89439762D01*
X152063477Y-89477857D01*
X151987286Y-89515952D01*
X151682524Y-89515952D01*
X152901572Y-89896905D02*
X152444429Y-89896905D01*
X152673000Y-89896905D02*
X152673000Y-89096905D01*
X152596810Y-89211190D01*
X152520619Y-89287381D01*
X152444429Y-89325476D01*
D13*
X151725381Y-83311904D02*
X151725381Y-83502381D01*
X151773000Y-83597619D01*
X151820619Y-83645238D01*
X151963476Y-83740476D01*
X152153952Y-83788095D01*
X152534905Y-83788095D01*
X152630143Y-83740476D01*
X152677762Y-83692857D01*
X152725381Y-83597619D01*
X152725381Y-83407142D01*
X152677762Y-83311904D01*
X152630143Y-83264285D01*
X152534905Y-83216666D01*
X152296810Y-83216666D01*
X152201571Y-83264285D01*
X152153952Y-83311904D01*
X152106333Y-83407142D01*
X152106333Y-83597619D01*
X152153952Y-83692857D01*
X152201571Y-83740476D01*
X152296810Y-83788095D01*
X152153952Y-82645238D02*
X152106333Y-82740476D01*
X152058714Y-82788095D01*
X151963476Y-82835714D01*
X151915857Y-82835714D01*
X151820619Y-82788095D01*
X151773000Y-82740476D01*
X151725381Y-82645238D01*
X151725381Y-82454761D01*
X151773000Y-82359523D01*
X151820619Y-82311904D01*
X151915857Y-82264285D01*
X151963476Y-82264285D01*
X152058714Y-82311904D01*
X152106333Y-82359523D01*
X152153952Y-82454761D01*
X152153952Y-82645238D01*
X152201571Y-82740476D01*
X152249190Y-82788095D01*
X152344429Y-82835714D01*
X152534905Y-82835714D01*
X152630143Y-82788095D01*
X152677762Y-82740476D01*
X152725381Y-82645238D01*
X152725381Y-82454761D01*
X152677762Y-82359523D01*
X152630143Y-82311904D01*
X152534905Y-82264285D01*
X152344429Y-82264285D01*
X152249190Y-82311904D01*
X152201571Y-82359523D01*
X152153952Y-82454761D01*
X151725381Y-81645238D02*
X151725381Y-81549999D01*
X151773000Y-81454761D01*
X151820619Y-81407142D01*
X151915857Y-81359523D01*
X152106333Y-81311904D01*
X152344429Y-81311904D01*
X152534905Y-81359523D01*
X152630143Y-81407142D01*
X152677762Y-81454761D01*
X152725381Y-81549999D01*
X152725381Y-81645238D01*
X152677762Y-81740476D01*
X152630143Y-81788095D01*
X152534905Y-81835714D01*
X152344429Y-81883333D01*
X152106333Y-81883333D01*
X151915857Y-81835714D01*
X151820619Y-81788095D01*
X151773000Y-81740476D01*
X151725381Y-81645238D01*
D14*
X155187667Y-89896905D02*
X154921000Y-89515952D01*
X154730524Y-89896905D02*
X154730524Y-89096905D01*
X155035286Y-89096905D01*
X155111477Y-89135000D01*
X155149572Y-89173095D01*
X155187667Y-89249286D01*
X155187667Y-89363571D01*
X155149572Y-89439762D01*
X155111477Y-89477857D01*
X155035286Y-89515952D01*
X154730524Y-89515952D01*
X155492429Y-89173095D02*
X155530524Y-89135000D01*
X155606715Y-89096905D01*
X155797191Y-89096905D01*
X155873381Y-89135000D01*
X155911477Y-89173095D01*
X155949572Y-89249286D01*
X155949572Y-89325476D01*
X155911477Y-89439762D01*
X155454334Y-89896905D01*
X155949572Y-89896905D01*
D13*
X154773381Y-83264285D02*
X154773381Y-83740476D01*
X155249571Y-83788095D01*
X155201952Y-83740476D01*
X155154333Y-83645238D01*
X155154333Y-83407142D01*
X155201952Y-83311904D01*
X155249571Y-83264285D01*
X155344810Y-83216666D01*
X155582905Y-83216666D01*
X155678143Y-83264285D01*
X155725762Y-83311904D01*
X155773381Y-83407142D01*
X155773381Y-83645238D01*
X155725762Y-83740476D01*
X155678143Y-83788095D01*
X154773381Y-82359523D02*
X154773381Y-82550000D01*
X154821000Y-82645238D01*
X154868619Y-82692857D01*
X155011476Y-82788095D01*
X155201952Y-82835714D01*
X155582905Y-82835714D01*
X155678143Y-82788095D01*
X155725762Y-82740476D01*
X155773381Y-82645238D01*
X155773381Y-82454761D01*
X155725762Y-82359523D01*
X155678143Y-82311904D01*
X155582905Y-82264285D01*
X155344810Y-82264285D01*
X155249571Y-82311904D01*
X155201952Y-82359523D01*
X155154333Y-82454761D01*
X155154333Y-82645238D01*
X155201952Y-82740476D01*
X155249571Y-82788095D01*
X155344810Y-82835714D01*
X154773381Y-81645238D02*
X154773381Y-81549999D01*
X154821000Y-81454761D01*
X154868619Y-81407142D01*
X154963857Y-81359523D01*
X155154333Y-81311904D01*
X155392429Y-81311904D01*
X155582905Y-81359523D01*
X155678143Y-81407142D01*
X155725762Y-81454761D01*
X155773381Y-81549999D01*
X155773381Y-81645238D01*
X155725762Y-81740476D01*
X155678143Y-81788095D01*
X155582905Y-81835714D01*
X155392429Y-81883333D01*
X155154333Y-81883333D01*
X154963857Y-81835714D01*
X154868619Y-81788095D01*
X154821000Y-81740476D01*
X154773381Y-81645238D01*
D14*
X133851667Y-89896905D02*
X133585000Y-89515952D01*
X133394524Y-89896905D02*
X133394524Y-89096905D01*
X133699286Y-89096905D01*
X133775477Y-89135000D01*
X133813572Y-89173095D01*
X133851667Y-89249286D01*
X133851667Y-89363571D01*
X133813572Y-89439762D01*
X133775477Y-89477857D01*
X133699286Y-89515952D01*
X133394524Y-89515952D01*
X134308810Y-89439762D02*
X134232619Y-89401667D01*
X134194524Y-89363571D01*
X134156429Y-89287381D01*
X134156429Y-89249286D01*
X134194524Y-89173095D01*
X134232619Y-89135000D01*
X134308810Y-89096905D01*
X134461191Y-89096905D01*
X134537381Y-89135000D01*
X134575477Y-89173095D01*
X134613572Y-89249286D01*
X134613572Y-89287381D01*
X134575477Y-89363571D01*
X134537381Y-89401667D01*
X134461191Y-89439762D01*
X134308810Y-89439762D01*
X134232619Y-89477857D01*
X134194524Y-89515952D01*
X134156429Y-89592143D01*
X134156429Y-89744524D01*
X134194524Y-89820714D01*
X134232619Y-89858810D01*
X134308810Y-89896905D01*
X134461191Y-89896905D01*
X134537381Y-89858810D01*
X134575477Y-89820714D01*
X134613572Y-89744524D01*
X134613572Y-89592143D01*
X134575477Y-89515952D01*
X134537381Y-89477857D01*
X134461191Y-89439762D01*
D13*
X133437381Y-83835714D02*
X133437381Y-83216666D01*
X133818333Y-83550000D01*
X133818333Y-83407142D01*
X133865952Y-83311904D01*
X133913571Y-83264285D01*
X134008810Y-83216666D01*
X134246905Y-83216666D01*
X134342143Y-83264285D01*
X134389762Y-83311904D01*
X134437381Y-83407142D01*
X134437381Y-83692857D01*
X134389762Y-83788095D01*
X134342143Y-83835714D01*
X133437381Y-82883333D02*
X133437381Y-82264285D01*
X133818333Y-82597619D01*
X133818333Y-82454761D01*
X133865952Y-82359523D01*
X133913571Y-82311904D01*
X134008810Y-82264285D01*
X134246905Y-82264285D01*
X134342143Y-82311904D01*
X134389762Y-82359523D01*
X134437381Y-82454761D01*
X134437381Y-82740476D01*
X134389762Y-82835714D01*
X134342143Y-82883333D01*
X133437381Y-81645238D02*
X133437381Y-81549999D01*
X133485000Y-81454761D01*
X133532619Y-81407142D01*
X133627857Y-81359523D01*
X133818333Y-81311904D01*
X134056429Y-81311904D01*
X134246905Y-81359523D01*
X134342143Y-81407142D01*
X134389762Y-81454761D01*
X134437381Y-81549999D01*
X134437381Y-81645238D01*
X134389762Y-81740476D01*
X134342143Y-81788095D01*
X134246905Y-81835714D01*
X134056429Y-81883333D01*
X133818333Y-81883333D01*
X133627857Y-81835714D01*
X133532619Y-81788095D01*
X133485000Y-81740476D01*
X133437381Y-81645238D01*
D14*
X146043667Y-89896905D02*
X145777000Y-89515952D01*
X145586524Y-89896905D02*
X145586524Y-89096905D01*
X145891286Y-89096905D01*
X145967477Y-89135000D01*
X146005572Y-89173095D01*
X146043667Y-89249286D01*
X146043667Y-89363571D01*
X146005572Y-89439762D01*
X145967477Y-89477857D01*
X145891286Y-89515952D01*
X145586524Y-89515952D01*
X146767477Y-89096905D02*
X146386524Y-89096905D01*
X146348429Y-89477857D01*
X146386524Y-89439762D01*
X146462715Y-89401667D01*
X146653191Y-89401667D01*
X146729381Y-89439762D01*
X146767477Y-89477857D01*
X146805572Y-89554048D01*
X146805572Y-89744524D01*
X146767477Y-89820714D01*
X146729381Y-89858810D01*
X146653191Y-89896905D01*
X146462715Y-89896905D01*
X146386524Y-89858810D01*
X146348429Y-89820714D01*
D13*
X145629381Y-84002381D02*
X145629381Y-83383333D01*
X146010333Y-83716667D01*
X146010333Y-83573809D01*
X146057952Y-83478571D01*
X146105571Y-83430952D01*
X146200810Y-83383333D01*
X146438905Y-83383333D01*
X146534143Y-83430952D01*
X146581762Y-83478571D01*
X146629381Y-83573809D01*
X146629381Y-83859524D01*
X146581762Y-83954762D01*
X146534143Y-84002381D01*
X146534143Y-82954762D02*
X146581762Y-82907143D01*
X146629381Y-82954762D01*
X146581762Y-83002381D01*
X146534143Y-82954762D01*
X146629381Y-82954762D01*
X145629381Y-82573810D02*
X145629381Y-81954762D01*
X146010333Y-82288096D01*
X146010333Y-82145238D01*
X146057952Y-82050000D01*
X146105571Y-82002381D01*
X146200810Y-81954762D01*
X146438905Y-81954762D01*
X146534143Y-82002381D01*
X146581762Y-82050000D01*
X146629381Y-82145238D01*
X146629381Y-82430953D01*
X146581762Y-82526191D01*
X146534143Y-82573810D01*
X146629381Y-81526191D02*
X145629381Y-81526191D01*
X146248429Y-81430953D02*
X146629381Y-81145238D01*
X145962714Y-81145238D02*
X146343667Y-81526191D01*
D14*
X149091667Y-89896905D02*
X148825000Y-89515952D01*
X148634524Y-89896905D02*
X148634524Y-89096905D01*
X148939286Y-89096905D01*
X149015477Y-89135000D01*
X149053572Y-89173095D01*
X149091667Y-89249286D01*
X149091667Y-89363571D01*
X149053572Y-89439762D01*
X149015477Y-89477857D01*
X148939286Y-89515952D01*
X148634524Y-89515952D01*
X149358334Y-89096905D02*
X149853572Y-89096905D01*
X149586905Y-89401667D01*
X149701191Y-89401667D01*
X149777381Y-89439762D01*
X149815477Y-89477857D01*
X149853572Y-89554048D01*
X149853572Y-89744524D01*
X149815477Y-89820714D01*
X149777381Y-89858810D01*
X149701191Y-89896905D01*
X149472619Y-89896905D01*
X149396429Y-89858810D01*
X149358334Y-89820714D01*
D13*
X148677381Y-84002381D02*
X148677381Y-83383333D01*
X149058333Y-83716667D01*
X149058333Y-83573809D01*
X149105952Y-83478571D01*
X149153571Y-83430952D01*
X149248810Y-83383333D01*
X149486905Y-83383333D01*
X149582143Y-83430952D01*
X149629762Y-83478571D01*
X149677381Y-83573809D01*
X149677381Y-83859524D01*
X149629762Y-83954762D01*
X149582143Y-84002381D01*
X149582143Y-82954762D02*
X149629762Y-82907143D01*
X149677381Y-82954762D01*
X149629762Y-83002381D01*
X149582143Y-82954762D01*
X149677381Y-82954762D01*
X148677381Y-82573810D02*
X148677381Y-81954762D01*
X149058333Y-82288096D01*
X149058333Y-82145238D01*
X149105952Y-82050000D01*
X149153571Y-82002381D01*
X149248810Y-81954762D01*
X149486905Y-81954762D01*
X149582143Y-82002381D01*
X149629762Y-82050000D01*
X149677381Y-82145238D01*
X149677381Y-82430953D01*
X149629762Y-82526191D01*
X149582143Y-82573810D01*
X149677381Y-81526191D02*
X148677381Y-81526191D01*
X149296429Y-81430953D02*
X149677381Y-81145238D01*
X149010714Y-81145238D02*
X149391667Y-81526191D01*
D14*
X139947667Y-89896905D02*
X139681000Y-89515952D01*
X139490524Y-89896905D02*
X139490524Y-89096905D01*
X139795286Y-89096905D01*
X139871477Y-89135000D01*
X139909572Y-89173095D01*
X139947667Y-89249286D01*
X139947667Y-89363571D01*
X139909572Y-89439762D01*
X139871477Y-89477857D01*
X139795286Y-89515952D01*
X139490524Y-89515952D01*
X140633381Y-89363571D02*
X140633381Y-89896905D01*
X140442905Y-89058810D02*
X140252429Y-89630238D01*
X140747667Y-89630238D01*
D13*
X139533381Y-84002381D02*
X139533381Y-83383333D01*
X139914333Y-83716667D01*
X139914333Y-83573809D01*
X139961952Y-83478571D01*
X140009571Y-83430952D01*
X140104810Y-83383333D01*
X140342905Y-83383333D01*
X140438143Y-83430952D01*
X140485762Y-83478571D01*
X140533381Y-83573809D01*
X140533381Y-83859524D01*
X140485762Y-83954762D01*
X140438143Y-84002381D01*
X140438143Y-82954762D02*
X140485762Y-82907143D01*
X140533381Y-82954762D01*
X140485762Y-83002381D01*
X140438143Y-82954762D01*
X140533381Y-82954762D01*
X139533381Y-82573810D02*
X139533381Y-81954762D01*
X139914333Y-82288096D01*
X139914333Y-82145238D01*
X139961952Y-82050000D01*
X140009571Y-82002381D01*
X140104810Y-81954762D01*
X140342905Y-81954762D01*
X140438143Y-82002381D01*
X140485762Y-82050000D01*
X140533381Y-82145238D01*
X140533381Y-82430953D01*
X140485762Y-82526191D01*
X140438143Y-82573810D01*
X140533381Y-81526191D02*
X139533381Y-81526191D01*
X140152429Y-81430953D02*
X140533381Y-81145238D01*
X139866714Y-81145238D02*
X140247667Y-81526191D01*
D14*
X136899667Y-89896905D02*
X136633000Y-89515952D01*
X136442524Y-89896905D02*
X136442524Y-89096905D01*
X136747286Y-89096905D01*
X136823477Y-89135000D01*
X136861572Y-89173095D01*
X136899667Y-89249286D01*
X136899667Y-89363571D01*
X136861572Y-89439762D01*
X136823477Y-89477857D01*
X136747286Y-89515952D01*
X136442524Y-89515952D01*
X137585381Y-89096905D02*
X137433000Y-89096905D01*
X137356810Y-89135000D01*
X137318715Y-89173095D01*
X137242524Y-89287381D01*
X137204429Y-89439762D01*
X137204429Y-89744524D01*
X137242524Y-89820714D01*
X137280619Y-89858810D01*
X137356810Y-89896905D01*
X137509191Y-89896905D01*
X137585381Y-89858810D01*
X137623477Y-89820714D01*
X137661572Y-89744524D01*
X137661572Y-89554048D01*
X137623477Y-89477857D01*
X137585381Y-89439762D01*
X137509191Y-89401667D01*
X137356810Y-89401667D01*
X137280619Y-89439762D01*
X137242524Y-89477857D01*
X137204429Y-89554048D01*
D13*
X136485381Y-84002381D02*
X136485381Y-83383333D01*
X136866333Y-83716667D01*
X136866333Y-83573809D01*
X136913952Y-83478571D01*
X136961571Y-83430952D01*
X137056810Y-83383333D01*
X137294905Y-83383333D01*
X137390143Y-83430952D01*
X137437762Y-83478571D01*
X137485381Y-83573809D01*
X137485381Y-83859524D01*
X137437762Y-83954762D01*
X137390143Y-84002381D01*
X137390143Y-82954762D02*
X137437762Y-82907143D01*
X137485381Y-82954762D01*
X137437762Y-83002381D01*
X137390143Y-82954762D01*
X137485381Y-82954762D01*
X136485381Y-82573810D02*
X136485381Y-81954762D01*
X136866333Y-82288096D01*
X136866333Y-82145238D01*
X136913952Y-82050000D01*
X136961571Y-82002381D01*
X137056810Y-81954762D01*
X137294905Y-81954762D01*
X137390143Y-82002381D01*
X137437762Y-82050000D01*
X137485381Y-82145238D01*
X137485381Y-82430953D01*
X137437762Y-82526191D01*
X137390143Y-82573810D01*
X137485381Y-81526191D02*
X136485381Y-81526191D01*
X137104429Y-81430953D02*
X137485381Y-81145238D01*
X136818714Y-81145238D02*
X137199667Y-81526191D01*
D14*
X142995667Y-89896905D02*
X142729000Y-89515952D01*
X142538524Y-89896905D02*
X142538524Y-89096905D01*
X142843286Y-89096905D01*
X142919477Y-89135000D01*
X142957572Y-89173095D01*
X142995667Y-89249286D01*
X142995667Y-89363571D01*
X142957572Y-89439762D01*
X142919477Y-89477857D01*
X142843286Y-89515952D01*
X142538524Y-89515952D01*
X143262334Y-89096905D02*
X143795667Y-89096905D01*
X143452810Y-89896905D01*
D13*
X142581381Y-84002381D02*
X142581381Y-83383333D01*
X142962333Y-83716667D01*
X142962333Y-83573809D01*
X143009952Y-83478571D01*
X143057571Y-83430952D01*
X143152810Y-83383333D01*
X143390905Y-83383333D01*
X143486143Y-83430952D01*
X143533762Y-83478571D01*
X143581381Y-83573809D01*
X143581381Y-83859524D01*
X143533762Y-83954762D01*
X143486143Y-84002381D01*
X143486143Y-82954762D02*
X143533762Y-82907143D01*
X143581381Y-82954762D01*
X143533762Y-83002381D01*
X143486143Y-82954762D01*
X143581381Y-82954762D01*
X142581381Y-82573810D02*
X142581381Y-81954762D01*
X142962333Y-82288096D01*
X142962333Y-82145238D01*
X143009952Y-82050000D01*
X143057571Y-82002381D01*
X143152810Y-81954762D01*
X143390905Y-81954762D01*
X143486143Y-82002381D01*
X143533762Y-82050000D01*
X143581381Y-82145238D01*
X143581381Y-82430953D01*
X143533762Y-82526191D01*
X143486143Y-82573810D01*
X143581381Y-81526191D02*
X142581381Y-81526191D01*
X143200429Y-81430953D02*
X143581381Y-81145238D01*
X142914714Y-81145238D02*
X143295667Y-81526191D01*
X133889762Y-75985619D02*
X133794524Y-75938000D01*
X133699286Y-75842762D01*
X133556429Y-75699905D01*
X133461190Y-75652286D01*
X133365952Y-75652286D01*
X133413571Y-75890381D02*
X133318333Y-75842762D01*
X133223095Y-75747524D01*
X133175476Y-75557048D01*
X133175476Y-75223714D01*
X133223095Y-75033238D01*
X133318333Y-74938000D01*
X133413571Y-74890381D01*
X133604048Y-74890381D01*
X133699286Y-74938000D01*
X133794524Y-75033238D01*
X133842143Y-75223714D01*
X133842143Y-75557048D01*
X133794524Y-75747524D01*
X133699286Y-75842762D01*
X133604048Y-75890381D01*
X133413571Y-75890381D01*
X134223095Y-74985619D02*
X134270714Y-74938000D01*
X134365952Y-74890381D01*
X134604048Y-74890381D01*
X134699286Y-74938000D01*
X134746905Y-74985619D01*
X134794524Y-75080857D01*
X134794524Y-75176095D01*
X134746905Y-75318952D01*
X134175476Y-75890381D01*
X134794524Y-75890381D01*
X157948334Y-77319143D02*
X157900715Y-77366762D01*
X157757858Y-77414381D01*
X157662620Y-77414381D01*
X157519762Y-77366762D01*
X157424524Y-77271524D01*
X157376905Y-77176286D01*
X157329286Y-76985810D01*
X157329286Y-76842952D01*
X157376905Y-76652476D01*
X157424524Y-76557238D01*
X157519762Y-76462000D01*
X157662620Y-76414381D01*
X157757858Y-76414381D01*
X157900715Y-76462000D01*
X157948334Y-76509619D01*
X158329286Y-76509619D02*
X158376905Y-76462000D01*
X158472143Y-76414381D01*
X158710239Y-76414381D01*
X158805477Y-76462000D01*
X158853096Y-76509619D01*
X158900715Y-76604857D01*
X158900715Y-76700095D01*
X158853096Y-76842952D01*
X158281667Y-77414381D01*
X158900715Y-77414381D01*
X157099095Y-82002381D02*
X157099095Y-82811905D01*
X157146714Y-82907143D01*
X157194333Y-82954762D01*
X157289571Y-83002381D01*
X157480048Y-83002381D01*
X157575286Y-82954762D01*
X157622905Y-82907143D01*
X157670524Y-82811905D01*
X157670524Y-82002381D01*
X158670524Y-83002381D02*
X158099095Y-83002381D01*
X158384809Y-83002381D02*
X158384809Y-82002381D01*
X158289571Y-82145238D01*
X158194333Y-82240476D01*
X158099095Y-82288095D01*
X159639095Y-56221381D02*
X159639095Y-57030905D01*
X159686714Y-57126143D01*
X159734333Y-57173762D01*
X159829571Y-57221381D01*
X160020048Y-57221381D01*
X160115286Y-57173762D01*
X160162905Y-57126143D01*
X160210524Y-57030905D01*
X160210524Y-56221381D01*
X160591476Y-56221381D02*
X161210524Y-56221381D01*
X160877190Y-56602333D01*
X161020048Y-56602333D01*
X161115286Y-56649952D01*
X161162905Y-56697571D01*
X161210524Y-56792810D01*
X161210524Y-57030905D01*
X161162905Y-57126143D01*
X161115286Y-57173762D01*
X161020048Y-57221381D01*
X160734333Y-57221381D01*
X160639095Y-57173762D01*
X160591476Y-57126143D01*
X157948334Y-89257143D02*
X157900715Y-89304762D01*
X157757858Y-89352381D01*
X157662620Y-89352381D01*
X157519762Y-89304762D01*
X157424524Y-89209524D01*
X157376905Y-89114286D01*
X157329286Y-88923810D01*
X157329286Y-88780952D01*
X157376905Y-88590476D01*
X157424524Y-88495238D01*
X157519762Y-88400000D01*
X157662620Y-88352381D01*
X157757858Y-88352381D01*
X157900715Y-88400000D01*
X157948334Y-88447619D01*
X158900715Y-89352381D02*
X158329286Y-89352381D01*
X158615000Y-89352381D02*
X158615000Y-88352381D01*
X158519762Y-88495238D01*
X158424524Y-88590476D01*
X158329286Y-88638095D01*
X146010334Y-51919143D02*
X145962715Y-51966762D01*
X145819858Y-52014381D01*
X145724620Y-52014381D01*
X145581762Y-51966762D01*
X145486524Y-51871524D01*
X145438905Y-51776286D01*
X145391286Y-51585810D01*
X145391286Y-51442952D01*
X145438905Y-51252476D01*
X145486524Y-51157238D01*
X145581762Y-51062000D01*
X145724620Y-51014381D01*
X145819858Y-51014381D01*
X145962715Y-51062000D01*
X146010334Y-51109619D01*
X146343667Y-51014381D02*
X146962715Y-51014381D01*
X146629381Y-51395333D01*
X146772239Y-51395333D01*
X146867477Y-51442952D01*
X146915096Y-51490571D01*
X146962715Y-51585810D01*
X146962715Y-51823905D01*
X146915096Y-51919143D01*
X146867477Y-51966762D01*
X146772239Y-52014381D01*
X146486524Y-52014381D01*
X146391286Y-51966762D01*
X146343667Y-51919143D01*
X140168334Y-70969143D02*
X140120715Y-71016762D01*
X139977858Y-71064381D01*
X139882620Y-71064381D01*
X139739762Y-71016762D01*
X139644524Y-70921524D01*
X139596905Y-70826286D01*
X139549286Y-70635810D01*
X139549286Y-70492952D01*
X139596905Y-70302476D01*
X139644524Y-70207238D01*
X139739762Y-70112000D01*
X139882620Y-70064381D01*
X139977858Y-70064381D01*
X140120715Y-70112000D01*
X140168334Y-70159619D01*
X141025477Y-70397714D02*
X141025477Y-71064381D01*
X140787381Y-70016762D02*
X140549286Y-70731048D01*
X141168334Y-70731048D01*
X145756334Y-67413143D02*
X145708715Y-67460762D01*
X145565858Y-67508381D01*
X145470620Y-67508381D01*
X145327762Y-67460762D01*
X145232524Y-67365524D01*
X145184905Y-67270286D01*
X145137286Y-67079810D01*
X145137286Y-66936952D01*
X145184905Y-66746476D01*
X145232524Y-66651238D01*
X145327762Y-66556000D01*
X145470620Y-66508381D01*
X145565858Y-66508381D01*
X145708715Y-66556000D01*
X145756334Y-66603619D01*
X146661096Y-66508381D02*
X146184905Y-66508381D01*
X146137286Y-66984571D01*
X146184905Y-66936952D01*
X146280143Y-66889333D01*
X146518239Y-66889333D01*
X146613477Y-66936952D01*
X146661096Y-66984571D01*
X146708715Y-67079810D01*
X146708715Y-67317905D01*
X146661096Y-67413143D01*
X146613477Y-67460762D01*
X146518239Y-67508381D01*
X146280143Y-67508381D01*
X146184905Y-67460762D01*
X146137286Y-67413143D01*
X132992905Y-71064381D02*
X132992905Y-70064381D01*
X133231000Y-70064381D01*
X133373858Y-70112000D01*
X133469096Y-70207238D01*
X133516715Y-70302476D01*
X133564334Y-70492952D01*
X133564334Y-70635810D01*
X133516715Y-70826286D01*
X133469096Y-70921524D01*
X133373858Y-71016762D01*
X133231000Y-71064381D01*
X132992905Y-71064381D01*
X134516715Y-71064381D02*
X133945286Y-71064381D01*
X134231000Y-71064381D02*
X134231000Y-70064381D01*
X134135762Y-70207238D01*
X134040524Y-70302476D01*
X133945286Y-70350095D01*
X137279095Y-70683381D02*
X137279095Y-69683381D01*
X137850524Y-70683381D02*
X137421952Y-70111952D01*
X137850524Y-69683381D02*
X137279095Y-70254810D01*
X153947905Y-66873381D02*
X153947905Y-65873381D01*
X154328858Y-65873381D01*
X154424096Y-65921000D01*
X154471715Y-65968619D01*
X154519334Y-66063857D01*
X154519334Y-66206714D01*
X154471715Y-66301952D01*
X154424096Y-66349571D01*
X154328858Y-66397190D01*
X153947905Y-66397190D01*
X154900286Y-65968619D02*
X154947905Y-65921000D01*
X155043143Y-65873381D01*
X155281239Y-65873381D01*
X155376477Y-65921000D01*
X155424096Y-65968619D01*
X155471715Y-66063857D01*
X155471715Y-66159095D01*
X155424096Y-66301952D01*
X154852667Y-66873381D01*
X155471715Y-66873381D01*
X142367095Y-63968381D02*
X142367095Y-64777905D01*
X142414714Y-64873143D01*
X142462333Y-64920762D01*
X142557571Y-64968381D01*
X142748048Y-64968381D01*
X142843286Y-64920762D01*
X142890905Y-64873143D01*
X142938524Y-64777905D01*
X142938524Y-63968381D01*
X143367095Y-64063619D02*
X143414714Y-64016000D01*
X143509952Y-63968381D01*
X143748048Y-63968381D01*
X143843286Y-64016000D01*
X143890905Y-64063619D01*
X143938524Y-64158857D01*
X143938524Y-64254095D01*
X143890905Y-64396952D01*
X143319476Y-64968381D01*
X143938524Y-64968381D01*
X144811809Y-53570190D02*
X144811809Y-54046381D01*
X144478476Y-53046381D02*
X144811809Y-53570190D01*
X145145143Y-53046381D01*
X146002286Y-54046381D02*
X145430857Y-54046381D01*
X145716571Y-54046381D02*
X145716571Y-53046381D01*
X145621333Y-53189238D01*
X145526095Y-53284476D01*
X145430857Y-53332095D01*
X155575095Y-54186381D02*
X155575095Y-54995905D01*
X155622714Y-55091143D01*
X155670333Y-55138762D01*
X155765571Y-55186381D01*
X155956048Y-55186381D01*
X156051286Y-55138762D01*
X156098905Y-55091143D01*
X156146524Y-54995905D01*
X156146524Y-54186381D01*
X157051286Y-54519714D02*
X157051286Y-55186381D01*
X156813190Y-54138762D02*
X156575095Y-54853048D01*
X157194143Y-54853048D01*
X141509762Y-75985619D02*
X141414524Y-75938000D01*
X141319286Y-75842762D01*
X141176429Y-75699905D01*
X141081190Y-75652286D01*
X140985952Y-75652286D01*
X141033571Y-75890381D02*
X140938333Y-75842762D01*
X140843095Y-75747524D01*
X140795476Y-75557048D01*
X140795476Y-75223714D01*
X140843095Y-75033238D01*
X140938333Y-74938000D01*
X141033571Y-74890381D01*
X141224048Y-74890381D01*
X141319286Y-74938000D01*
X141414524Y-75033238D01*
X141462143Y-75223714D01*
X141462143Y-75557048D01*
X141414524Y-75747524D01*
X141319286Y-75842762D01*
X141224048Y-75890381D01*
X141033571Y-75890381D01*
X141795476Y-74890381D02*
X142414524Y-74890381D01*
X142081190Y-75271333D01*
X142224048Y-75271333D01*
X142319286Y-75318952D01*
X142366905Y-75366571D01*
X142414524Y-75461810D01*
X142414524Y-75699905D01*
X142366905Y-75795143D01*
X142319286Y-75842762D01*
X142224048Y-75890381D01*
X141938333Y-75890381D01*
X141843095Y-75842762D01*
X141795476Y-75795143D01*
X149129762Y-75985619D02*
X149034524Y-75938000D01*
X148939286Y-75842762D01*
X148796429Y-75699905D01*
X148701190Y-75652286D01*
X148605952Y-75652286D01*
X148653571Y-75890381D02*
X148558333Y-75842762D01*
X148463095Y-75747524D01*
X148415476Y-75557048D01*
X148415476Y-75223714D01*
X148463095Y-75033238D01*
X148558333Y-74938000D01*
X148653571Y-74890381D01*
X148844048Y-74890381D01*
X148939286Y-74938000D01*
X149034524Y-75033238D01*
X149082143Y-75223714D01*
X149082143Y-75557048D01*
X149034524Y-75747524D01*
X148939286Y-75842762D01*
X148844048Y-75890381D01*
X148653571Y-75890381D01*
X150034524Y-75890381D02*
X149463095Y-75890381D01*
X149748809Y-75890381D02*
X149748809Y-74890381D01*
X149653571Y-75033238D01*
X149558333Y-75128476D01*
X149463095Y-75176095D01*
X158138905Y-71064381D02*
X158138905Y-70064381D01*
X158519858Y-70064381D01*
X158615096Y-70112000D01*
X158662715Y-70159619D01*
X158710334Y-70254857D01*
X158710334Y-70397714D01*
X158662715Y-70492952D01*
X158615096Y-70540571D01*
X158519858Y-70588190D01*
X158138905Y-70588190D01*
X159662715Y-71064381D02*
X159091286Y-71064381D01*
X159377000Y-71064381D02*
X159377000Y-70064381D01*
X159281762Y-70207238D01*
X159186524Y-70302476D01*
X159091286Y-70350095D01*
M02*
