G04 #@! TF.FileFunction,Soldermask,Top*
%FSLAX46Y46*%
G04 Gerber Fmt 4.6, Leading zero omitted, Abs format (unit mm)*
G04 Created by KiCad (PCBNEW 4.0.5) date 11/08/17 14:47:14*
%MOMM*%
%LPD*%
G01*
G04 APERTURE LIST*
%ADD10C,0.100000*%
%ADD11C,2.398980*%
%ADD12C,1.924000*%
%ADD13R,1.900000X1.900000*%
%ADD14C,1.900000*%
%ADD15R,2.700000X2.000000*%
%ADD16O,2.700000X2.000000*%
%ADD17R,2.100000X2.100000*%
%ADD18C,2.050000*%
%ADD19R,2.127200X2.127200*%
%ADD20C,2.127200*%
%ADD21R,2.650000X5.400000*%
%ADD22R,2.400000X2.400000*%
%ADD23C,2.400000*%
%ADD24O,2.127200X2.127200*%
%ADD25R,2.432000X2.127200*%
%ADD26O,2.432000X2.127200*%
%ADD27R,2.100000X1.050000*%
%ADD28R,2.432000X2.432000*%
%ADD29O,2.432000X2.432000*%
G04 APERTURE END LIST*
D10*
D11*
X152273000Y-87630000D03*
X152273000Y-77470000D03*
X155321000Y-77470000D03*
X155321000Y-87630000D03*
X133985000Y-87630000D03*
X133985000Y-77470000D03*
X146177000Y-87630000D03*
X146177000Y-77470000D03*
X149225000Y-77470000D03*
X149225000Y-87630000D03*
X140081000Y-87630000D03*
X140081000Y-77470000D03*
X137033000Y-87630000D03*
X137033000Y-77470000D03*
X143129000Y-77470000D03*
X143129000Y-87630000D03*
D12*
X137033000Y-73152000D03*
X134493000Y-73152000D03*
X139573000Y-73152000D03*
D13*
X159925000Y-74168000D03*
D14*
X161925000Y-74168000D03*
D12*
X160655000Y-80264000D03*
X158115000Y-80264000D03*
X163195000Y-80264000D03*
D15*
X159258000Y-54864000D03*
D16*
X159258000Y-52324000D03*
X159258000Y-49784000D03*
X159258000Y-47244000D03*
X151638000Y-47244000D03*
X151638000Y-49784000D03*
X151638000Y-52324000D03*
X151638000Y-54864000D03*
D13*
X159893000Y-86106000D03*
D14*
X161893000Y-86106000D03*
D17*
X146812000Y-49744000D03*
D18*
X146812000Y-47244000D03*
D19*
X141986000Y-66802000D03*
D20*
X141986000Y-69302000D03*
D19*
X145923000Y-64770000D03*
D20*
X148423000Y-64770000D03*
D21*
X158369000Y-93599000D03*
X154406600Y-93599000D03*
X150444200Y-93599000D03*
X146481800Y-93599000D03*
X142519400Y-93599000D03*
X138557000Y-93599000D03*
D22*
X136779000Y-68199000D03*
D23*
X134239000Y-68199000D03*
D19*
X155448000Y-63881000D03*
D24*
X155448000Y-61341000D03*
X157988000Y-63881000D03*
X157988000Y-61341000D03*
X160528000Y-63881000D03*
X160528000Y-61341000D03*
D15*
X141986000Y-62484000D03*
D16*
X141986000Y-59944000D03*
X141986000Y-57404000D03*
X141986000Y-54864000D03*
X141986000Y-52324000D03*
X141986000Y-49784000D03*
X141986000Y-47244000D03*
X134366000Y-47244000D03*
X134366000Y-49784000D03*
X134366000Y-52324000D03*
X134366000Y-54864000D03*
X134366000Y-57404000D03*
X134366000Y-59944000D03*
X134366000Y-62484000D03*
D25*
X146177000Y-56134000D03*
D26*
X146177000Y-58674000D03*
X146177000Y-61214000D03*
D27*
X162433000Y-52959000D03*
X162433000Y-51689000D03*
X162433000Y-50419000D03*
X162433000Y-49149000D03*
X155133000Y-49149000D03*
X155133000Y-50419000D03*
X155133000Y-51689000D03*
X155133000Y-52959000D03*
D12*
X144653000Y-73152000D03*
X142113000Y-73152000D03*
X147193000Y-73152000D03*
X152273000Y-73152000D03*
X149733000Y-73152000D03*
X154813000Y-73152000D03*
D28*
X162179000Y-68326000D03*
D29*
X159639000Y-68326000D03*
M02*
