G04 #@! TF.FileFunction,Copper,L2,Bot,Signal*
%FSLAX46Y46*%
G04 Gerber Fmt 4.6, Leading zero omitted, Abs format (unit mm)*
G04 Created by KiCad (PCBNEW 4.0.5) date 11/08/17 14:47:14*
%MOMM*%
%LPD*%
G01*
G04 APERTURE LIST*
%ADD10C,0.100000*%
%ADD11C,0.300000*%
%ADD12C,1.998980*%
%ADD13C,1.524000*%
%ADD14R,1.500000X1.500000*%
%ADD15C,1.500000*%
%ADD16R,2.300000X1.600000*%
%ADD17O,2.300000X1.600000*%
%ADD18R,1.700000X1.700000*%
%ADD19C,1.650000*%
%ADD20R,1.727200X1.727200*%
%ADD21C,1.727200*%
%ADD22R,2.250000X5.000000*%
%ADD23R,2.000000X2.000000*%
%ADD24C,2.000000*%
%ADD25O,1.727200X1.727200*%
%ADD26R,2.032000X1.727200*%
%ADD27O,2.032000X1.727200*%
%ADD28R,2.032000X2.032000*%
%ADD29O,2.032000X2.032000*%
%ADD30C,1.000000*%
%ADD31C,0.500000*%
G04 APERTURE END LIST*
D10*
D11*
X162770357Y-46295857D02*
X162841786Y-46510143D01*
X162913214Y-46581571D01*
X163056071Y-46653000D01*
X163270357Y-46653000D01*
X163413214Y-46581571D01*
X163484643Y-46510143D01*
X163556071Y-46367285D01*
X163556071Y-45795857D01*
X162056071Y-45795857D01*
X162056071Y-46295857D01*
X162127500Y-46438714D01*
X162198929Y-46510143D01*
X162341786Y-46581571D01*
X162484643Y-46581571D01*
X162627500Y-46510143D01*
X162698929Y-46438714D01*
X162770357Y-46295857D01*
X162770357Y-45795857D01*
X163556071Y-47510143D02*
X163484643Y-47367285D01*
X163413214Y-47295857D01*
X163270357Y-47224428D01*
X162841786Y-47224428D01*
X162698929Y-47295857D01*
X162627500Y-47367285D01*
X162556071Y-47510143D01*
X162556071Y-47724428D01*
X162627500Y-47867285D01*
X162698929Y-47938714D01*
X162841786Y-48010143D01*
X163270357Y-48010143D01*
X163413214Y-47938714D01*
X163484643Y-47867285D01*
X163556071Y-47724428D01*
X163556071Y-47510143D01*
X162556071Y-48438714D02*
X162556071Y-49010143D01*
X162056071Y-48653000D02*
X163341786Y-48653000D01*
X163484643Y-48724428D01*
X163556071Y-48867286D01*
X163556071Y-49010143D01*
X162556071Y-49295857D02*
X162556071Y-49867286D01*
X162056071Y-49510143D02*
X163341786Y-49510143D01*
X163484643Y-49581571D01*
X163556071Y-49724429D01*
X163556071Y-49867286D01*
X163556071Y-50581572D02*
X163484643Y-50438714D01*
X163413214Y-50367286D01*
X163270357Y-50295857D01*
X162841786Y-50295857D01*
X162698929Y-50367286D01*
X162627500Y-50438714D01*
X162556071Y-50581572D01*
X162556071Y-50795857D01*
X162627500Y-50938714D01*
X162698929Y-51010143D01*
X162841786Y-51081572D01*
X163270357Y-51081572D01*
X163413214Y-51010143D01*
X163484643Y-50938714D01*
X163556071Y-50795857D01*
X163556071Y-50581572D01*
X163556071Y-51724429D02*
X162556071Y-51724429D01*
X162698929Y-51724429D02*
X162627500Y-51795857D01*
X162556071Y-51938715D01*
X162556071Y-52153000D01*
X162627500Y-52295857D01*
X162770357Y-52367286D01*
X163556071Y-52367286D01*
X162770357Y-52367286D02*
X162627500Y-52438715D01*
X162556071Y-52581572D01*
X162556071Y-52795857D01*
X162627500Y-52938715D01*
X162770357Y-53010143D01*
X163556071Y-53010143D01*
D12*
X152273000Y-87630000D03*
X152273000Y-77470000D03*
X155321000Y-77470000D03*
X155321000Y-87630000D03*
X133985000Y-87630000D03*
X133985000Y-77470000D03*
X146177000Y-87630000D03*
X146177000Y-77470000D03*
X149225000Y-77470000D03*
X149225000Y-87630000D03*
X140081000Y-87630000D03*
X140081000Y-77470000D03*
X137033000Y-87630000D03*
X137033000Y-77470000D03*
X143129000Y-77470000D03*
X143129000Y-87630000D03*
D13*
X137033000Y-73152000D03*
X134493000Y-73152000D03*
X139573000Y-73152000D03*
D14*
X159925000Y-74168000D03*
D15*
X161925000Y-74168000D03*
D13*
X160655000Y-80264000D03*
X158115000Y-80264000D03*
X163195000Y-80264000D03*
D16*
X159258000Y-54864000D03*
D17*
X159258000Y-52324000D03*
X159258000Y-49784000D03*
X159258000Y-47244000D03*
X151638000Y-47244000D03*
X151638000Y-49784000D03*
X151638000Y-52324000D03*
X151638000Y-54864000D03*
D14*
X159893000Y-86106000D03*
D15*
X161893000Y-86106000D03*
D18*
X146812000Y-49744000D03*
D19*
X146812000Y-47244000D03*
D20*
X141986000Y-66802000D03*
D21*
X141986000Y-69302000D03*
D20*
X145923000Y-64770000D03*
D21*
X148423000Y-64770000D03*
D22*
X158369000Y-93599000D03*
X154406600Y-93599000D03*
X150444200Y-93599000D03*
X146481800Y-93599000D03*
X142519400Y-93599000D03*
X138557000Y-93599000D03*
D23*
X136779000Y-68199000D03*
D24*
X134239000Y-68199000D03*
D20*
X155448000Y-63881000D03*
D25*
X155448000Y-61341000D03*
X157988000Y-63881000D03*
X157988000Y-61341000D03*
X160528000Y-63881000D03*
X160528000Y-61341000D03*
D16*
X141986000Y-62484000D03*
D17*
X141986000Y-59944000D03*
X141986000Y-57404000D03*
X141986000Y-54864000D03*
X141986000Y-52324000D03*
X141986000Y-49784000D03*
X141986000Y-47244000D03*
X134366000Y-47244000D03*
X134366000Y-49784000D03*
X134366000Y-52324000D03*
X134366000Y-54864000D03*
X134366000Y-57404000D03*
X134366000Y-59944000D03*
X134366000Y-62484000D03*
D26*
X146177000Y-56134000D03*
D27*
X146177000Y-58674000D03*
X146177000Y-61214000D03*
D13*
X144653000Y-73152000D03*
X142113000Y-73152000D03*
X147193000Y-73152000D03*
X152273000Y-73152000D03*
X149733000Y-73152000D03*
X154813000Y-73152000D03*
D28*
X162179000Y-68326000D03*
D29*
X159639000Y-68326000D03*
D15*
X154432000Y-90805000D03*
X138168990Y-53086000D03*
X158369000Y-90805000D03*
X138176594Y-48511910D03*
X150495000Y-90805000D03*
X146558000Y-90805000D03*
X142494000Y-90805000D03*
X138557000Y-90805000D03*
X147191096Y-69595179D03*
X139319000Y-62738000D03*
X137647450Y-63256133D03*
D30*
X158115000Y-80264000D02*
X158115000Y-71888400D01*
X158115000Y-71888400D02*
X159131000Y-70872400D01*
X159131000Y-70872400D02*
X161648600Y-70872400D01*
X161648600Y-70872400D02*
X162179000Y-70342000D01*
X162179000Y-70342000D02*
X162179000Y-68326000D01*
X158115000Y-80264000D02*
X158115000Y-82423000D01*
X159893000Y-86106000D02*
X159893000Y-84201000D01*
X159893000Y-84201000D02*
X158115000Y-82423000D01*
X155575000Y-89662000D02*
X156337000Y-89662000D01*
X156337000Y-89662000D02*
X159893000Y-86106000D01*
X154432000Y-90805000D02*
X155575000Y-89662000D01*
D31*
X154432000Y-90805000D02*
X154432000Y-93573600D01*
X154432000Y-93573600D02*
X154406600Y-93599000D01*
D30*
X161925000Y-76200000D02*
X161925000Y-74168000D01*
X160655000Y-77470000D02*
X161925000Y-76200000D01*
X160655000Y-80264000D02*
X160655000Y-77470000D01*
X160655000Y-82804000D02*
X160655000Y-80264000D01*
X161893000Y-86106000D02*
X161893000Y-84042000D01*
X161893000Y-84042000D02*
X160655000Y-82804000D01*
X158369000Y-90805000D02*
X161893000Y-87281000D01*
X161893000Y-87281000D02*
X161893000Y-86106000D01*
D31*
X138176594Y-48511910D02*
X138176594Y-53078396D01*
X138176594Y-53078396D02*
X138168990Y-53086000D01*
X158369000Y-90805000D02*
X158369000Y-93599000D01*
X160528000Y-61341000D02*
X160528000Y-57006518D01*
X160528000Y-57006518D02*
X161400518Y-56134000D01*
X161400518Y-56134000D02*
X161400518Y-49036518D01*
X161400518Y-49036518D02*
X159608000Y-47244000D01*
X159608000Y-47244000D02*
X159258000Y-47244000D01*
X146812000Y-49744000D02*
X146812000Y-51689000D01*
X146812000Y-51689000D02*
X148463000Y-53340000D01*
X148463000Y-53340000D02*
X148463000Y-62230000D01*
X148463000Y-62230000D02*
X147701000Y-62992000D01*
X147701000Y-62992000D02*
X144044000Y-62992000D01*
X144044000Y-62992000D02*
X143536000Y-62484000D01*
X143536000Y-62484000D02*
X141986000Y-62484000D01*
X137033000Y-87630000D02*
X133985000Y-87630000D01*
X151638000Y-54864000D02*
X154286758Y-54864000D01*
X154286758Y-54864000D02*
X155448000Y-56025242D01*
X155448000Y-56025242D02*
X155448000Y-61341000D01*
D11*
X160528000Y-63881000D02*
X158684599Y-65724401D01*
X149377401Y-65724401D02*
X148423000Y-64770000D01*
X158684599Y-65724401D02*
X149377401Y-65724401D01*
X152273000Y-87630000D02*
X150495000Y-89408000D01*
X150495000Y-89408000D02*
X150495000Y-90805000D01*
X150444200Y-93599000D02*
X150444200Y-90855800D01*
X150444200Y-90855800D02*
X150495000Y-90805000D01*
X147701000Y-86106000D02*
X147701000Y-89662000D01*
X147701000Y-89662000D02*
X146558000Y-90805000D01*
X153797000Y-80010000D02*
X147701000Y-86106000D01*
X153797000Y-74168000D02*
X153797000Y-80010000D01*
X154813000Y-73152000D02*
X153797000Y-74168000D01*
X146558000Y-90805000D02*
X146558000Y-93522800D01*
X146558000Y-93522800D02*
X146481800Y-93599000D01*
X142494000Y-90805000D02*
X144653000Y-88646000D01*
X144653000Y-88646000D02*
X144653000Y-78994000D01*
X144653000Y-78994000D02*
X146177000Y-77470000D01*
X142519400Y-93599000D02*
X142519400Y-90830400D01*
X142519400Y-90830400D02*
X142494000Y-90805000D01*
X138557000Y-90805000D02*
X138557000Y-78994000D01*
X138557000Y-78994000D02*
X140081000Y-77470000D01*
X138557000Y-90805000D02*
X138557000Y-93599000D01*
X136779000Y-68199000D02*
X138079000Y-68199000D01*
X145932757Y-70853518D02*
X147191096Y-69595179D01*
X138079000Y-68199000D02*
X140733518Y-70853518D01*
X140733518Y-70853518D02*
X145932757Y-70853518D01*
X148560102Y-48469001D02*
X149499594Y-49408493D01*
X149499594Y-49408493D02*
X149499594Y-59096194D01*
X154284400Y-63881000D02*
X155448000Y-63881000D01*
X149499594Y-59096194D02*
X154284400Y-63881000D01*
X134366000Y-47244000D02*
X139397868Y-47244000D01*
X139397868Y-47244000D02*
X140622869Y-48469001D01*
X140622869Y-48469001D02*
X148560102Y-48469001D01*
X148560102Y-48469001D02*
X149785103Y-47244000D01*
X149785103Y-47244000D02*
X151638000Y-47244000D01*
X151638000Y-47259555D02*
X151638000Y-47244000D01*
X157988000Y-63881000D02*
X156711601Y-62604601D01*
X156711601Y-62604601D02*
X156711601Y-51428601D01*
X156711601Y-51428601D02*
X155067000Y-49784000D01*
X155067000Y-49784000D02*
X151638000Y-49784000D01*
X157344396Y-52324000D02*
X157344396Y-56125396D01*
X157344396Y-47225202D02*
X157344396Y-52324000D01*
X157344396Y-52324000D02*
X159258000Y-52324000D01*
X141986000Y-47244000D02*
X142336000Y-47244000D01*
X155867002Y-45747808D02*
X157344396Y-47225202D01*
X142336000Y-47244000D02*
X143832192Y-45747808D01*
X143832192Y-45747808D02*
X155867002Y-45747808D01*
X157344396Y-56125396D02*
X157988000Y-56769000D01*
X157988000Y-56769000D02*
X157988000Y-61341000D01*
X158908000Y-52324000D02*
X159258000Y-52324000D01*
X152273000Y-72074370D02*
X152273000Y-73152000D01*
X152273000Y-70208327D02*
X152273000Y-72074370D01*
X149942791Y-67878118D02*
X152273000Y-70208327D01*
X143003040Y-64406134D02*
X146475024Y-67878118D01*
X137095449Y-64406134D02*
X143003040Y-64406134D01*
X136497449Y-63808134D02*
X137095449Y-64406134D01*
X136497449Y-59185449D02*
X136497449Y-63808134D01*
X134716000Y-57404000D02*
X136497449Y-59185449D01*
X134366000Y-57404000D02*
X134716000Y-57404000D01*
X146475024Y-67878118D02*
X149942791Y-67878118D01*
X139319000Y-62738000D02*
X139319000Y-52101000D01*
X141636000Y-49784000D02*
X141986000Y-49784000D01*
X139319000Y-52101000D02*
X141636000Y-49784000D01*
X137647450Y-55255450D02*
X137647450Y-63256133D01*
X134716000Y-52324000D02*
X137647450Y-55255450D01*
X134366000Y-52324000D02*
X134716000Y-52324000D01*
X135947438Y-64035956D02*
X136867627Y-64956145D01*
X136867627Y-64956145D02*
X142775218Y-64956145D01*
X142775218Y-64956145D02*
X146247202Y-68428129D01*
X151001928Y-69715088D02*
X151001928Y-76198928D01*
X134716000Y-59944000D02*
X135947438Y-61175438D01*
X134366000Y-59944000D02*
X134716000Y-59944000D01*
X135947438Y-61175438D02*
X135947438Y-64035956D01*
X146247202Y-68428129D02*
X149714969Y-68428129D01*
X149714969Y-68428129D02*
X151001928Y-69715088D01*
X151001928Y-76198928D02*
X151273511Y-76470511D01*
X151273511Y-76470511D02*
X152273000Y-77470000D01*
M02*
