M48
;DRILL file {KiCad 4.0.5} date 11/08/17 14:47:17
;FORMAT={-:-/ absolute / metric / decimal}
FMAT,2
METRIC,TZ
T1C0.750
T2C0.800
T3C0.800
T4C1.001
T5C1.016
%
G90
G05
M71
T1
X137.647Y-63.256
X138.169Y-53.086
X138.177Y-48.512
X138.557Y-90.805
X139.319Y-62.738
X142.494Y-90.805
X146.558Y-90.805
X147.191Y-69.595
X150.495Y-90.805
X154.432Y-90.805
X158.369Y-90.805
T2
X134.366Y-47.244
X134.366Y-49.784
X134.366Y-52.324
X134.366Y-54.864
X134.366Y-57.404
X134.366Y-59.944
X134.366Y-62.484
X134.493Y-73.152
X137.033Y-73.152
X139.573Y-73.152
X141.986Y-47.244
X141.986Y-49.784
X141.986Y-52.324
X141.986Y-54.864
X141.986Y-57.404
X141.986Y-59.944
X141.986Y-62.484
X141.986Y-66.802
X142.113Y-73.152
X144.653Y-73.152
X145.923Y-64.77
X146.177Y-56.134
X146.177Y-58.674
X146.177Y-61.214
X146.812Y-49.744
X147.193Y-73.152
X149.733Y-73.152
X151.638Y-47.244
X151.638Y-49.784
X151.638Y-52.324
X151.638Y-54.864
X152.273Y-73.152
X154.813Y-73.152
X158.115Y-80.264
X159.258Y-47.244
X159.258Y-49.784
X159.258Y-52.324
X159.258Y-54.864
X159.893Y-86.106
X159.925Y-74.168
X160.655Y-80.264
X161.893Y-86.106
X161.925Y-74.168
X163.195Y-80.264
T3
X141.986Y-69.302
X146.812Y-47.244
X148.423Y-64.77
T4
X133.985Y-77.47
X133.985Y-87.63
X134.239Y-68.199
X136.779Y-68.199
X137.033Y-77.47
X137.033Y-87.63
X140.081Y-77.47
X140.081Y-87.63
X143.129Y-77.47
X143.129Y-87.63
X146.177Y-77.47
X146.177Y-87.63
X149.225Y-77.47
X149.225Y-87.63
X152.273Y-77.47
X152.273Y-87.63
X155.321Y-77.47
X155.321Y-87.63
T5
X155.448Y-61.341
X155.448Y-63.881
X157.988Y-61.341
X157.988Y-63.881
X159.639Y-68.326
X160.528Y-61.341
X160.528Y-63.881
X162.179Y-68.326
T0
M30
