G04 #@! TF.FileFunction,Legend,Bot*
%FSLAX46Y46*%
G04 Gerber Fmt 4.6, Leading zero omitted, Abs format (unit mm)*
G04 Created by KiCad (PCBNEW 4.0.5) date 12/24/17 14:42:58*
%MOMM*%
%LPD*%
G01*
G04 APERTURE LIST*
%ADD10C,0.100000*%
%ADD11C,0.300000*%
G04 APERTURE END LIST*
D10*
D11*
X116497571Y-91658714D02*
X114997571Y-91658714D01*
X116426143Y-91658714D02*
X116497571Y-91515857D01*
X116497571Y-91230143D01*
X116426143Y-91087285D01*
X116354714Y-91015857D01*
X116211857Y-90944428D01*
X115783286Y-90944428D01*
X115640429Y-91015857D01*
X115569000Y-91087285D01*
X115497571Y-91230143D01*
X115497571Y-91515857D01*
X115569000Y-91658714D01*
X115497571Y-93015857D02*
X116497571Y-93015857D01*
X115497571Y-92373000D02*
X116283286Y-92373000D01*
X116426143Y-92444428D01*
X116497571Y-92587286D01*
X116497571Y-92801571D01*
X116426143Y-92944428D01*
X116354714Y-93015857D01*
X116497571Y-93944429D02*
X116426143Y-93801571D01*
X116354714Y-93730143D01*
X116211857Y-93658714D01*
X115783286Y-93658714D01*
X115640429Y-93730143D01*
X115569000Y-93801571D01*
X115497571Y-93944429D01*
X115497571Y-94158714D01*
X115569000Y-94301571D01*
X115640429Y-94373000D01*
X115783286Y-94444429D01*
X116211857Y-94444429D01*
X116354714Y-94373000D01*
X116426143Y-94301571D01*
X116497571Y-94158714D01*
X116497571Y-93944429D01*
X115497571Y-94873000D02*
X115497571Y-95444429D01*
X114997571Y-95087286D02*
X116283286Y-95087286D01*
X116426143Y-95158714D01*
X116497571Y-95301572D01*
X116497571Y-95444429D01*
X116497571Y-96587286D02*
X115711857Y-96587286D01*
X115569000Y-96515857D01*
X115497571Y-96373000D01*
X115497571Y-96087286D01*
X115569000Y-95944429D01*
X116426143Y-96587286D02*
X116497571Y-96444429D01*
X116497571Y-96087286D01*
X116426143Y-95944429D01*
X116283286Y-95873000D01*
X116140429Y-95873000D01*
X115997571Y-95944429D01*
X115926143Y-96087286D01*
X115926143Y-96444429D01*
X115854714Y-96587286D01*
X115497571Y-97301572D02*
X116997571Y-97301572D01*
X115569000Y-97301572D02*
X115497571Y-97444429D01*
X115497571Y-97730143D01*
X115569000Y-97873000D01*
X115640429Y-97944429D01*
X115783286Y-98015858D01*
X116211857Y-98015858D01*
X116354714Y-97944429D01*
X116426143Y-97873000D01*
X116497571Y-97730143D01*
X116497571Y-97444429D01*
X116426143Y-97301572D01*
X116426143Y-99230143D02*
X116497571Y-99087286D01*
X116497571Y-98801572D01*
X116426143Y-98658715D01*
X116283286Y-98587286D01*
X115711857Y-98587286D01*
X115569000Y-98658715D01*
X115497571Y-98801572D01*
X115497571Y-99087286D01*
X115569000Y-99230143D01*
X115711857Y-99301572D01*
X115854714Y-99301572D01*
X115997571Y-98587286D01*
X119047571Y-90373000D02*
X117547571Y-90373000D01*
X118119000Y-90373000D02*
X118047571Y-90515857D01*
X118047571Y-90801571D01*
X118119000Y-90944428D01*
X118190429Y-91015857D01*
X118333286Y-91087286D01*
X118761857Y-91087286D01*
X118904714Y-91015857D01*
X118976143Y-90944428D01*
X119047571Y-90801571D01*
X119047571Y-90515857D01*
X118976143Y-90373000D01*
X118047571Y-91587286D02*
X119047571Y-91944429D01*
X118047571Y-92301571D02*
X119047571Y-91944429D01*
X119404714Y-91801571D01*
X119476143Y-91730143D01*
X119547571Y-91587286D01*
X119047571Y-94015857D02*
X117547571Y-94015857D01*
X118904714Y-94730143D02*
X118976143Y-94801571D01*
X119047571Y-94730143D01*
X118976143Y-94658714D01*
X118904714Y-94730143D01*
X119047571Y-94730143D01*
X119047571Y-95444429D02*
X117547571Y-95444429D01*
X119047571Y-96301572D02*
X118190429Y-95658715D01*
X117547571Y-96301572D02*
X118404714Y-95444429D01*
X119047571Y-97158715D02*
X118976143Y-97015857D01*
X118904714Y-96944429D01*
X118761857Y-96873000D01*
X118333286Y-96873000D01*
X118190429Y-96944429D01*
X118119000Y-97015857D01*
X118047571Y-97158715D01*
X118047571Y-97373000D01*
X118119000Y-97515857D01*
X118190429Y-97587286D01*
X118333286Y-97658715D01*
X118761857Y-97658715D01*
X118904714Y-97587286D01*
X118976143Y-97515857D01*
X119047571Y-97373000D01*
X119047571Y-97158715D01*
X119047571Y-98301572D02*
X118047571Y-98301572D01*
X118333286Y-98301572D02*
X118190429Y-98373000D01*
X118119000Y-98444429D01*
X118047571Y-98587286D01*
X118047571Y-98730143D01*
X119047571Y-99230143D02*
X117547571Y-99230143D01*
X118119000Y-99230143D02*
X118047571Y-99373000D01*
X118047571Y-99658714D01*
X118119000Y-99801571D01*
X118190429Y-99873000D01*
X118333286Y-99944429D01*
X118761857Y-99944429D01*
X118904714Y-99873000D01*
X118976143Y-99801571D01*
X119047571Y-99658714D01*
X119047571Y-99373000D01*
X118976143Y-99230143D01*
M02*
