G04 #@! TF.FileFunction,Copper,L2,Bot,Signal*
%FSLAX46Y46*%
G04 Gerber Fmt 4.6, Leading zero omitted, Abs format (unit mm)*
G04 Created by KiCad (PCBNEW 4.0.5) date 12/24/17 14:42:58*
%MOMM*%
%LPD*%
G01*
G04 APERTURE LIST*
%ADD10C,0.100000*%
%ADD11C,1.998980*%
%ADD12R,2.250000X6.000000*%
%ADD13R,1.300000X1.300000*%
%ADD14C,1.300000*%
%ADD15R,2.050000X6.000000*%
%ADD16O,1.600000X1.600000*%
%ADD17C,2.032000*%
%ADD18C,1.000000*%
%ADD19C,0.600000*%
%ADD20C,0.400000*%
G04 APERTURE END LIST*
D10*
D11*
X112268000Y-92075000D03*
X122428000Y-92075000D03*
D12*
X133633000Y-117254000D03*
X129670600Y-117254000D03*
X125708200Y-117254000D03*
X121745800Y-117254000D03*
X117783400Y-117254000D03*
X113821000Y-117254000D03*
D13*
X112268000Y-103251000D03*
D14*
X112268000Y-108251000D03*
D12*
X133633000Y-78654000D03*
D15*
X129870600Y-78654000D03*
X125508200Y-78654000D03*
D12*
X121745800Y-78654000D03*
X117783400Y-78654000D03*
X113821000Y-78654000D03*
D11*
X112268000Y-98425000D03*
X122428000Y-98425000D03*
X112268000Y-95250000D03*
X122428000Y-95250000D03*
D16*
X116540000Y-109500000D03*
X119080000Y-109500000D03*
X121620000Y-109500000D03*
X124160000Y-109500000D03*
X126700000Y-109500000D03*
X129240000Y-109500000D03*
X131780000Y-109500000D03*
X134320000Y-109500000D03*
X134320000Y-101880000D03*
X131780000Y-101880000D03*
X129240000Y-101880000D03*
X126700000Y-101880000D03*
X124160000Y-101880000D03*
X121620000Y-101880000D03*
X119080000Y-101880000D03*
X116540000Y-101880000D03*
D17*
X133656000Y-87670000D03*
X129693600Y-87670000D03*
X125731200Y-87670000D03*
X121768800Y-87670000D03*
X117806400Y-87670000D03*
X113844000Y-87670000D03*
X133656000Y-85130000D03*
X129693600Y-85130000D03*
X125731200Y-85130000D03*
X121768800Y-85130000D03*
X117806400Y-85130000D03*
X113844000Y-85130000D03*
X128651000Y-96520000D03*
X131191000Y-96520000D03*
X133731000Y-96520000D03*
D18*
X129670600Y-114000000D03*
X129600000Y-82000000D03*
X133633000Y-114000000D03*
X133600000Y-82000000D03*
X125700000Y-114000000D03*
X125700000Y-82000000D03*
X121745800Y-114000000D03*
X117783400Y-114000000D03*
X113821000Y-114000000D03*
X121700000Y-82000000D03*
X117800000Y-82000000D03*
X113800000Y-82000000D03*
D19*
X112268000Y-98425000D02*
X112268000Y-103251000D01*
X112268000Y-95250000D02*
X112268000Y-98425000D01*
X112268000Y-92075000D02*
X112268000Y-95250000D01*
X129670600Y-117254000D02*
X129670600Y-114000000D01*
X112268000Y-103251000D02*
X115169000Y-103251000D01*
X115169000Y-103251000D02*
X116540000Y-101880000D01*
X129693600Y-85130000D02*
X129693600Y-82093600D01*
X129693600Y-82093600D02*
X129600000Y-82000000D01*
X129693600Y-87670000D02*
X129693600Y-85130000D01*
X129670600Y-78654000D02*
X129670600Y-81929400D01*
X129670600Y-81929400D02*
X129600000Y-82000000D01*
X136000000Y-107820000D02*
X136000000Y-96520000D01*
X136000000Y-96520000D02*
X136000000Y-90014000D01*
X133731000Y-96520000D02*
X136000000Y-96520000D01*
X131191000Y-96520000D02*
X133731000Y-96520000D01*
X136000000Y-90014000D02*
X133656000Y-87670000D01*
X134320000Y-109500000D02*
X136000000Y-107820000D01*
X133633000Y-111742452D02*
X133633000Y-114000000D01*
X133633000Y-114000000D02*
X133633000Y-117254000D01*
X133656000Y-85130000D02*
X133656000Y-87670000D01*
X133600000Y-82000000D02*
X133600000Y-85074000D01*
X133600000Y-85074000D02*
X133656000Y-85130000D01*
X133600000Y-82000000D02*
X133600000Y-78687000D01*
X133600000Y-78687000D02*
X133633000Y-78654000D01*
X134320000Y-111055452D02*
X134320000Y-109500000D01*
X133633000Y-111742452D02*
X134320000Y-111055452D01*
X131780000Y-109500000D02*
X129240000Y-109500000D01*
X134320000Y-109500000D02*
X131780000Y-109500000D01*
D20*
X127989999Y-102870000D02*
X127975436Y-102855437D01*
X127975436Y-102855437D02*
X127975436Y-100759203D01*
X127975436Y-100759203D02*
X127989999Y-100744640D01*
D19*
X125731200Y-87670000D02*
X126492000Y-88430800D01*
X126492000Y-88430800D02*
X126492000Y-99246641D01*
X126492000Y-99246641D02*
X127989999Y-100744640D01*
X127989999Y-108510001D02*
X127989999Y-102870000D01*
D20*
X128000000Y-110500000D02*
X127989999Y-110489999D01*
X127989999Y-110489999D02*
X127989999Y-108510001D01*
D19*
X128000000Y-111700000D02*
X128000000Y-110500000D01*
X125700000Y-114000000D02*
X128000000Y-111700000D01*
X125700000Y-114000000D02*
X125700000Y-117245800D01*
X125700000Y-117245800D02*
X125708200Y-117254000D01*
X125731200Y-85130000D02*
X125731200Y-87670000D01*
X125700000Y-82000000D02*
X125700000Y-85098800D01*
X125700000Y-85098800D02*
X125731200Y-85130000D01*
D20*
X125700000Y-82000000D02*
X125700000Y-78662200D01*
X125700000Y-78662200D02*
X125708200Y-78654000D01*
X121745800Y-114000000D02*
X121745800Y-117254000D01*
X121745800Y-117254000D02*
X121745800Y-111914200D01*
X121745800Y-111914200D02*
X124160000Y-109500000D01*
X117783400Y-117254000D02*
X117783400Y-114000000D01*
X117783400Y-117254000D02*
X117783400Y-112629822D01*
X117783400Y-112629822D02*
X117829999Y-112583223D01*
X117829999Y-112583223D02*
X117829999Y-107770001D01*
X117829999Y-107770001D02*
X121620000Y-103980000D01*
X121620000Y-103980000D02*
X121620000Y-101880000D01*
X113821000Y-117254000D02*
X113821000Y-114000000D01*
X113821000Y-117254000D02*
X113821000Y-109221000D01*
X113821000Y-109221000D02*
X113800000Y-109200000D01*
X113800000Y-109200000D02*
X119080000Y-103920000D01*
X119080000Y-103920000D02*
X119080000Y-101880000D01*
X121700000Y-82000000D02*
X120015000Y-83685000D01*
X120015000Y-83685000D02*
X120015000Y-99342543D01*
X122896972Y-105696972D02*
X126700000Y-109500000D01*
X120015000Y-99342543D02*
X121002457Y-100330000D01*
X121002457Y-100330000D02*
X122180370Y-100330000D01*
X122180370Y-100330000D02*
X122896972Y-101046602D01*
X122896972Y-101046602D02*
X122896972Y-105696972D01*
X121745800Y-78654000D02*
X121745800Y-81954200D01*
X121745800Y-81954200D02*
X121700000Y-82000000D01*
X122428000Y-92075000D02*
X125269350Y-94916350D01*
X125269350Y-94916350D02*
X125269350Y-100449350D01*
X125269350Y-100449350D02*
X126700000Y-101880000D01*
X117800000Y-82000000D02*
X117800000Y-78670600D01*
X117800000Y-78670600D02*
X117783400Y-78654000D01*
X113821000Y-78654000D02*
X113821000Y-81979000D01*
X113821000Y-81979000D02*
X113800000Y-82000000D01*
X121768800Y-85130000D02*
X121768800Y-87670000D01*
X124160000Y-96982000D02*
X124160000Y-101880000D01*
X122428000Y-95250000D02*
X124160000Y-96982000D01*
X117806400Y-87670000D02*
X117806400Y-85130000D01*
X113844000Y-85130000D02*
X113844000Y-87670000D01*
M02*
