G04 #@! TF.FileFunction,Copper,L1,Top,Signal*
%FSLAX46Y46*%
G04 Gerber Fmt 4.6, Leading zero omitted, Abs format (unit mm)*
G04 Created by KiCad (PCBNEW 4.0.5) date 12/24/17 14:42:58*
%MOMM*%
%LPD*%
G01*
G04 APERTURE LIST*
%ADD10C,0.100000*%
%ADD11C,0.300000*%
%ADD12C,1.998980*%
%ADD13R,2.250000X6.000000*%
%ADD14R,1.300000X1.300000*%
%ADD15C,1.300000*%
%ADD16R,2.050000X6.000000*%
%ADD17O,1.600000X1.600000*%
%ADD18C,2.032000*%
%ADD19C,1.000000*%
%ADD20C,0.600000*%
%ADD21C,0.400000*%
G04 APERTURE END LIST*
D10*
D11*
X126456714Y-92626571D02*
X126456714Y-91126571D01*
X126456714Y-92555143D02*
X126313857Y-92626571D01*
X126028143Y-92626571D01*
X125885285Y-92555143D01*
X125813857Y-92483714D01*
X125742428Y-92340857D01*
X125742428Y-91912286D01*
X125813857Y-91769429D01*
X125885285Y-91698000D01*
X126028143Y-91626571D01*
X126313857Y-91626571D01*
X126456714Y-91698000D01*
X127813857Y-91626571D02*
X127813857Y-92626571D01*
X127171000Y-91626571D02*
X127171000Y-92412286D01*
X127242428Y-92555143D01*
X127385286Y-92626571D01*
X127599571Y-92626571D01*
X127742428Y-92555143D01*
X127813857Y-92483714D01*
X128742429Y-92626571D02*
X128599571Y-92555143D01*
X128528143Y-92483714D01*
X128456714Y-92340857D01*
X128456714Y-91912286D01*
X128528143Y-91769429D01*
X128599571Y-91698000D01*
X128742429Y-91626571D01*
X128956714Y-91626571D01*
X129099571Y-91698000D01*
X129171000Y-91769429D01*
X129242429Y-91912286D01*
X129242429Y-92340857D01*
X129171000Y-92483714D01*
X129099571Y-92555143D01*
X128956714Y-92626571D01*
X128742429Y-92626571D01*
X129671000Y-91626571D02*
X130242429Y-91626571D01*
X129885286Y-91126571D02*
X129885286Y-92412286D01*
X129956714Y-92555143D01*
X130099572Y-92626571D01*
X130242429Y-92626571D01*
X131385286Y-92626571D02*
X131385286Y-91840857D01*
X131313857Y-91698000D01*
X131171000Y-91626571D01*
X130885286Y-91626571D01*
X130742429Y-91698000D01*
X131385286Y-92555143D02*
X131242429Y-92626571D01*
X130885286Y-92626571D01*
X130742429Y-92555143D01*
X130671000Y-92412286D01*
X130671000Y-92269429D01*
X130742429Y-92126571D01*
X130885286Y-92055143D01*
X131242429Y-92055143D01*
X131385286Y-91983714D01*
X132099572Y-91626571D02*
X132099572Y-93126571D01*
X132099572Y-91698000D02*
X132242429Y-91626571D01*
X132528143Y-91626571D01*
X132671000Y-91698000D01*
X132742429Y-91769429D01*
X132813858Y-91912286D01*
X132813858Y-92340857D01*
X132742429Y-92483714D01*
X132671000Y-92555143D01*
X132528143Y-92626571D01*
X132242429Y-92626571D01*
X132099572Y-92555143D01*
X134028143Y-92555143D02*
X133885286Y-92626571D01*
X133599572Y-92626571D01*
X133456715Y-92555143D01*
X133385286Y-92412286D01*
X133385286Y-91840857D01*
X133456715Y-91698000D01*
X133599572Y-91626571D01*
X133885286Y-91626571D01*
X134028143Y-91698000D01*
X134099572Y-91840857D01*
X134099572Y-91983714D01*
X133385286Y-92126571D01*
D12*
X112268000Y-92075000D03*
X122428000Y-92075000D03*
D13*
X133633000Y-117254000D03*
X129670600Y-117254000D03*
X125708200Y-117254000D03*
X121745800Y-117254000D03*
X117783400Y-117254000D03*
X113821000Y-117254000D03*
D14*
X112268000Y-103251000D03*
D15*
X112268000Y-108251000D03*
D13*
X133633000Y-78654000D03*
D16*
X129870600Y-78654000D03*
X125508200Y-78654000D03*
D13*
X121745800Y-78654000D03*
X117783400Y-78654000D03*
X113821000Y-78654000D03*
D12*
X112268000Y-98425000D03*
X122428000Y-98425000D03*
X112268000Y-95250000D03*
X122428000Y-95250000D03*
D17*
X116540000Y-109500000D03*
X119080000Y-109500000D03*
X121620000Y-109500000D03*
X124160000Y-109500000D03*
X126700000Y-109500000D03*
X129240000Y-109500000D03*
X131780000Y-109500000D03*
X134320000Y-109500000D03*
X134320000Y-101880000D03*
X131780000Y-101880000D03*
X129240000Y-101880000D03*
X126700000Y-101880000D03*
X124160000Y-101880000D03*
X121620000Y-101880000D03*
X119080000Y-101880000D03*
X116540000Y-101880000D03*
D18*
X133656000Y-87670000D03*
X129693600Y-87670000D03*
X125731200Y-87670000D03*
X121768800Y-87670000D03*
X117806400Y-87670000D03*
X113844000Y-87670000D03*
X133656000Y-85130000D03*
X129693600Y-85130000D03*
X125731200Y-85130000D03*
X121768800Y-85130000D03*
X117806400Y-85130000D03*
X113844000Y-85130000D03*
X128651000Y-96520000D03*
X131191000Y-96520000D03*
X133731000Y-96520000D03*
D19*
X129670600Y-114000000D03*
X129600000Y-82000000D03*
X133633000Y-114000000D03*
X133600000Y-82000000D03*
X125700000Y-114000000D03*
X125700000Y-82000000D03*
X121745800Y-114000000D03*
X117783400Y-114000000D03*
X113821000Y-114000000D03*
X121700000Y-82000000D03*
X117800000Y-82000000D03*
X113800000Y-82000000D03*
D20*
X136000000Y-110300000D02*
X136000000Y-92000000D01*
X136000000Y-92000000D02*
X134000000Y-90000000D01*
X134800000Y-111500000D02*
X136000000Y-110300000D01*
X129670600Y-114000000D02*
X129670600Y-117254000D01*
X129670600Y-112700000D02*
X129683511Y-112700000D01*
X129683511Y-112700000D02*
X130883511Y-111500000D01*
X130883511Y-111500000D02*
X134800000Y-111500000D01*
X134000000Y-90000000D02*
X132023600Y-90000000D01*
X132023600Y-90000000D02*
X129693600Y-87670000D01*
X129670600Y-117254000D02*
X129670600Y-112700000D01*
X110900000Y-111600000D02*
X112000000Y-112700000D01*
X112000000Y-112700000D02*
X129670600Y-112700000D01*
X110900000Y-105869000D02*
X110900000Y-111600000D01*
X112268000Y-103251000D02*
X112268000Y-104501000D01*
X112268000Y-104501000D02*
X110900000Y-105869000D01*
X129600000Y-82000000D02*
X129600000Y-78724600D01*
X129600000Y-78724600D02*
X129670600Y-78654000D01*
X133633000Y-117254000D02*
X133633000Y-114000000D01*
X114397762Y-111300000D02*
X127440000Y-111300000D01*
X127440000Y-111300000D02*
X129240000Y-109500000D01*
X112268000Y-108251000D02*
X112268000Y-109170238D01*
X112268000Y-109170238D02*
X114397762Y-111300000D01*
X133633000Y-78654000D02*
X133633000Y-81967000D01*
X133633000Y-81967000D02*
X133600000Y-82000000D01*
X125708200Y-117254000D02*
X125708200Y-114008200D01*
X125708200Y-114008200D02*
X125700000Y-114000000D01*
D21*
X125708200Y-78654000D02*
X125708200Y-81991800D01*
X125708200Y-81991800D02*
X125700000Y-82000000D01*
X121745800Y-117254000D02*
X121745800Y-114000000D01*
X117783400Y-117254000D02*
X117783400Y-114000000D01*
X113821000Y-117254000D02*
X113821000Y-114000000D01*
X121700000Y-82000000D02*
X121700000Y-78699800D01*
X121700000Y-78699800D02*
X121745800Y-78654000D01*
X122428000Y-92075000D02*
X119800000Y-89447000D01*
X119800000Y-89447000D02*
X119800000Y-84000000D01*
X119800000Y-84000000D02*
X117800000Y-82000000D01*
X117783400Y-78654000D02*
X117783400Y-81983400D01*
X117783400Y-81983400D02*
X117800000Y-82000000D01*
X113800000Y-82000000D02*
X115700000Y-83900000D01*
X115700000Y-83900000D02*
X115700000Y-89520229D01*
X115700000Y-89520229D02*
X114844265Y-90375964D01*
X114844265Y-105264265D02*
X119080000Y-109500000D01*
X114844265Y-90375964D02*
X114844265Y-105264265D01*
X113800000Y-82000000D02*
X113800000Y-78675000D01*
X113800000Y-78675000D02*
X113821000Y-78654000D01*
X121768800Y-87670000D02*
X124398800Y-90300000D01*
X120358375Y-97446625D02*
X120358375Y-108238375D01*
X120358375Y-108238375D02*
X121620000Y-109500000D01*
X124398800Y-90300000D02*
X124398800Y-95692200D01*
X124398800Y-95692200D02*
X123238285Y-96852715D01*
X123238285Y-96852715D02*
X120952285Y-96852715D01*
X120952285Y-96852715D02*
X120358375Y-97446625D01*
X122428000Y-95250000D02*
X117806400Y-90628400D01*
X117806400Y-90628400D02*
X117806400Y-87670000D01*
X116540000Y-109500000D02*
X116540000Y-108368630D01*
X116540000Y-108368630D02*
X113844000Y-105672630D01*
X113844000Y-105672630D02*
X113844000Y-87670000D01*
X126771000Y-98400000D02*
X126873000Y-98298000D01*
X122428000Y-98425000D02*
X126746000Y-98425000D01*
X126873000Y-98298000D02*
X128651000Y-96520000D01*
X126746000Y-98425000D02*
X126873000Y-98298000D01*
X126771000Y-98400000D02*
X126771000Y-99411000D01*
X126771000Y-99411000D02*
X129240000Y-101880000D01*
X134320000Y-101880000D02*
X131780000Y-101880000D01*
X129240000Y-101880000D02*
X131780000Y-101880000D01*
M02*
