G04 #@! TF.FileFunction,Legend,Top*
%FSLAX46Y46*%
G04 Gerber Fmt 4.6, Leading zero omitted, Abs format (unit mm)*
G04 Created by KiCad (PCBNEW 4.0.5) date 12/24/17 14:42:58*
%MOMM*%
%LPD*%
G01*
G04 APERTURE LIST*
%ADD10C,0.100000*%
%ADD11C,0.200000*%
%ADD12C,0.150000*%
%ADD13C,0.300000*%
G04 APERTURE END LIST*
D10*
D11*
X114808000Y-106172000D02*
X114300000Y-106172000D01*
X114808000Y-104902000D02*
X114808000Y-106172000D01*
X114300000Y-104902000D02*
X114808000Y-104902000D01*
D12*
X114808000Y-90805000D02*
X119888000Y-90805000D01*
X119888000Y-90805000D02*
X119888000Y-93345000D01*
X119888000Y-93345000D02*
X114808000Y-93345000D01*
X114808000Y-93345000D02*
X114808000Y-90805000D01*
X114808000Y-92075000D02*
X113538000Y-92075000D01*
X119888000Y-92075000D02*
X121158000Y-92075000D01*
X113268000Y-102251000D02*
X113268000Y-109251000D01*
X113268000Y-109251000D02*
X111268000Y-109251000D01*
X111268000Y-109251000D02*
X111268000Y-102251000D01*
X111268000Y-102251000D02*
X113268000Y-102251000D01*
X114808000Y-97155000D02*
X119888000Y-97155000D01*
X119888000Y-97155000D02*
X119888000Y-99695000D01*
X119888000Y-99695000D02*
X114808000Y-99695000D01*
X114808000Y-99695000D02*
X114808000Y-97155000D01*
X114808000Y-98425000D02*
X113538000Y-98425000D01*
X119888000Y-98425000D02*
X121158000Y-98425000D01*
X114808000Y-93980000D02*
X119888000Y-93980000D01*
X119888000Y-93980000D02*
X119888000Y-96520000D01*
X119888000Y-96520000D02*
X114808000Y-96520000D01*
X114808000Y-96520000D02*
X114808000Y-93980000D01*
X114808000Y-95250000D02*
X113538000Y-95250000D01*
X119888000Y-95250000D02*
X121158000Y-95250000D01*
X114245000Y-109365000D02*
X115515000Y-109365000D01*
X114245000Y-102015000D02*
X115515000Y-102015000D01*
X136615000Y-102015000D02*
X135345000Y-102015000D01*
X136615000Y-109365000D02*
X135345000Y-109365000D01*
X114245000Y-109365000D02*
X114245000Y-102015000D01*
X136615000Y-109365000D02*
X136615000Y-102015000D01*
X115515000Y-109365000D02*
X115515000Y-110300000D01*
X127141000Y-99020000D02*
X135241000Y-99020000D01*
X127141000Y-94020000D02*
X135241000Y-94020000D01*
X127141000Y-94020000D02*
X127141000Y-99020000D01*
X135241000Y-94020000D02*
X135241000Y-99020000D01*
X124561334Y-91640381D02*
X124228000Y-91164190D01*
X123989905Y-91640381D02*
X123989905Y-90640381D01*
X124370858Y-90640381D01*
X124466096Y-90688000D01*
X124513715Y-90735619D01*
X124561334Y-90830857D01*
X124561334Y-90973714D01*
X124513715Y-91068952D01*
X124466096Y-91116571D01*
X124370858Y-91164190D01*
X123989905Y-91164190D01*
X124942286Y-90735619D02*
X124989905Y-90688000D01*
X125085143Y-90640381D01*
X125323239Y-90640381D01*
X125418477Y-90688000D01*
X125466096Y-90735619D01*
X125513715Y-90830857D01*
X125513715Y-90926095D01*
X125466096Y-91068952D01*
X124894667Y-91640381D01*
X125513715Y-91640381D01*
X117098953Y-92577381D02*
X116527524Y-92577381D01*
X116813238Y-92577381D02*
X116813238Y-91577381D01*
X116718000Y-91720238D01*
X116622762Y-91815476D01*
X116527524Y-91863095D01*
X117527524Y-92577381D02*
X117527524Y-91577381D01*
X117622762Y-92196429D02*
X117908477Y-92577381D01*
X117908477Y-91910714D02*
X117527524Y-92291667D01*
X111833334Y-101607143D02*
X111785715Y-101654762D01*
X111642858Y-101702381D01*
X111547620Y-101702381D01*
X111404762Y-101654762D01*
X111309524Y-101559524D01*
X111261905Y-101464286D01*
X111214286Y-101273810D01*
X111214286Y-101130952D01*
X111261905Y-100940476D01*
X111309524Y-100845238D01*
X111404762Y-100750000D01*
X111547620Y-100702381D01*
X111642858Y-100702381D01*
X111785715Y-100750000D01*
X111833334Y-100797619D01*
X112785715Y-101702381D02*
X112214286Y-101702381D01*
X112500000Y-101702381D02*
X112500000Y-100702381D01*
X112404762Y-100845238D01*
X112309524Y-100940476D01*
X112214286Y-100988095D01*
X111130953Y-106203381D02*
X110559524Y-106203381D01*
X110845238Y-106203381D02*
X110845238Y-105203381D01*
X110750000Y-105346238D01*
X110654762Y-105441476D01*
X110559524Y-105489095D01*
X111750000Y-105203381D02*
X111845239Y-105203381D01*
X111940477Y-105251000D01*
X111988096Y-105298619D01*
X112035715Y-105393857D01*
X112083334Y-105584333D01*
X112083334Y-105822429D01*
X112035715Y-106012905D01*
X111988096Y-106108143D01*
X111940477Y-106155762D01*
X111845239Y-106203381D01*
X111750000Y-106203381D01*
X111654762Y-106155762D01*
X111607143Y-106108143D01*
X111559524Y-106012905D01*
X111511905Y-105822429D01*
X111511905Y-105584333D01*
X111559524Y-105393857D01*
X111607143Y-105298619D01*
X111654762Y-105251000D01*
X111750000Y-105203381D01*
X112702381Y-105203381D02*
X112797620Y-105203381D01*
X112892858Y-105251000D01*
X112940477Y-105298619D01*
X112988096Y-105393857D01*
X113035715Y-105584333D01*
X113035715Y-105822429D01*
X112988096Y-106012905D01*
X112940477Y-106108143D01*
X112892858Y-106155762D01*
X112797620Y-106203381D01*
X112702381Y-106203381D01*
X112607143Y-106155762D01*
X112559524Y-106108143D01*
X112511905Y-106012905D01*
X112464286Y-105822429D01*
X112464286Y-105584333D01*
X112511905Y-105393857D01*
X112559524Y-105298619D01*
X112607143Y-105251000D01*
X112702381Y-105203381D01*
X113464286Y-105536714D02*
X113464286Y-106203381D01*
X113464286Y-105631952D02*
X113511905Y-105584333D01*
X113607143Y-105536714D01*
X113750001Y-105536714D01*
X113845239Y-105584333D01*
X113892858Y-105679571D01*
X113892858Y-106203381D01*
X124471334Y-98013381D02*
X124138000Y-97537190D01*
X123899905Y-98013381D02*
X123899905Y-97013381D01*
X124280858Y-97013381D01*
X124376096Y-97061000D01*
X124423715Y-97108619D01*
X124471334Y-97203857D01*
X124471334Y-97346714D01*
X124423715Y-97441952D01*
X124376096Y-97489571D01*
X124280858Y-97537190D01*
X123899905Y-97537190D01*
X125423715Y-98013381D02*
X124852286Y-98013381D01*
X125138000Y-98013381D02*
X125138000Y-97013381D01*
X125042762Y-97156238D01*
X124947524Y-97251476D01*
X124852286Y-97299095D01*
X117098953Y-98977381D02*
X116527524Y-98977381D01*
X116813238Y-98977381D02*
X116813238Y-97977381D01*
X116718000Y-98120238D01*
X116622762Y-98215476D01*
X116527524Y-98263095D01*
X117527524Y-98977381D02*
X117527524Y-97977381D01*
X117622762Y-98596429D02*
X117908477Y-98977381D01*
X117908477Y-98310714D02*
X117527524Y-98691667D01*
X124561334Y-94890381D02*
X124228000Y-94414190D01*
X123989905Y-94890381D02*
X123989905Y-93890381D01*
X124370858Y-93890381D01*
X124466096Y-93938000D01*
X124513715Y-93985619D01*
X124561334Y-94080857D01*
X124561334Y-94223714D01*
X124513715Y-94318952D01*
X124466096Y-94366571D01*
X124370858Y-94414190D01*
X123989905Y-94414190D01*
X124894667Y-93890381D02*
X125513715Y-93890381D01*
X125180381Y-94271333D01*
X125323239Y-94271333D01*
X125418477Y-94318952D01*
X125466096Y-94366571D01*
X125513715Y-94461810D01*
X125513715Y-94699905D01*
X125466096Y-94795143D01*
X125418477Y-94842762D01*
X125323239Y-94890381D01*
X125037524Y-94890381D01*
X124942286Y-94842762D01*
X124894667Y-94795143D01*
X117098953Y-95652381D02*
X116527524Y-95652381D01*
X116813238Y-95652381D02*
X116813238Y-94652381D01*
X116718000Y-94795238D01*
X116622762Y-94890476D01*
X116527524Y-94938095D01*
X117527524Y-95652381D02*
X117527524Y-94652381D01*
X117622762Y-95271429D02*
X117908477Y-95652381D01*
X117908477Y-94985714D02*
X117527524Y-95366667D01*
X135238095Y-110452381D02*
X135238095Y-111261905D01*
X135285714Y-111357143D01*
X135333333Y-111404762D01*
X135428571Y-111452381D01*
X135619048Y-111452381D01*
X135714286Y-111404762D01*
X135761905Y-111357143D01*
X135809524Y-111261905D01*
X135809524Y-110452381D01*
X136809524Y-111452381D02*
X136238095Y-111452381D01*
X136523809Y-111452381D02*
X136523809Y-110452381D01*
X136428571Y-110595238D01*
X136333333Y-110690476D01*
X136238095Y-110738095D01*
D13*
X122523809Y-105235429D02*
X122523809Y-106568762D01*
X122047619Y-104473524D02*
X121571428Y-105902095D01*
X122809524Y-105902095D01*
X123952381Y-104568762D02*
X124142857Y-104568762D01*
X124333333Y-104664000D01*
X124428571Y-104759238D01*
X124523809Y-104949714D01*
X124619048Y-105330667D01*
X124619048Y-105806857D01*
X124523809Y-106187810D01*
X124428571Y-106378286D01*
X124333333Y-106473524D01*
X124142857Y-106568762D01*
X123952381Y-106568762D01*
X123761905Y-106473524D01*
X123666667Y-106378286D01*
X123571428Y-106187810D01*
X123476190Y-105806857D01*
X123476190Y-105330667D01*
X123571428Y-104949714D01*
X123666667Y-104759238D01*
X123761905Y-104664000D01*
X123952381Y-104568762D01*
X126428571Y-104568762D02*
X125476190Y-104568762D01*
X125380952Y-105521143D01*
X125476190Y-105425905D01*
X125666667Y-105330667D01*
X126142857Y-105330667D01*
X126333333Y-105425905D01*
X126428571Y-105521143D01*
X126523810Y-105711619D01*
X126523810Y-106187810D01*
X126428571Y-106378286D01*
X126333333Y-106473524D01*
X126142857Y-106568762D01*
X125666667Y-106568762D01*
X125476190Y-106473524D01*
X125380952Y-106378286D01*
X127190476Y-104568762D02*
X128428572Y-104568762D01*
X127761905Y-105330667D01*
X128047619Y-105330667D01*
X128238095Y-105425905D01*
X128333333Y-105521143D01*
X128428572Y-105711619D01*
X128428572Y-106187810D01*
X128333333Y-106378286D01*
X128238095Y-106473524D01*
X128047619Y-106568762D01*
X127476191Y-106568762D01*
X127285714Y-106473524D01*
X127190476Y-106378286D01*
D12*
X136183643Y-87050476D02*
X136231262Y-87098095D01*
X136278881Y-87240952D01*
X136278881Y-87336190D01*
X136231262Y-87479048D01*
X136136024Y-87574286D01*
X136040786Y-87621905D01*
X135850310Y-87669524D01*
X135707452Y-87669524D01*
X135516976Y-87621905D01*
X135421738Y-87574286D01*
X135326500Y-87479048D01*
X135278881Y-87336190D01*
X135278881Y-87240952D01*
X135326500Y-87098095D01*
X135374119Y-87050476D01*
X136278881Y-86621905D02*
X135278881Y-86621905D01*
X136278881Y-86050476D01*
X135278881Y-86050476D01*
X135278881Y-85669524D02*
X135278881Y-85050476D01*
X135659833Y-85383810D01*
X135659833Y-85240952D01*
X135707452Y-85145714D01*
X135755071Y-85098095D01*
X135850310Y-85050476D01*
X136088405Y-85050476D01*
X136183643Y-85098095D01*
X136231262Y-85145714D01*
X136278881Y-85240952D01*
X136278881Y-85526667D01*
X136231262Y-85621905D01*
X136183643Y-85669524D01*
X136345762Y-96603333D02*
X136393381Y-96460476D01*
X136393381Y-96222380D01*
X136345762Y-96127142D01*
X136298143Y-96079523D01*
X136202905Y-96031904D01*
X136107667Y-96031904D01*
X136012429Y-96079523D01*
X135964810Y-96127142D01*
X135917190Y-96222380D01*
X135869571Y-96412857D01*
X135821952Y-96508095D01*
X135774333Y-96555714D01*
X135679095Y-96603333D01*
X135583857Y-96603333D01*
X135488619Y-96555714D01*
X135441000Y-96508095D01*
X135393381Y-96412857D01*
X135393381Y-96174761D01*
X135441000Y-96031904D01*
X135393381Y-95698571D02*
X136393381Y-95460476D01*
X135679095Y-95269999D01*
X136393381Y-95079523D01*
X135393381Y-94841428D01*
X136393381Y-93936666D02*
X136393381Y-94508095D01*
X136393381Y-94222381D02*
X135393381Y-94222381D01*
X135536238Y-94317619D01*
X135631476Y-94412857D01*
X135679095Y-94508095D01*
M02*
