G04 #@! TF.FileFunction,Soldermask,Top*
%FSLAX46Y46*%
G04 Gerber Fmt 4.6, Leading zero omitted, Abs format (unit mm)*
G04 Created by KiCad (PCBNEW 4.0.5) date 12/24/17 14:42:58*
%MOMM*%
%LPD*%
G01*
G04 APERTURE LIST*
%ADD10C,0.100000*%
%ADD11C,2.398980*%
%ADD12R,2.650000X6.400000*%
%ADD13R,1.700000X1.700000*%
%ADD14C,1.700000*%
%ADD15R,2.450000X6.400000*%
%ADD16O,2.000000X2.000000*%
%ADD17C,2.432000*%
G04 APERTURE END LIST*
D10*
D11*
X112268000Y-92075000D03*
X122428000Y-92075000D03*
D12*
X133633000Y-117254000D03*
X129670600Y-117254000D03*
X125708200Y-117254000D03*
X121745800Y-117254000D03*
X117783400Y-117254000D03*
X113821000Y-117254000D03*
D13*
X112268000Y-103251000D03*
D14*
X112268000Y-108251000D03*
D12*
X133633000Y-78654000D03*
D15*
X129870600Y-78654000D03*
X125508200Y-78654000D03*
D12*
X121745800Y-78654000D03*
X117783400Y-78654000D03*
X113821000Y-78654000D03*
D11*
X112268000Y-98425000D03*
X122428000Y-98425000D03*
X112268000Y-95250000D03*
X122428000Y-95250000D03*
D16*
X116540000Y-109500000D03*
X119080000Y-109500000D03*
X121620000Y-109500000D03*
X124160000Y-109500000D03*
X126700000Y-109500000D03*
X129240000Y-109500000D03*
X131780000Y-109500000D03*
X134320000Y-109500000D03*
X134320000Y-101880000D03*
X131780000Y-101880000D03*
X129240000Y-101880000D03*
X126700000Y-101880000D03*
X124160000Y-101880000D03*
X121620000Y-101880000D03*
X119080000Y-101880000D03*
X116540000Y-101880000D03*
D17*
X133656000Y-87670000D03*
X129693600Y-87670000D03*
X125731200Y-87670000D03*
X121768800Y-87670000D03*
X117806400Y-87670000D03*
X113844000Y-87670000D03*
X133656000Y-85130000D03*
X129693600Y-85130000D03*
X125731200Y-85130000D03*
X121768800Y-85130000D03*
X117806400Y-85130000D03*
X113844000Y-85130000D03*
X128651000Y-96520000D03*
X131191000Y-96520000D03*
X133731000Y-96520000D03*
M02*
