M48
;DRILL file {KiCad 4.0.5} date 12/24/17 14:43:01
;FORMAT={-:-/ absolute / metric / decimal}
FMAT,2
METRIC,TZ
T1C0.500
T2C0.800
T3C1.001
T4C1.016
T5C1.092
%
G90
G05
M71
T1
X113.8Y-82.
X113.821Y-114.
X117.783Y-114.
X117.8Y-82.
X121.7Y-82.
X121.746Y-114.
X125.7Y-82.
X125.7Y-114.
X129.6Y-82.
X129.671Y-114.
X133.6Y-82.
X133.633Y-114.
T2
X112.268Y-103.251
X112.268Y-108.251
X116.54Y-101.88
X116.54Y-109.5
X119.08Y-101.88
X119.08Y-109.5
X121.62Y-101.88
X121.62Y-109.5
X124.16Y-101.88
X124.16Y-109.5
X126.7Y-101.88
X126.7Y-109.5
X129.24Y-101.88
X129.24Y-109.5
X131.78Y-101.88
X131.78Y-109.5
X134.32Y-101.88
X134.32Y-109.5
T3
X112.268Y-92.075
X112.268Y-95.25
X112.268Y-98.425
X122.428Y-92.075
X122.428Y-95.25
X122.428Y-98.425
T4
X113.844Y-85.13
X113.844Y-87.67
X117.806Y-85.13
X117.806Y-87.67
X121.769Y-85.13
X121.769Y-87.67
X125.731Y-85.13
X125.731Y-87.67
X129.694Y-85.13
X129.694Y-87.67
X133.656Y-85.13
X133.656Y-87.67
T5
X128.651Y-96.52
X131.191Y-96.52
X133.731Y-96.52
T0
M30
