M48
;DRILL file {KiCad 4.0.5} date 04/15/17 13:19:55
;FORMAT={-:-/ absolute / inch / decimal}
FMAT,2
INCH,TZ
T1C0.020
T2C0.040
T3C0.108
%
G90
G05
M72
T1
X1.4963Y-1.7539
X1.6417Y-1.6843
X1.6417Y-1.8343
X1.6885Y-2.0454
X1.695Y-1.6043
X1.7213Y-2.5289
X1.7482Y-1.672
X1.7546Y-2.0466
X1.7713Y-2.4289
X1.7714Y-2.5663
X1.8039Y-1.8225
X1.8214Y-1.479
X1.8463Y-1.6289
X1.8463Y-2.4289
X1.9214Y-1.479
X1.9312Y-2.0389
X1.9463Y-1.6289
X1.9713Y-2.5289
X1.9713Y-2.5739
X1.9713Y-2.3891
X2.0363Y-2.5089
X2.071Y-2.354
X2.0825Y-2.0139
X2.2963Y-2.0539
X2.2963Y-2.2289
T2
X1.4713Y-0.9539
X1.4713Y-1.0539
X1.5713Y-0.9539
X1.5713Y-1.0539
X1.6463Y-2.8039
X1.6463Y-2.9039
X1.6713Y-0.9539
X1.6713Y-1.0539
X1.7463Y-2.8039
X1.7463Y-2.9039
X1.7713Y-0.9539
X1.7713Y-1.0539
X1.8463Y-2.8039
X1.8463Y-2.9039
X1.8713Y-0.9539
X1.8713Y-1.0539
X1.9463Y-2.8039
X1.9463Y-2.9039
X1.9713Y-0.9539
X1.9713Y-1.0539
X2.0463Y-2.8039
X2.0463Y-2.9039
X2.0713Y-0.9539
X2.0713Y-1.0539
X2.1713Y-0.9539
X2.1713Y-1.0539
X2.2713Y-0.9539
X2.2713Y-1.0539
X2.3713Y-0.9539
X2.3713Y-1.0539
X2.4713Y-0.9539
X2.4713Y-1.0539
X2.5713Y-0.9539
X2.5713Y-1.0539
X2.6713Y-0.9539
X2.6713Y-1.0539
T3
X1.2795Y-1.0039
X1.2795Y-2.9331
T0
M30
