G04 #@! TF.FileFunction,Copper,L1,Top,Signal*
%FSLAX46Y46*%
G04 Gerber Fmt 4.6, Leading zero omitted, Abs format (unit mm)*
G04 Created by KiCad (PCBNEW 4.0.5) date 04/15/17 13:19:52*
%MOMM*%
%LPD*%
G01*
G04 APERTURE LIST*
%ADD10C,0.100000*%
%ADD11C,0.300000*%
%ADD12R,1.727200X1.727200*%
%ADD13O,1.727200X1.727200*%
%ADD14R,1.300000X0.700000*%
%ADD15C,6.200000*%
%ADD16R,0.800100X0.800100*%
%ADD17R,0.600000X1.500000*%
%ADD18R,1.198880X1.198880*%
%ADD19R,0.700000X1.300000*%
%ADD20R,1.250000X1.000000*%
%ADD21R,1.060000X0.650000*%
%ADD22C,0.889000*%
%ADD23C,0.304800*%
%ADD24C,0.254000*%
G04 APERTURE END LIST*
D10*
D11*
X30678571Y-65785714D02*
X30678571Y-64928571D01*
X32178571Y-65357142D02*
X30678571Y-65357142D01*
X32178571Y-64214285D02*
X32107143Y-64357143D01*
X32035714Y-64428571D01*
X31892857Y-64500000D01*
X31464286Y-64500000D01*
X31321429Y-64428571D01*
X31250000Y-64357143D01*
X31178571Y-64214285D01*
X31178571Y-64000000D01*
X31250000Y-63857143D01*
X31321429Y-63785714D01*
X31464286Y-63714285D01*
X31892857Y-63714285D01*
X32035714Y-63785714D01*
X32107143Y-63857143D01*
X32178571Y-64000000D01*
X32178571Y-64214285D01*
X31178571Y-63071428D02*
X32678571Y-63071428D01*
X31250000Y-63071428D02*
X31178571Y-62928571D01*
X31178571Y-62642857D01*
X31250000Y-62500000D01*
X31321429Y-62428571D01*
X31464286Y-62357142D01*
X31892857Y-62357142D01*
X32035714Y-62428571D01*
X32107143Y-62500000D01*
X32178571Y-62642857D01*
X32178571Y-62928571D01*
X32107143Y-63071428D01*
D12*
X41815000Y-73760000D03*
D13*
X41815000Y-71220000D03*
X44355000Y-73760000D03*
X44355000Y-71220000D03*
X46895000Y-73760000D03*
X46895000Y-71220000D03*
X49435000Y-73760000D03*
X49435000Y-71220000D03*
X51975000Y-73760000D03*
X51975000Y-71220000D03*
D14*
X63405000Y-56615000D03*
X63405000Y-54715000D03*
D15*
X32500000Y-74500000D03*
D16*
X56420000Y-51154000D03*
X54520000Y-51154000D03*
X55470000Y-53152980D03*
X56420000Y-58774000D03*
X54520000Y-58774000D03*
X55470000Y-60772980D03*
D17*
X49435000Y-44550000D03*
X48165000Y-44550000D03*
X46895000Y-44550000D03*
X45625000Y-44550000D03*
X44355000Y-44550000D03*
X43085000Y-44550000D03*
X41815000Y-44550000D03*
X40545000Y-44550000D03*
X40545000Y-49950000D03*
X41815000Y-49950000D03*
X43085000Y-49950000D03*
X44355000Y-49950000D03*
X45625000Y-49950000D03*
X46895000Y-49950000D03*
X48165000Y-49950000D03*
X49435000Y-49950000D03*
D14*
X56420000Y-48040000D03*
X56420000Y-46140000D03*
D16*
X60865000Y-50270000D03*
X60865000Y-52170000D03*
X62863980Y-51220000D03*
D18*
X60230000Y-73539020D03*
X60230000Y-71440980D03*
X63405000Y-73539020D03*
X63405000Y-71440980D03*
D12*
X37370000Y-26770000D03*
D13*
X37370000Y-24230000D03*
X39910000Y-26770000D03*
X39910000Y-24230000D03*
X42450000Y-26770000D03*
X42450000Y-24230000D03*
X44990000Y-26770000D03*
X44990000Y-24230000D03*
X47530000Y-26770000D03*
X47530000Y-24230000D03*
X50070000Y-26770000D03*
X50070000Y-24230000D03*
X52610000Y-26770000D03*
X52610000Y-24230000D03*
X55150000Y-26770000D03*
X55150000Y-24230000D03*
X57690000Y-26770000D03*
X57690000Y-24230000D03*
X60230000Y-26770000D03*
X60230000Y-24230000D03*
X62770000Y-26770000D03*
X62770000Y-24230000D03*
X65310000Y-26770000D03*
X65310000Y-24230000D03*
X67850000Y-26770000D03*
X67850000Y-24230000D03*
D19*
X56415000Y-56234000D03*
X54515000Y-56234000D03*
D14*
X60230000Y-60740000D03*
X60230000Y-58840000D03*
X38005000Y-51220000D03*
X38005000Y-53120000D03*
X60230000Y-54715000D03*
X60230000Y-56615000D03*
X63405000Y-60740000D03*
X63405000Y-58840000D03*
D20*
X38005000Y-48360000D03*
X38005000Y-46360000D03*
D15*
X32500000Y-25500000D03*
D21*
X46430000Y-63285000D03*
X46430000Y-64235000D03*
X46430000Y-65185000D03*
X48630000Y-65185000D03*
X48630000Y-63285000D03*
X48630000Y-64235000D03*
D22*
X50071313Y-60681935D03*
X50070000Y-64235000D03*
X52894832Y-51154000D03*
X58325000Y-52170000D03*
X58325000Y-56615000D03*
X43720000Y-64235000D03*
X38005000Y-44550000D03*
X46264380Y-37565380D03*
X46895000Y-41375000D03*
X48804380Y-37565380D03*
X49435000Y-41375000D03*
X42888831Y-51952407D03*
X43053044Y-40748634D03*
X44567017Y-51982482D03*
X44405452Y-42469854D03*
X52603118Y-59791841D03*
X46895000Y-61695000D03*
X51721000Y-63727000D03*
X45819380Y-46292575D03*
X49053579Y-51788579D03*
X50070000Y-65378000D03*
X44993551Y-65183722D03*
X44990000Y-61695000D03*
X41700000Y-42780000D03*
X41700000Y-46590000D03*
D23*
X36104380Y-42025620D02*
X37370000Y-40760000D01*
X36104380Y-47724620D02*
X36104380Y-42025620D01*
X36739760Y-48360000D02*
X36104380Y-47724620D01*
X38005000Y-48360000D02*
X36739760Y-48360000D01*
X38005000Y-48360000D02*
X37825917Y-48360000D01*
X37370000Y-40760000D02*
X37370000Y-26770000D01*
X49435000Y-49950000D02*
X49435000Y-50776668D01*
X49435000Y-50776668D02*
X50071313Y-51412981D01*
X50071313Y-51412981D02*
X50071313Y-60681935D01*
X38005000Y-48360000D02*
X48826754Y-48360000D01*
X48826754Y-48360000D02*
X49435000Y-48968246D01*
X49435000Y-48968246D02*
X49435000Y-49950000D01*
X48630000Y-64235000D02*
X50070000Y-64235000D01*
X38005000Y-51220000D02*
X38005000Y-48360000D01*
X43720000Y-64235000D02*
X43720000Y-69315000D01*
X43720000Y-69315000D02*
X41815000Y-71220000D01*
X60865000Y-52170000D02*
X58325000Y-52170000D01*
X60230000Y-56615000D02*
X58325000Y-56615000D01*
X54520000Y-51154000D02*
X52894832Y-51154000D01*
X46430000Y-64235000D02*
X43720000Y-64235000D01*
X38005000Y-46360000D02*
X38005000Y-44550000D01*
X39720000Y-45820000D02*
X39725000Y-45820000D01*
X39725000Y-45820000D02*
X40545000Y-45000000D01*
X40545000Y-45000000D02*
X40545000Y-44550000D01*
X39180000Y-46360000D02*
X39720000Y-45820000D01*
X38005000Y-46360000D02*
X39180000Y-46360000D01*
X60230000Y-58840000D02*
X60230000Y-56615000D01*
X41815000Y-44550000D02*
X40545000Y-44550000D01*
D24*
X56420000Y-51154000D02*
X56420000Y-48040000D01*
X55470000Y-53152980D02*
X56124050Y-53152980D01*
X56124050Y-53152980D02*
X56415000Y-53443930D01*
X56415000Y-53443930D02*
X56415000Y-56234000D01*
X56420000Y-56229000D02*
X56415000Y-56234000D01*
X56415000Y-56234000D02*
X56415000Y-58769000D01*
X56415000Y-58769000D02*
X56420000Y-58774000D01*
D23*
X49435000Y-71220000D02*
X49435000Y-68426380D01*
X55470000Y-60772980D02*
X55470000Y-62391380D01*
X55470000Y-62391380D02*
X49435000Y-68426380D01*
X63405000Y-73539020D02*
X60230000Y-73539020D01*
X49435000Y-71220000D02*
X50716959Y-72501959D01*
X50716959Y-72501959D02*
X53232164Y-72501959D01*
X53232164Y-72501959D02*
X54269225Y-73539020D01*
X54269225Y-73539020D02*
X60230000Y-73539020D01*
D24*
X60230000Y-54715000D02*
X61881000Y-54715000D01*
X61881000Y-54715000D02*
X63405000Y-54715000D01*
X61595251Y-50360251D02*
X61881000Y-50646000D01*
X61881000Y-50646000D02*
X61881000Y-54715000D01*
X60865000Y-50270000D02*
X61519050Y-50270000D01*
X61519050Y-50270000D02*
X61595251Y-50346201D01*
X61595251Y-50346201D02*
X61595251Y-50360251D01*
X63405000Y-58840000D02*
X63705000Y-58840000D01*
X63705000Y-58840000D02*
X65295000Y-57250000D01*
X65295000Y-57250000D02*
X65295000Y-52405000D01*
X65295000Y-52405000D02*
X64110000Y-51220000D01*
X64110000Y-51220000D02*
X62863980Y-51220000D01*
X63405000Y-58840000D02*
X63105000Y-58840000D01*
X60230000Y-60740000D02*
X60230000Y-71440980D01*
X63405000Y-71440980D02*
X63405000Y-60740000D01*
X56420000Y-46140000D02*
X56420000Y-43123000D01*
X56420000Y-43123000D02*
X62770000Y-36773000D01*
X62770000Y-36773000D02*
X62770000Y-26770000D01*
X46255056Y-25495056D02*
X46255056Y-37556056D01*
X46255056Y-37556056D02*
X46264380Y-37565380D01*
X44990000Y-24230000D02*
X46255056Y-25495056D01*
X46895000Y-41375000D02*
X46895000Y-44550000D01*
X48804380Y-37565380D02*
X48804380Y-36936763D01*
X48804380Y-36936763D02*
X48799127Y-36931510D01*
X48799127Y-36931510D02*
X48798490Y-36931510D01*
X47530000Y-24230000D02*
X48798490Y-25498490D01*
X48798490Y-25498490D02*
X48798490Y-36931510D01*
X49435000Y-44550000D02*
X49435000Y-41375000D01*
X43053044Y-40748634D02*
X43053044Y-28706956D01*
X43053044Y-28706956D02*
X44990000Y-26770000D01*
X43085000Y-51756238D02*
X42888831Y-51952407D01*
X43085000Y-49950000D02*
X43085000Y-51756238D01*
X40545000Y-49950000D02*
X41815000Y-49950000D01*
X43085000Y-49950000D02*
X41815000Y-49950000D01*
X44405452Y-42469854D02*
X44849951Y-42025355D01*
X44849951Y-42025355D02*
X44849951Y-41456432D01*
X44849951Y-41456432D02*
X46865582Y-39440801D01*
X46865582Y-39440801D02*
X50386519Y-39440801D01*
X50386519Y-39440801D02*
X51340380Y-38486940D01*
X51340380Y-38486940D02*
X51340380Y-25500380D01*
X51340380Y-25500380D02*
X50070000Y-24230000D01*
X44355000Y-51770465D02*
X44567017Y-51982482D01*
X44355000Y-49950000D02*
X44355000Y-51770465D01*
X50070000Y-26770000D02*
X50070000Y-38090082D01*
X50070000Y-38090082D02*
X49185380Y-38974702D01*
X49185380Y-38974702D02*
X46685088Y-38974702D01*
X46685088Y-38974702D02*
X43085000Y-42574790D01*
X43085000Y-42574790D02*
X43085000Y-44550000D01*
X50575901Y-39898012D02*
X52610000Y-37863913D01*
X52610000Y-37863913D02*
X52610000Y-26770000D01*
X44355000Y-44550000D02*
X44355000Y-44100000D01*
X44355000Y-44100000D02*
X45718171Y-42736829D01*
X45718171Y-42736829D02*
X45718171Y-41234805D01*
X45718171Y-41234805D02*
X47054964Y-39898012D01*
X47054964Y-39898012D02*
X50575901Y-39898012D01*
X48165000Y-44550000D02*
X48165000Y-41498440D01*
X48165000Y-41498440D02*
X49308217Y-40355223D01*
X49308217Y-40355223D02*
X50765281Y-40355223D01*
X50765281Y-40355223D02*
X53887647Y-37232857D01*
X53887647Y-37232857D02*
X53887647Y-25492353D01*
X53887647Y-25492353D02*
X55150000Y-24230000D01*
X46430000Y-63285000D02*
X40860000Y-63285000D01*
X40860000Y-63285000D02*
X39910000Y-64235000D01*
X39910000Y-64235000D02*
X39910000Y-72972600D01*
X39910000Y-72972600D02*
X40697400Y-73760000D01*
X40697400Y-73760000D02*
X41815000Y-73760000D01*
X60832159Y-59791841D02*
X52603118Y-59791841D01*
X63405000Y-57219000D02*
X60832159Y-59791841D01*
X63405000Y-56615000D02*
X63405000Y-57219000D01*
X46430000Y-63285000D02*
X46430000Y-62160000D01*
X46430000Y-62160000D02*
X46895000Y-61695000D01*
X63405000Y-56615000D02*
X63705000Y-56615000D01*
X48630000Y-65185000D02*
X48630000Y-66947288D01*
X48630000Y-66947288D02*
X45626908Y-69950380D01*
X45626908Y-69950380D02*
X45626908Y-72488092D01*
X45626908Y-72488092D02*
X44355000Y-73760000D01*
X45625000Y-46098195D02*
X45819380Y-46292575D01*
X45625000Y-44550000D02*
X45625000Y-46098195D01*
X51721000Y-63727000D02*
X49053579Y-61059579D01*
X49053579Y-61059579D02*
X49053579Y-51788579D01*
X48630000Y-65185000D02*
X49877000Y-65185000D01*
X49877000Y-65185000D02*
X50070000Y-65378000D01*
X44994829Y-65185000D02*
X44993551Y-65183722D01*
X46430000Y-65185000D02*
X44994829Y-65185000D01*
X46430000Y-65185000D02*
X46430000Y-67151418D01*
X46430000Y-67151418D02*
X44355000Y-69226418D01*
X44355000Y-69226418D02*
X44355000Y-71220000D01*
X44990000Y-61695000D02*
X46895000Y-59790000D01*
X46895000Y-59790000D02*
X46895000Y-49950000D01*
X46260000Y-65355000D02*
X46430000Y-65185000D01*
X46895000Y-73760000D02*
X48170603Y-72484397D01*
X48170603Y-72484397D02*
X48170603Y-68550957D01*
X48170603Y-68550957D02*
X50844702Y-65876858D01*
X50844702Y-65876858D02*
X50844702Y-63863142D01*
X50844702Y-63863142D02*
X50266560Y-63285000D01*
X50266560Y-63285000D02*
X48630000Y-63285000D01*
X48165000Y-61695000D02*
X48630000Y-62160000D01*
X48630000Y-62160000D02*
X48630000Y-63285000D01*
X48165000Y-49950000D02*
X48165000Y-61695000D01*
X38005000Y-53120000D02*
X45159514Y-53120000D01*
X45159514Y-53120000D02*
X45625000Y-52654514D01*
X45625000Y-52654514D02*
X45625000Y-49950000D01*
D23*
X38640000Y-24230000D02*
X38647197Y-24237197D01*
X38647197Y-24237197D02*
X38647197Y-39727197D01*
X38647197Y-39727197D02*
X41700000Y-42780000D01*
X54515000Y-56234000D02*
X52228620Y-56234000D01*
X52228620Y-56234000D02*
X51340000Y-55345380D01*
X51340000Y-55345380D02*
X51340000Y-48360000D01*
X51340000Y-48360000D02*
X50415271Y-47435271D01*
X50415271Y-47435271D02*
X42528416Y-47435271D01*
X42528416Y-47435271D02*
X42528416Y-47418416D01*
X42528416Y-47418416D02*
X41700000Y-46590000D01*
X38640000Y-24230000D02*
X37370000Y-24230000D01*
X39910000Y-24230000D02*
X38640000Y-24230000D01*
X54520000Y-58774000D02*
X54520000Y-56239000D01*
X54520000Y-56239000D02*
X54515000Y-56234000D01*
M02*
