G04 #@! TF.FileFunction,Copper,L2,Bot,Signal*
%FSLAX46Y46*%
G04 Gerber Fmt 4.6, Leading zero omitted, Abs format (unit mm)*
G04 Created by KiCad (PCBNEW 4.0.5) date 04/15/17 13:19:52*
%MOMM*%
%LPD*%
G01*
G04 APERTURE LIST*
%ADD10C,0.100000*%
%ADD11C,0.300000*%
%ADD12R,1.727200X1.727200*%
%ADD13O,1.727200X1.727200*%
%ADD14C,6.200000*%
%ADD15C,0.889000*%
%ADD16C,0.304800*%
%ADD17C,0.254000*%
G04 APERTURE END LIST*
D10*
D11*
X31392857Y-60892857D02*
X31464286Y-61107143D01*
X31535714Y-61178571D01*
X31678571Y-61250000D01*
X31892857Y-61250000D01*
X32035714Y-61178571D01*
X32107143Y-61107143D01*
X32178571Y-60964285D01*
X32178571Y-60392857D01*
X30678571Y-60392857D01*
X30678571Y-60892857D01*
X30750000Y-61035714D01*
X30821429Y-61107143D01*
X30964286Y-61178571D01*
X31107143Y-61178571D01*
X31250000Y-61107143D01*
X31321429Y-61035714D01*
X31392857Y-60892857D01*
X31392857Y-60392857D01*
X32178571Y-62107143D02*
X32107143Y-61964285D01*
X32035714Y-61892857D01*
X31892857Y-61821428D01*
X31464286Y-61821428D01*
X31321429Y-61892857D01*
X31250000Y-61964285D01*
X31178571Y-62107143D01*
X31178571Y-62321428D01*
X31250000Y-62464285D01*
X31321429Y-62535714D01*
X31464286Y-62607143D01*
X31892857Y-62607143D01*
X32035714Y-62535714D01*
X32107143Y-62464285D01*
X32178571Y-62321428D01*
X32178571Y-62107143D01*
X31178571Y-63035714D02*
X31178571Y-63607143D01*
X30678571Y-63250000D02*
X31964286Y-63250000D01*
X32107143Y-63321428D01*
X32178571Y-63464286D01*
X32178571Y-63607143D01*
X31178571Y-63892857D02*
X31178571Y-64464286D01*
X30678571Y-64107143D02*
X31964286Y-64107143D01*
X32107143Y-64178571D01*
X32178571Y-64321429D01*
X32178571Y-64464286D01*
X32178571Y-65178572D02*
X32107143Y-65035714D01*
X32035714Y-64964286D01*
X31892857Y-64892857D01*
X31464286Y-64892857D01*
X31321429Y-64964286D01*
X31250000Y-65035714D01*
X31178571Y-65178572D01*
X31178571Y-65392857D01*
X31250000Y-65535714D01*
X31321429Y-65607143D01*
X31464286Y-65678572D01*
X31892857Y-65678572D01*
X32035714Y-65607143D01*
X32107143Y-65535714D01*
X32178571Y-65392857D01*
X32178571Y-65178572D01*
X32178571Y-66321429D02*
X31178571Y-66321429D01*
X31321429Y-66321429D02*
X31250000Y-66392857D01*
X31178571Y-66535715D01*
X31178571Y-66750000D01*
X31250000Y-66892857D01*
X31392857Y-66964286D01*
X32178571Y-66964286D01*
X31392857Y-66964286D02*
X31250000Y-67035715D01*
X31178571Y-67178572D01*
X31178571Y-67392857D01*
X31250000Y-67535715D01*
X31392857Y-67607143D01*
X32178571Y-67607143D01*
D12*
X41815000Y-73760000D03*
D13*
X41815000Y-71220000D03*
X44355000Y-73760000D03*
X44355000Y-71220000D03*
X46895000Y-73760000D03*
X46895000Y-71220000D03*
X49435000Y-73760000D03*
X49435000Y-71220000D03*
X51975000Y-73760000D03*
X51975000Y-71220000D03*
D14*
X32500000Y-74500000D03*
D12*
X37370000Y-26770000D03*
D13*
X37370000Y-24230000D03*
X39910000Y-26770000D03*
X39910000Y-24230000D03*
X42450000Y-26770000D03*
X42450000Y-24230000D03*
X44990000Y-26770000D03*
X44990000Y-24230000D03*
X47530000Y-26770000D03*
X47530000Y-24230000D03*
X50070000Y-26770000D03*
X50070000Y-24230000D03*
X52610000Y-26770000D03*
X52610000Y-24230000D03*
X55150000Y-26770000D03*
X55150000Y-24230000D03*
X57690000Y-26770000D03*
X57690000Y-24230000D03*
X60230000Y-26770000D03*
X60230000Y-24230000D03*
X62770000Y-26770000D03*
X62770000Y-24230000D03*
X65310000Y-26770000D03*
X65310000Y-24230000D03*
X67850000Y-26770000D03*
X67850000Y-24230000D03*
D14*
X32500000Y-25500000D03*
D15*
X50071313Y-60681935D03*
X50070000Y-64235000D03*
X52894832Y-51154000D03*
X58325000Y-52170000D03*
X58325000Y-56615000D03*
X43720000Y-64235000D03*
X38005000Y-44550000D03*
X46264380Y-37565380D03*
X46895000Y-41375000D03*
X48804380Y-37565380D03*
X49435000Y-41375000D03*
X42888831Y-51952407D03*
X43053044Y-40748634D03*
X44567017Y-51982482D03*
X44405452Y-42469854D03*
X52603118Y-59791841D03*
X46895000Y-61695000D03*
X51721000Y-63727000D03*
X45819380Y-46292575D03*
X49053579Y-51788579D03*
X50070000Y-65378000D03*
X44993551Y-65183722D03*
X44990000Y-61695000D03*
X41700000Y-42780000D03*
X41700000Y-46590000D03*
D16*
X50070000Y-60683248D02*
X50071313Y-60681935D01*
X50070000Y-64235000D02*
X50070000Y-60683248D01*
X38005000Y-44550000D02*
X38005000Y-36295000D01*
X38005000Y-36295000D02*
X47530000Y-26770000D01*
X52868380Y-52170000D02*
X51334760Y-52170000D01*
X58325000Y-52170000D02*
X52868380Y-52170000D01*
X52868380Y-52170000D02*
X52894832Y-52143548D01*
X52894832Y-52143548D02*
X52894832Y-51154000D01*
X51334760Y-52170000D02*
X43720000Y-59784760D01*
X43720000Y-59784760D02*
X43720000Y-59790000D01*
X58325000Y-52170000D02*
X58325000Y-56615000D01*
X38005000Y-54075000D02*
X38005000Y-44550000D01*
X43720000Y-59790000D02*
X38005000Y-54075000D01*
X43720000Y-64235000D02*
X43720000Y-59790000D01*
X42450000Y-24230000D02*
X43718249Y-25498249D01*
X43718249Y-25498249D02*
X46258249Y-25498249D01*
X46258249Y-25498249D02*
X47530000Y-26770000D01*
X47530000Y-26770000D02*
X48794783Y-25505217D01*
X48794783Y-25505217D02*
X51334783Y-25505217D01*
X51334783Y-25505217D02*
X52610000Y-24230000D01*
X52610000Y-24230000D02*
X53869324Y-25489324D01*
X53869324Y-25489324D02*
X58970676Y-25489324D01*
X58970676Y-25489324D02*
X60230000Y-24230000D01*
X60230000Y-24230000D02*
X61503338Y-25503338D01*
X61503338Y-25503338D02*
X66583338Y-25503338D01*
X66583338Y-25503338D02*
X67850000Y-26770000D01*
D17*
X46264380Y-37565380D02*
X46895000Y-38196000D01*
X46895000Y-38196000D02*
X46895000Y-41375000D01*
X49435000Y-41375000D02*
X49435000Y-38196000D01*
X49435000Y-38196000D02*
X48804380Y-37565380D01*
X42888831Y-48024213D02*
X42888831Y-51952407D01*
X43053044Y-47860000D02*
X43053044Y-40748634D01*
X42888831Y-48024213D02*
X43053044Y-47860000D01*
X44567017Y-48021565D02*
X44567017Y-51982482D01*
X44405452Y-47860000D02*
X44405452Y-42469854D01*
X44567017Y-48021565D02*
X44405452Y-47860000D01*
X52603118Y-59791841D02*
X48798159Y-59791841D01*
X46895000Y-61695000D02*
X48798159Y-59791841D01*
X45819380Y-48554380D02*
X45819380Y-46292575D01*
X49053579Y-51788579D02*
X45819380Y-48554380D01*
X50070000Y-65378000D02*
X51721000Y-63727000D01*
X44990000Y-65180171D02*
X44993551Y-65183722D01*
X44990000Y-61695000D02*
X44990000Y-65180171D01*
D16*
X41700000Y-46590000D02*
X41700000Y-42780000D01*
D17*
G36*
X68470128Y-22657904D02*
X68494750Y-22674356D01*
X69825644Y-24005250D01*
X69842096Y-24029872D01*
X69873000Y-24185237D01*
X69873000Y-74947394D01*
X67447394Y-77373000D01*
X36127000Y-77373000D01*
X36127000Y-71579026D01*
X40360042Y-71579026D01*
X40532312Y-71994947D01*
X40926510Y-72426821D01*
X41099582Y-72507936D01*
X40951400Y-72507936D01*
X40810210Y-72534503D01*
X40680535Y-72617946D01*
X40593541Y-72745266D01*
X40562936Y-72896400D01*
X40562936Y-74623600D01*
X40589503Y-74764790D01*
X40672946Y-74894465D01*
X40800266Y-74981459D01*
X40951400Y-75012064D01*
X42678600Y-75012064D01*
X42819790Y-74985497D01*
X42949465Y-74902054D01*
X43036459Y-74774734D01*
X43067064Y-74623600D01*
X43067064Y-73760000D01*
X43086017Y-73760000D01*
X43180757Y-74236288D01*
X43450552Y-74640065D01*
X43854329Y-74909860D01*
X44330617Y-75004600D01*
X44379383Y-75004600D01*
X44855671Y-74909860D01*
X45259448Y-74640065D01*
X45529243Y-74236288D01*
X45623983Y-73760000D01*
X45626017Y-73760000D01*
X45720757Y-74236288D01*
X45990552Y-74640065D01*
X46394329Y-74909860D01*
X46870617Y-75004600D01*
X46919383Y-75004600D01*
X47395671Y-74909860D01*
X47799448Y-74640065D01*
X48069243Y-74236288D01*
X48163983Y-73760000D01*
X48166017Y-73760000D01*
X48260757Y-74236288D01*
X48530552Y-74640065D01*
X48934329Y-74909860D01*
X49410617Y-75004600D01*
X49459383Y-75004600D01*
X49935671Y-74909860D01*
X50339448Y-74640065D01*
X50609243Y-74236288D01*
X50703983Y-73760000D01*
X50706017Y-73760000D01*
X50800757Y-74236288D01*
X51070552Y-74640065D01*
X51474329Y-74909860D01*
X51950617Y-75004600D01*
X51999383Y-75004600D01*
X52475671Y-74909860D01*
X52879448Y-74640065D01*
X53149243Y-74236288D01*
X53243983Y-73760000D01*
X53149243Y-73283712D01*
X52879448Y-72879935D01*
X52475671Y-72610140D01*
X51999383Y-72515400D01*
X51950617Y-72515400D01*
X51474329Y-72610140D01*
X51070552Y-72879935D01*
X50800757Y-73283712D01*
X50706017Y-73760000D01*
X50703983Y-73760000D01*
X50609243Y-73283712D01*
X50339448Y-72879935D01*
X49935671Y-72610140D01*
X49459383Y-72515400D01*
X49410617Y-72515400D01*
X48934329Y-72610140D01*
X48530552Y-72879935D01*
X48260757Y-73283712D01*
X48166017Y-73760000D01*
X48163983Y-73760000D01*
X48069243Y-73283712D01*
X47799448Y-72879935D01*
X47395671Y-72610140D01*
X46919383Y-72515400D01*
X46870617Y-72515400D01*
X46394329Y-72610140D01*
X45990552Y-72879935D01*
X45720757Y-73283712D01*
X45626017Y-73760000D01*
X45623983Y-73760000D01*
X45529243Y-73283712D01*
X45259448Y-72879935D01*
X44855671Y-72610140D01*
X44379383Y-72515400D01*
X44330617Y-72515400D01*
X43854329Y-72610140D01*
X43450552Y-72879935D01*
X43180757Y-73283712D01*
X43086017Y-73760000D01*
X43067064Y-73760000D01*
X43067064Y-72896400D01*
X43040497Y-72755210D01*
X42957054Y-72625535D01*
X42829734Y-72538541D01*
X42678600Y-72507936D01*
X42530418Y-72507936D01*
X42703490Y-72426821D01*
X43097688Y-71994947D01*
X43205841Y-71733828D01*
X43450552Y-72100065D01*
X43854329Y-72369860D01*
X44330617Y-72464600D01*
X44379383Y-72464600D01*
X44855671Y-72369860D01*
X45259448Y-72100065D01*
X45529243Y-71696288D01*
X45623983Y-71220000D01*
X45626017Y-71220000D01*
X45720757Y-71696288D01*
X45990552Y-72100065D01*
X46394329Y-72369860D01*
X46870617Y-72464600D01*
X46919383Y-72464600D01*
X47395671Y-72369860D01*
X47799448Y-72100065D01*
X48069243Y-71696288D01*
X48163983Y-71220000D01*
X48166017Y-71220000D01*
X48260757Y-71696288D01*
X48530552Y-72100065D01*
X48934329Y-72369860D01*
X49410617Y-72464600D01*
X49459383Y-72464600D01*
X49935671Y-72369860D01*
X50339448Y-72100065D01*
X50609243Y-71696288D01*
X50703983Y-71220000D01*
X50706017Y-71220000D01*
X50800757Y-71696288D01*
X51070552Y-72100065D01*
X51474329Y-72369860D01*
X51950617Y-72464600D01*
X51999383Y-72464600D01*
X52475671Y-72369860D01*
X52879448Y-72100065D01*
X53149243Y-71696288D01*
X53243983Y-71220000D01*
X53149243Y-70743712D01*
X52879448Y-70339935D01*
X52475671Y-70070140D01*
X51999383Y-69975400D01*
X51950617Y-69975400D01*
X51474329Y-70070140D01*
X51070552Y-70339935D01*
X50800757Y-70743712D01*
X50706017Y-71220000D01*
X50703983Y-71220000D01*
X50609243Y-70743712D01*
X50339448Y-70339935D01*
X49935671Y-70070140D01*
X49459383Y-69975400D01*
X49410617Y-69975400D01*
X48934329Y-70070140D01*
X48530552Y-70339935D01*
X48260757Y-70743712D01*
X48166017Y-71220000D01*
X48163983Y-71220000D01*
X48069243Y-70743712D01*
X47799448Y-70339935D01*
X47395671Y-70070140D01*
X46919383Y-69975400D01*
X46870617Y-69975400D01*
X46394329Y-70070140D01*
X45990552Y-70339935D01*
X45720757Y-70743712D01*
X45626017Y-71220000D01*
X45623983Y-71220000D01*
X45529243Y-70743712D01*
X45259448Y-70339935D01*
X44855671Y-70070140D01*
X44379383Y-69975400D01*
X44330617Y-69975400D01*
X43854329Y-70070140D01*
X43450552Y-70339935D01*
X43205841Y-70706172D01*
X43097688Y-70445053D01*
X42703490Y-70013179D01*
X42174027Y-69765032D01*
X41942000Y-69885531D01*
X41942000Y-71093000D01*
X41962000Y-71093000D01*
X41962000Y-71347000D01*
X41942000Y-71347000D01*
X41942000Y-71367000D01*
X41688000Y-71367000D01*
X41688000Y-71347000D01*
X40481183Y-71347000D01*
X40360042Y-71579026D01*
X36127000Y-71579026D01*
X36127000Y-71000000D01*
X36116994Y-70950590D01*
X36088553Y-70908965D01*
X36046159Y-70881685D01*
X36000000Y-70873000D01*
X34627000Y-70873000D01*
X34627000Y-70860974D01*
X40360042Y-70860974D01*
X40481183Y-71093000D01*
X41688000Y-71093000D01*
X41688000Y-69885531D01*
X41455973Y-69765032D01*
X40926510Y-70013179D01*
X40532312Y-70445053D01*
X40360042Y-70860974D01*
X34627000Y-70860974D01*
X34627000Y-61858482D01*
X44164357Y-61858482D01*
X44289767Y-62161998D01*
X44482000Y-62354567D01*
X44482000Y-64527964D01*
X44294134Y-64715503D01*
X44168194Y-65018799D01*
X44167908Y-65347204D01*
X44293318Y-65650720D01*
X44525332Y-65883139D01*
X44828628Y-66009079D01*
X45157033Y-66009365D01*
X45460549Y-65883955D01*
X45692968Y-65651941D01*
X45818908Y-65348645D01*
X45819194Y-65020240D01*
X45693784Y-64716724D01*
X45498000Y-64520598D01*
X45498000Y-62354302D01*
X45689417Y-62163219D01*
X45815357Y-61859923D01*
X45815358Y-61858482D01*
X46069357Y-61858482D01*
X46194767Y-62161998D01*
X46426781Y-62394417D01*
X46730077Y-62520357D01*
X47058482Y-62520643D01*
X47361998Y-62395233D01*
X47594417Y-62163219D01*
X47720357Y-61859923D01*
X47720594Y-61587826D01*
X49008579Y-60299841D01*
X49336134Y-60299841D01*
X49245956Y-60517012D01*
X49245670Y-60845417D01*
X49371080Y-61148933D01*
X49536600Y-61314742D01*
X49536600Y-63601053D01*
X49370583Y-63766781D01*
X49244643Y-64070077D01*
X49244357Y-64398482D01*
X49369767Y-64701998D01*
X49474066Y-64806479D01*
X49370583Y-64909781D01*
X49244643Y-65213077D01*
X49244357Y-65541482D01*
X49369767Y-65844998D01*
X49601781Y-66077417D01*
X49905077Y-66203357D01*
X50233482Y-66203643D01*
X50536998Y-66078233D01*
X50769417Y-65846219D01*
X50895357Y-65542923D01*
X50895594Y-65270826D01*
X51614013Y-64552407D01*
X51884482Y-64552643D01*
X52187998Y-64427233D01*
X52420417Y-64195219D01*
X52546357Y-63891923D01*
X52546643Y-63563518D01*
X52421233Y-63260002D01*
X52189219Y-63027583D01*
X51885923Y-62901643D01*
X51557518Y-62901357D01*
X51254002Y-63026767D01*
X51021583Y-63258781D01*
X50895643Y-63562077D01*
X50895406Y-63834173D01*
X50826179Y-63903401D01*
X50770233Y-63768002D01*
X50603400Y-63600878D01*
X50603400Y-61317192D01*
X50770730Y-61150154D01*
X50896670Y-60846858D01*
X50896956Y-60518453D01*
X50806628Y-60299841D01*
X51943816Y-60299841D01*
X52134899Y-60491258D01*
X52438195Y-60617198D01*
X52766600Y-60617484D01*
X53070116Y-60492074D01*
X53302535Y-60260060D01*
X53428475Y-59956764D01*
X53428761Y-59628359D01*
X53303351Y-59324843D01*
X53071337Y-59092424D01*
X52768041Y-58966484D01*
X52439636Y-58966198D01*
X52136120Y-59091608D01*
X51943551Y-59283841D01*
X48798159Y-59283841D01*
X48636009Y-59316095D01*
X48603755Y-59322510D01*
X48438949Y-59432631D01*
X47001987Y-60869593D01*
X46731518Y-60869357D01*
X46428002Y-60994767D01*
X46195583Y-61226781D01*
X46069643Y-61530077D01*
X46069357Y-61858482D01*
X45815358Y-61858482D01*
X45815643Y-61531518D01*
X45690233Y-61228002D01*
X45458219Y-60995583D01*
X45154923Y-60869643D01*
X44826518Y-60869357D01*
X44523002Y-60994767D01*
X44290583Y-61226781D01*
X44164643Y-61530077D01*
X44164357Y-61858482D01*
X34627000Y-61858482D01*
X34627000Y-52115889D01*
X42063188Y-52115889D01*
X42188598Y-52419405D01*
X42420612Y-52651824D01*
X42723908Y-52777764D01*
X43052313Y-52778050D01*
X43355829Y-52652640D01*
X43588248Y-52420626D01*
X43714188Y-52117330D01*
X43714474Y-51788925D01*
X43589064Y-51485409D01*
X43396831Y-51292840D01*
X43396831Y-48234633D01*
X43412254Y-48219210D01*
X43522375Y-48054404D01*
X43528907Y-48021565D01*
X43561044Y-47860000D01*
X43561044Y-42633336D01*
X43579809Y-42633336D01*
X43705219Y-42936852D01*
X43897452Y-43129421D01*
X43897452Y-47860000D01*
X43936121Y-48054403D01*
X44046242Y-48219210D01*
X44059017Y-48231985D01*
X44059017Y-51323180D01*
X43867600Y-51514263D01*
X43741660Y-51817559D01*
X43741374Y-52145964D01*
X43866784Y-52449480D01*
X44098798Y-52681899D01*
X44402094Y-52807839D01*
X44730499Y-52808125D01*
X45034015Y-52682715D01*
X45266434Y-52450701D01*
X45392374Y-52147405D01*
X45392660Y-51819000D01*
X45267250Y-51515484D01*
X45075017Y-51322915D01*
X45075017Y-48021565D01*
X45036348Y-47827162D01*
X45036348Y-47827161D01*
X44926227Y-47662354D01*
X44913452Y-47649579D01*
X44913452Y-46456057D01*
X44993737Y-46456057D01*
X45119147Y-46759573D01*
X45311380Y-46952142D01*
X45311380Y-48554380D01*
X45350049Y-48748783D01*
X45460170Y-48913590D01*
X48228172Y-51681592D01*
X48227936Y-51952061D01*
X48353346Y-52255577D01*
X48585360Y-52487996D01*
X48888656Y-52613936D01*
X49217061Y-52614222D01*
X49520577Y-52488812D01*
X49752996Y-52256798D01*
X49878936Y-51953502D01*
X49879222Y-51625097D01*
X49753812Y-51321581D01*
X49521798Y-51089162D01*
X49218502Y-50963222D01*
X48946405Y-50962985D01*
X46327380Y-48343960D01*
X46327380Y-46951877D01*
X46518797Y-46760794D01*
X46644737Y-46457498D01*
X46645023Y-46129093D01*
X46519613Y-45825577D01*
X46287599Y-45593158D01*
X45984303Y-45467218D01*
X45655898Y-45466932D01*
X45352382Y-45592342D01*
X45119963Y-45824356D01*
X44994023Y-46127652D01*
X44993737Y-46456057D01*
X44913452Y-46456057D01*
X44913452Y-43129156D01*
X45104869Y-42938073D01*
X45230809Y-42634777D01*
X45231095Y-42306372D01*
X45105685Y-42002856D01*
X44873671Y-41770437D01*
X44570375Y-41644497D01*
X44241970Y-41644211D01*
X43938454Y-41769621D01*
X43706035Y-42001635D01*
X43580095Y-42304931D01*
X43579809Y-42633336D01*
X43561044Y-42633336D01*
X43561044Y-41407936D01*
X43752461Y-41216853D01*
X43878401Y-40913557D01*
X43878687Y-40585152D01*
X43753277Y-40281636D01*
X43521263Y-40049217D01*
X43217967Y-39923277D01*
X42889562Y-39922991D01*
X42586046Y-40048401D01*
X42353627Y-40280415D01*
X42227687Y-40583711D01*
X42227401Y-40912116D01*
X42352811Y-41215632D01*
X42545044Y-41408201D01*
X42545044Y-47649580D01*
X42529621Y-47665003D01*
X42419500Y-47829810D01*
X42380831Y-48024213D01*
X42380831Y-51293105D01*
X42189414Y-51484188D01*
X42063474Y-51787484D01*
X42063188Y-52115889D01*
X34627000Y-52115889D01*
X34627000Y-42943482D01*
X40874357Y-42943482D01*
X40999767Y-43246998D01*
X41166600Y-43414122D01*
X41166600Y-45956053D01*
X41000583Y-46121781D01*
X40874643Y-46425077D01*
X40874357Y-46753482D01*
X40999767Y-47056998D01*
X41231781Y-47289417D01*
X41535077Y-47415357D01*
X41863482Y-47415643D01*
X42166998Y-47290233D01*
X42399417Y-47058219D01*
X42525357Y-46754923D01*
X42525643Y-46426518D01*
X42400233Y-46123002D01*
X42233400Y-45955878D01*
X42233400Y-43413947D01*
X42399417Y-43248219D01*
X42525357Y-42944923D01*
X42525643Y-42616518D01*
X42400233Y-42313002D01*
X42168219Y-42080583D01*
X41864923Y-41954643D01*
X41536518Y-41954357D01*
X41233002Y-42079767D01*
X41000583Y-42311781D01*
X40874643Y-42615077D01*
X40874357Y-42943482D01*
X34627000Y-42943482D01*
X34627000Y-37728862D01*
X45438737Y-37728862D01*
X45564147Y-38032378D01*
X45796161Y-38264797D01*
X46099457Y-38390737D01*
X46371554Y-38390974D01*
X46387000Y-38406420D01*
X46387000Y-40715698D01*
X46195583Y-40906781D01*
X46069643Y-41210077D01*
X46069357Y-41538482D01*
X46194767Y-41841998D01*
X46426781Y-42074417D01*
X46730077Y-42200357D01*
X47058482Y-42200643D01*
X47361998Y-42075233D01*
X47594417Y-41843219D01*
X47720357Y-41539923D01*
X47720643Y-41211518D01*
X47595233Y-40908002D01*
X47403000Y-40715433D01*
X47403000Y-38196000D01*
X47364331Y-38001597D01*
X47364331Y-38001596D01*
X47254210Y-37836790D01*
X47146282Y-37728862D01*
X47978737Y-37728862D01*
X48104147Y-38032378D01*
X48336161Y-38264797D01*
X48639457Y-38390737D01*
X48911554Y-38390974D01*
X48927000Y-38406420D01*
X48927000Y-40715698D01*
X48735583Y-40906781D01*
X48609643Y-41210077D01*
X48609357Y-41538482D01*
X48734767Y-41841998D01*
X48966781Y-42074417D01*
X49270077Y-42200357D01*
X49598482Y-42200643D01*
X49901998Y-42075233D01*
X50134417Y-41843219D01*
X50260357Y-41539923D01*
X50260643Y-41211518D01*
X50135233Y-40908002D01*
X49943000Y-40715433D01*
X49943000Y-38196000D01*
X49904331Y-38001597D01*
X49904331Y-38001596D01*
X49794210Y-37836790D01*
X49629787Y-37672367D01*
X49630023Y-37401898D01*
X49504613Y-37098382D01*
X49272599Y-36865963D01*
X48969303Y-36740023D01*
X48640898Y-36739737D01*
X48337382Y-36865147D01*
X48104963Y-37097161D01*
X47979023Y-37400457D01*
X47978737Y-37728862D01*
X47146282Y-37728862D01*
X47089787Y-37672367D01*
X47090023Y-37401898D01*
X46964613Y-37098382D01*
X46732599Y-36865963D01*
X46429303Y-36740023D01*
X46100898Y-36739737D01*
X45797382Y-36865147D01*
X45564963Y-37097161D01*
X45439023Y-37400457D01*
X45438737Y-37728862D01*
X34627000Y-37728862D01*
X34627000Y-29127000D01*
X35500000Y-29127000D01*
X35549410Y-29116994D01*
X35591035Y-29088553D01*
X35618315Y-29046159D01*
X35627000Y-29000000D01*
X35627000Y-27046521D01*
X35980395Y-26195451D01*
X35980647Y-25906400D01*
X36117936Y-25906400D01*
X36117936Y-27633600D01*
X36144503Y-27774790D01*
X36227946Y-27904465D01*
X36355266Y-27991459D01*
X36506400Y-28022064D01*
X38233600Y-28022064D01*
X38374790Y-27995497D01*
X38504465Y-27912054D01*
X38591459Y-27784734D01*
X38622064Y-27633600D01*
X38622064Y-26745617D01*
X38665400Y-26745617D01*
X38665400Y-26794383D01*
X38760140Y-27270671D01*
X39029935Y-27674448D01*
X39433712Y-27944243D01*
X39910000Y-28038983D01*
X40386288Y-27944243D01*
X40790065Y-27674448D01*
X41059860Y-27270671D01*
X41154600Y-26794383D01*
X41154600Y-26745617D01*
X41059860Y-26269329D01*
X40790065Y-25865552D01*
X40386288Y-25595757D01*
X39910000Y-25501017D01*
X39433712Y-25595757D01*
X39029935Y-25865552D01*
X38760140Y-26269329D01*
X38665400Y-26745617D01*
X38622064Y-26745617D01*
X38622064Y-25906400D01*
X38595497Y-25765210D01*
X38512054Y-25635535D01*
X38384734Y-25548541D01*
X38233600Y-25517936D01*
X36506400Y-25517936D01*
X36365210Y-25544503D01*
X36235535Y-25627946D01*
X36148541Y-25755266D01*
X36117936Y-25906400D01*
X35980647Y-25906400D01*
X35981603Y-24810624D01*
X35731620Y-24205617D01*
X36125400Y-24205617D01*
X36125400Y-24254383D01*
X36220140Y-24730671D01*
X36489935Y-25134448D01*
X36893712Y-25404243D01*
X37370000Y-25498983D01*
X37846288Y-25404243D01*
X38250065Y-25134448D01*
X38519860Y-24730671D01*
X38614600Y-24254383D01*
X38614600Y-24205617D01*
X38665400Y-24205617D01*
X38665400Y-24254383D01*
X38760140Y-24730671D01*
X39029935Y-25134448D01*
X39433712Y-25404243D01*
X39910000Y-25498983D01*
X40386288Y-25404243D01*
X40790065Y-25134448D01*
X41059860Y-24730671D01*
X41060324Y-24728338D01*
X41243179Y-25118490D01*
X41675053Y-25512688D01*
X41936172Y-25620841D01*
X41569935Y-25865552D01*
X41300140Y-26269329D01*
X41205400Y-26745617D01*
X41205400Y-26794383D01*
X41300140Y-27270671D01*
X41569935Y-27674448D01*
X41973712Y-27944243D01*
X42450000Y-28038983D01*
X42926288Y-27944243D01*
X43330065Y-27674448D01*
X43599860Y-27270671D01*
X43694600Y-26794383D01*
X43694600Y-26745617D01*
X43745400Y-26745617D01*
X43745400Y-26794383D01*
X43840140Y-27270671D01*
X44109935Y-27674448D01*
X44513712Y-27944243D01*
X44990000Y-28038983D01*
X45466288Y-27944243D01*
X45870065Y-27674448D01*
X46139860Y-27270671D01*
X46140324Y-27268338D01*
X46323179Y-27658490D01*
X46755053Y-28052688D01*
X47170974Y-28224958D01*
X47403000Y-28103817D01*
X47403000Y-26897000D01*
X47383000Y-26897000D01*
X47383000Y-26643000D01*
X47403000Y-26643000D01*
X47403000Y-26623000D01*
X47657000Y-26623000D01*
X47657000Y-26643000D01*
X47677000Y-26643000D01*
X47677000Y-26897000D01*
X47657000Y-26897000D01*
X47657000Y-28103817D01*
X47889026Y-28224958D01*
X48304947Y-28052688D01*
X48736821Y-27658490D01*
X48919676Y-27268338D01*
X48920140Y-27270671D01*
X49189935Y-27674448D01*
X49593712Y-27944243D01*
X50070000Y-28038983D01*
X50546288Y-27944243D01*
X50950065Y-27674448D01*
X51219860Y-27270671D01*
X51314600Y-26794383D01*
X51314600Y-26745617D01*
X51219860Y-26269329D01*
X50950065Y-25865552D01*
X50546288Y-25595757D01*
X50070000Y-25501017D01*
X49593712Y-25595757D01*
X49189935Y-25865552D01*
X48920140Y-26269329D01*
X48919676Y-26271662D01*
X48736821Y-25881510D01*
X48304947Y-25487312D01*
X48043828Y-25379159D01*
X48410065Y-25134448D01*
X48679860Y-24730671D01*
X48774600Y-24254383D01*
X48774600Y-24205617D01*
X48825400Y-24205617D01*
X48825400Y-24254383D01*
X48920140Y-24730671D01*
X49189935Y-25134448D01*
X49593712Y-25404243D01*
X50070000Y-25498983D01*
X50546288Y-25404243D01*
X50950065Y-25134448D01*
X51219860Y-24730671D01*
X51220324Y-24728338D01*
X51403179Y-25118490D01*
X51835053Y-25512688D01*
X52096172Y-25620841D01*
X51729935Y-25865552D01*
X51460140Y-26269329D01*
X51365400Y-26745617D01*
X51365400Y-26794383D01*
X51460140Y-27270671D01*
X51729935Y-27674448D01*
X52133712Y-27944243D01*
X52610000Y-28038983D01*
X53086288Y-27944243D01*
X53490065Y-27674448D01*
X53759860Y-27270671D01*
X53854600Y-26794383D01*
X53854600Y-26745617D01*
X53905400Y-26745617D01*
X53905400Y-26794383D01*
X54000140Y-27270671D01*
X54269935Y-27674448D01*
X54673712Y-27944243D01*
X55150000Y-28038983D01*
X55626288Y-27944243D01*
X56030065Y-27674448D01*
X56299860Y-27270671D01*
X56394600Y-26794383D01*
X56394600Y-26745617D01*
X56445400Y-26745617D01*
X56445400Y-26794383D01*
X56540140Y-27270671D01*
X56809935Y-27674448D01*
X57213712Y-27944243D01*
X57690000Y-28038983D01*
X58166288Y-27944243D01*
X58570065Y-27674448D01*
X58839860Y-27270671D01*
X58934600Y-26794383D01*
X58934600Y-26745617D01*
X58839860Y-26269329D01*
X58570065Y-25865552D01*
X58166288Y-25595757D01*
X57690000Y-25501017D01*
X57213712Y-25595757D01*
X56809935Y-25865552D01*
X56540140Y-26269329D01*
X56445400Y-26745617D01*
X56394600Y-26745617D01*
X56299860Y-26269329D01*
X56030065Y-25865552D01*
X55626288Y-25595757D01*
X55150000Y-25501017D01*
X54673712Y-25595757D01*
X54269935Y-25865552D01*
X54000140Y-26269329D01*
X53905400Y-26745617D01*
X53854600Y-26745617D01*
X53759860Y-26269329D01*
X53490065Y-25865552D01*
X53123828Y-25620841D01*
X53384947Y-25512688D01*
X53816821Y-25118490D01*
X53999676Y-24728338D01*
X54000140Y-24730671D01*
X54269935Y-25134448D01*
X54673712Y-25404243D01*
X55150000Y-25498983D01*
X55626288Y-25404243D01*
X56030065Y-25134448D01*
X56299860Y-24730671D01*
X56394600Y-24254383D01*
X56394600Y-24205617D01*
X56445400Y-24205617D01*
X56445400Y-24254383D01*
X56540140Y-24730671D01*
X56809935Y-25134448D01*
X57213712Y-25404243D01*
X57690000Y-25498983D01*
X58166288Y-25404243D01*
X58570065Y-25134448D01*
X58839860Y-24730671D01*
X58840324Y-24728338D01*
X59023179Y-25118490D01*
X59455053Y-25512688D01*
X59716172Y-25620841D01*
X59349935Y-25865552D01*
X59080140Y-26269329D01*
X58985400Y-26745617D01*
X58985400Y-26794383D01*
X59080140Y-27270671D01*
X59349935Y-27674448D01*
X59753712Y-27944243D01*
X60230000Y-28038983D01*
X60706288Y-27944243D01*
X61110065Y-27674448D01*
X61379860Y-27270671D01*
X61474600Y-26794383D01*
X61474600Y-26745617D01*
X61525400Y-26745617D01*
X61525400Y-26794383D01*
X61620140Y-27270671D01*
X61889935Y-27674448D01*
X62293712Y-27944243D01*
X62770000Y-28038983D01*
X63246288Y-27944243D01*
X63650065Y-27674448D01*
X63919860Y-27270671D01*
X64014600Y-26794383D01*
X64014600Y-26745617D01*
X64065400Y-26745617D01*
X64065400Y-26794383D01*
X64160140Y-27270671D01*
X64429935Y-27674448D01*
X64833712Y-27944243D01*
X65310000Y-28038983D01*
X65786288Y-27944243D01*
X66190065Y-27674448D01*
X66459860Y-27270671D01*
X66460324Y-27268338D01*
X66643179Y-27658490D01*
X67075053Y-28052688D01*
X67490974Y-28224958D01*
X67723000Y-28103817D01*
X67723000Y-26897000D01*
X67977000Y-26897000D01*
X67977000Y-28103817D01*
X68209026Y-28224958D01*
X68624947Y-28052688D01*
X69056821Y-27658490D01*
X69304968Y-27129027D01*
X69184469Y-26897000D01*
X67977000Y-26897000D01*
X67723000Y-26897000D01*
X67703000Y-26897000D01*
X67703000Y-26643000D01*
X67723000Y-26643000D01*
X67723000Y-26623000D01*
X67977000Y-26623000D01*
X67977000Y-26643000D01*
X69184469Y-26643000D01*
X69304968Y-26410973D01*
X69056821Y-25881510D01*
X68624947Y-25487312D01*
X68363828Y-25379159D01*
X68730065Y-25134448D01*
X68999860Y-24730671D01*
X69094600Y-24254383D01*
X69094600Y-24205617D01*
X68999860Y-23729329D01*
X68730065Y-23325552D01*
X68326288Y-23055757D01*
X67850000Y-22961017D01*
X67373712Y-23055757D01*
X66969935Y-23325552D01*
X66700140Y-23729329D01*
X66605400Y-24205617D01*
X66605400Y-24254383D01*
X66700140Y-24730671D01*
X66969935Y-25134448D01*
X67336172Y-25379159D01*
X67075053Y-25487312D01*
X66643179Y-25881510D01*
X66460324Y-26271662D01*
X66459860Y-26269329D01*
X66190065Y-25865552D01*
X65786288Y-25595757D01*
X65310000Y-25501017D01*
X64833712Y-25595757D01*
X64429935Y-25865552D01*
X64160140Y-26269329D01*
X64065400Y-26745617D01*
X64014600Y-26745617D01*
X63919860Y-26269329D01*
X63650065Y-25865552D01*
X63246288Y-25595757D01*
X62770000Y-25501017D01*
X62293712Y-25595757D01*
X61889935Y-25865552D01*
X61620140Y-26269329D01*
X61525400Y-26745617D01*
X61474600Y-26745617D01*
X61379860Y-26269329D01*
X61110065Y-25865552D01*
X60743828Y-25620841D01*
X61004947Y-25512688D01*
X61436821Y-25118490D01*
X61619676Y-24728338D01*
X61620140Y-24730671D01*
X61889935Y-25134448D01*
X62293712Y-25404243D01*
X62770000Y-25498983D01*
X63246288Y-25404243D01*
X63650065Y-25134448D01*
X63919860Y-24730671D01*
X64014600Y-24254383D01*
X64014600Y-24205617D01*
X64065400Y-24205617D01*
X64065400Y-24254383D01*
X64160140Y-24730671D01*
X64429935Y-25134448D01*
X64833712Y-25404243D01*
X65310000Y-25498983D01*
X65786288Y-25404243D01*
X66190065Y-25134448D01*
X66459860Y-24730671D01*
X66554600Y-24254383D01*
X66554600Y-24205617D01*
X66459860Y-23729329D01*
X66190065Y-23325552D01*
X65786288Y-23055757D01*
X65310000Y-22961017D01*
X64833712Y-23055757D01*
X64429935Y-23325552D01*
X64160140Y-23729329D01*
X64065400Y-24205617D01*
X64014600Y-24205617D01*
X63919860Y-23729329D01*
X63650065Y-23325552D01*
X63246288Y-23055757D01*
X62770000Y-22961017D01*
X62293712Y-23055757D01*
X61889935Y-23325552D01*
X61620140Y-23729329D01*
X61619676Y-23731662D01*
X61436821Y-23341510D01*
X61004947Y-22947312D01*
X60589026Y-22775042D01*
X60357000Y-22896183D01*
X60357000Y-24103000D01*
X60377000Y-24103000D01*
X60377000Y-24357000D01*
X60357000Y-24357000D01*
X60357000Y-24377000D01*
X60103000Y-24377000D01*
X60103000Y-24357000D01*
X60083000Y-24357000D01*
X60083000Y-24103000D01*
X60103000Y-24103000D01*
X60103000Y-22896183D01*
X59870974Y-22775042D01*
X59455053Y-22947312D01*
X59023179Y-23341510D01*
X58840324Y-23731662D01*
X58839860Y-23729329D01*
X58570065Y-23325552D01*
X58166288Y-23055757D01*
X57690000Y-22961017D01*
X57213712Y-23055757D01*
X56809935Y-23325552D01*
X56540140Y-23729329D01*
X56445400Y-24205617D01*
X56394600Y-24205617D01*
X56299860Y-23729329D01*
X56030065Y-23325552D01*
X55626288Y-23055757D01*
X55150000Y-22961017D01*
X54673712Y-23055757D01*
X54269935Y-23325552D01*
X54000140Y-23729329D01*
X53999676Y-23731662D01*
X53816821Y-23341510D01*
X53384947Y-22947312D01*
X52969026Y-22775042D01*
X52737000Y-22896183D01*
X52737000Y-24103000D01*
X52757000Y-24103000D01*
X52757000Y-24357000D01*
X52737000Y-24357000D01*
X52737000Y-24377000D01*
X52483000Y-24377000D01*
X52483000Y-24357000D01*
X52463000Y-24357000D01*
X52463000Y-24103000D01*
X52483000Y-24103000D01*
X52483000Y-22896183D01*
X52250974Y-22775042D01*
X51835053Y-22947312D01*
X51403179Y-23341510D01*
X51220324Y-23731662D01*
X51219860Y-23729329D01*
X50950065Y-23325552D01*
X50546288Y-23055757D01*
X50070000Y-22961017D01*
X49593712Y-23055757D01*
X49189935Y-23325552D01*
X48920140Y-23729329D01*
X48825400Y-24205617D01*
X48774600Y-24205617D01*
X48679860Y-23729329D01*
X48410065Y-23325552D01*
X48006288Y-23055757D01*
X47530000Y-22961017D01*
X47053712Y-23055757D01*
X46649935Y-23325552D01*
X46380140Y-23729329D01*
X46285400Y-24205617D01*
X46285400Y-24254383D01*
X46380140Y-24730671D01*
X46649935Y-25134448D01*
X47016172Y-25379159D01*
X46755053Y-25487312D01*
X46323179Y-25881510D01*
X46140324Y-26271662D01*
X46139860Y-26269329D01*
X45870065Y-25865552D01*
X45466288Y-25595757D01*
X44990000Y-25501017D01*
X44513712Y-25595757D01*
X44109935Y-25865552D01*
X43840140Y-26269329D01*
X43745400Y-26745617D01*
X43694600Y-26745617D01*
X43599860Y-26269329D01*
X43330065Y-25865552D01*
X42963828Y-25620841D01*
X43224947Y-25512688D01*
X43656821Y-25118490D01*
X43839676Y-24728338D01*
X43840140Y-24730671D01*
X44109935Y-25134448D01*
X44513712Y-25404243D01*
X44990000Y-25498983D01*
X45466288Y-25404243D01*
X45870065Y-25134448D01*
X46139860Y-24730671D01*
X46234600Y-24254383D01*
X46234600Y-24205617D01*
X46139860Y-23729329D01*
X45870065Y-23325552D01*
X45466288Y-23055757D01*
X44990000Y-22961017D01*
X44513712Y-23055757D01*
X44109935Y-23325552D01*
X43840140Y-23729329D01*
X43839676Y-23731662D01*
X43656821Y-23341510D01*
X43224947Y-22947312D01*
X42809026Y-22775042D01*
X42577000Y-22896183D01*
X42577000Y-24103000D01*
X42597000Y-24103000D01*
X42597000Y-24357000D01*
X42577000Y-24357000D01*
X42577000Y-24377000D01*
X42323000Y-24377000D01*
X42323000Y-24357000D01*
X42303000Y-24357000D01*
X42303000Y-24103000D01*
X42323000Y-24103000D01*
X42323000Y-22896183D01*
X42090974Y-22775042D01*
X41675053Y-22947312D01*
X41243179Y-23341510D01*
X41060324Y-23731662D01*
X41059860Y-23729329D01*
X40790065Y-23325552D01*
X40386288Y-23055757D01*
X39910000Y-22961017D01*
X39433712Y-23055757D01*
X39029935Y-23325552D01*
X38760140Y-23729329D01*
X38665400Y-24205617D01*
X38614600Y-24205617D01*
X38519860Y-23729329D01*
X38250065Y-23325552D01*
X37846288Y-23055757D01*
X37370000Y-22961017D01*
X36893712Y-23055757D01*
X36489935Y-23325552D01*
X36220140Y-23729329D01*
X36125400Y-24205617D01*
X35731620Y-24205617D01*
X35627000Y-23952419D01*
X35627000Y-22627000D01*
X68314763Y-22627000D01*
X68470128Y-22657904D01*
X68470128Y-22657904D01*
G37*
X68470128Y-22657904D02*
X68494750Y-22674356D01*
X69825644Y-24005250D01*
X69842096Y-24029872D01*
X69873000Y-24185237D01*
X69873000Y-74947394D01*
X67447394Y-77373000D01*
X36127000Y-77373000D01*
X36127000Y-71579026D01*
X40360042Y-71579026D01*
X40532312Y-71994947D01*
X40926510Y-72426821D01*
X41099582Y-72507936D01*
X40951400Y-72507936D01*
X40810210Y-72534503D01*
X40680535Y-72617946D01*
X40593541Y-72745266D01*
X40562936Y-72896400D01*
X40562936Y-74623600D01*
X40589503Y-74764790D01*
X40672946Y-74894465D01*
X40800266Y-74981459D01*
X40951400Y-75012064D01*
X42678600Y-75012064D01*
X42819790Y-74985497D01*
X42949465Y-74902054D01*
X43036459Y-74774734D01*
X43067064Y-74623600D01*
X43067064Y-73760000D01*
X43086017Y-73760000D01*
X43180757Y-74236288D01*
X43450552Y-74640065D01*
X43854329Y-74909860D01*
X44330617Y-75004600D01*
X44379383Y-75004600D01*
X44855671Y-74909860D01*
X45259448Y-74640065D01*
X45529243Y-74236288D01*
X45623983Y-73760000D01*
X45626017Y-73760000D01*
X45720757Y-74236288D01*
X45990552Y-74640065D01*
X46394329Y-74909860D01*
X46870617Y-75004600D01*
X46919383Y-75004600D01*
X47395671Y-74909860D01*
X47799448Y-74640065D01*
X48069243Y-74236288D01*
X48163983Y-73760000D01*
X48166017Y-73760000D01*
X48260757Y-74236288D01*
X48530552Y-74640065D01*
X48934329Y-74909860D01*
X49410617Y-75004600D01*
X49459383Y-75004600D01*
X49935671Y-74909860D01*
X50339448Y-74640065D01*
X50609243Y-74236288D01*
X50703983Y-73760000D01*
X50706017Y-73760000D01*
X50800757Y-74236288D01*
X51070552Y-74640065D01*
X51474329Y-74909860D01*
X51950617Y-75004600D01*
X51999383Y-75004600D01*
X52475671Y-74909860D01*
X52879448Y-74640065D01*
X53149243Y-74236288D01*
X53243983Y-73760000D01*
X53149243Y-73283712D01*
X52879448Y-72879935D01*
X52475671Y-72610140D01*
X51999383Y-72515400D01*
X51950617Y-72515400D01*
X51474329Y-72610140D01*
X51070552Y-72879935D01*
X50800757Y-73283712D01*
X50706017Y-73760000D01*
X50703983Y-73760000D01*
X50609243Y-73283712D01*
X50339448Y-72879935D01*
X49935671Y-72610140D01*
X49459383Y-72515400D01*
X49410617Y-72515400D01*
X48934329Y-72610140D01*
X48530552Y-72879935D01*
X48260757Y-73283712D01*
X48166017Y-73760000D01*
X48163983Y-73760000D01*
X48069243Y-73283712D01*
X47799448Y-72879935D01*
X47395671Y-72610140D01*
X46919383Y-72515400D01*
X46870617Y-72515400D01*
X46394329Y-72610140D01*
X45990552Y-72879935D01*
X45720757Y-73283712D01*
X45626017Y-73760000D01*
X45623983Y-73760000D01*
X45529243Y-73283712D01*
X45259448Y-72879935D01*
X44855671Y-72610140D01*
X44379383Y-72515400D01*
X44330617Y-72515400D01*
X43854329Y-72610140D01*
X43450552Y-72879935D01*
X43180757Y-73283712D01*
X43086017Y-73760000D01*
X43067064Y-73760000D01*
X43067064Y-72896400D01*
X43040497Y-72755210D01*
X42957054Y-72625535D01*
X42829734Y-72538541D01*
X42678600Y-72507936D01*
X42530418Y-72507936D01*
X42703490Y-72426821D01*
X43097688Y-71994947D01*
X43205841Y-71733828D01*
X43450552Y-72100065D01*
X43854329Y-72369860D01*
X44330617Y-72464600D01*
X44379383Y-72464600D01*
X44855671Y-72369860D01*
X45259448Y-72100065D01*
X45529243Y-71696288D01*
X45623983Y-71220000D01*
X45626017Y-71220000D01*
X45720757Y-71696288D01*
X45990552Y-72100065D01*
X46394329Y-72369860D01*
X46870617Y-72464600D01*
X46919383Y-72464600D01*
X47395671Y-72369860D01*
X47799448Y-72100065D01*
X48069243Y-71696288D01*
X48163983Y-71220000D01*
X48166017Y-71220000D01*
X48260757Y-71696288D01*
X48530552Y-72100065D01*
X48934329Y-72369860D01*
X49410617Y-72464600D01*
X49459383Y-72464600D01*
X49935671Y-72369860D01*
X50339448Y-72100065D01*
X50609243Y-71696288D01*
X50703983Y-71220000D01*
X50706017Y-71220000D01*
X50800757Y-71696288D01*
X51070552Y-72100065D01*
X51474329Y-72369860D01*
X51950617Y-72464600D01*
X51999383Y-72464600D01*
X52475671Y-72369860D01*
X52879448Y-72100065D01*
X53149243Y-71696288D01*
X53243983Y-71220000D01*
X53149243Y-70743712D01*
X52879448Y-70339935D01*
X52475671Y-70070140D01*
X51999383Y-69975400D01*
X51950617Y-69975400D01*
X51474329Y-70070140D01*
X51070552Y-70339935D01*
X50800757Y-70743712D01*
X50706017Y-71220000D01*
X50703983Y-71220000D01*
X50609243Y-70743712D01*
X50339448Y-70339935D01*
X49935671Y-70070140D01*
X49459383Y-69975400D01*
X49410617Y-69975400D01*
X48934329Y-70070140D01*
X48530552Y-70339935D01*
X48260757Y-70743712D01*
X48166017Y-71220000D01*
X48163983Y-71220000D01*
X48069243Y-70743712D01*
X47799448Y-70339935D01*
X47395671Y-70070140D01*
X46919383Y-69975400D01*
X46870617Y-69975400D01*
X46394329Y-70070140D01*
X45990552Y-70339935D01*
X45720757Y-70743712D01*
X45626017Y-71220000D01*
X45623983Y-71220000D01*
X45529243Y-70743712D01*
X45259448Y-70339935D01*
X44855671Y-70070140D01*
X44379383Y-69975400D01*
X44330617Y-69975400D01*
X43854329Y-70070140D01*
X43450552Y-70339935D01*
X43205841Y-70706172D01*
X43097688Y-70445053D01*
X42703490Y-70013179D01*
X42174027Y-69765032D01*
X41942000Y-69885531D01*
X41942000Y-71093000D01*
X41962000Y-71093000D01*
X41962000Y-71347000D01*
X41942000Y-71347000D01*
X41942000Y-71367000D01*
X41688000Y-71367000D01*
X41688000Y-71347000D01*
X40481183Y-71347000D01*
X40360042Y-71579026D01*
X36127000Y-71579026D01*
X36127000Y-71000000D01*
X36116994Y-70950590D01*
X36088553Y-70908965D01*
X36046159Y-70881685D01*
X36000000Y-70873000D01*
X34627000Y-70873000D01*
X34627000Y-70860974D01*
X40360042Y-70860974D01*
X40481183Y-71093000D01*
X41688000Y-71093000D01*
X41688000Y-69885531D01*
X41455973Y-69765032D01*
X40926510Y-70013179D01*
X40532312Y-70445053D01*
X40360042Y-70860974D01*
X34627000Y-70860974D01*
X34627000Y-61858482D01*
X44164357Y-61858482D01*
X44289767Y-62161998D01*
X44482000Y-62354567D01*
X44482000Y-64527964D01*
X44294134Y-64715503D01*
X44168194Y-65018799D01*
X44167908Y-65347204D01*
X44293318Y-65650720D01*
X44525332Y-65883139D01*
X44828628Y-66009079D01*
X45157033Y-66009365D01*
X45460549Y-65883955D01*
X45692968Y-65651941D01*
X45818908Y-65348645D01*
X45819194Y-65020240D01*
X45693784Y-64716724D01*
X45498000Y-64520598D01*
X45498000Y-62354302D01*
X45689417Y-62163219D01*
X45815357Y-61859923D01*
X45815358Y-61858482D01*
X46069357Y-61858482D01*
X46194767Y-62161998D01*
X46426781Y-62394417D01*
X46730077Y-62520357D01*
X47058482Y-62520643D01*
X47361998Y-62395233D01*
X47594417Y-62163219D01*
X47720357Y-61859923D01*
X47720594Y-61587826D01*
X49008579Y-60299841D01*
X49336134Y-60299841D01*
X49245956Y-60517012D01*
X49245670Y-60845417D01*
X49371080Y-61148933D01*
X49536600Y-61314742D01*
X49536600Y-63601053D01*
X49370583Y-63766781D01*
X49244643Y-64070077D01*
X49244357Y-64398482D01*
X49369767Y-64701998D01*
X49474066Y-64806479D01*
X49370583Y-64909781D01*
X49244643Y-65213077D01*
X49244357Y-65541482D01*
X49369767Y-65844998D01*
X49601781Y-66077417D01*
X49905077Y-66203357D01*
X50233482Y-66203643D01*
X50536998Y-66078233D01*
X50769417Y-65846219D01*
X50895357Y-65542923D01*
X50895594Y-65270826D01*
X51614013Y-64552407D01*
X51884482Y-64552643D01*
X52187998Y-64427233D01*
X52420417Y-64195219D01*
X52546357Y-63891923D01*
X52546643Y-63563518D01*
X52421233Y-63260002D01*
X52189219Y-63027583D01*
X51885923Y-62901643D01*
X51557518Y-62901357D01*
X51254002Y-63026767D01*
X51021583Y-63258781D01*
X50895643Y-63562077D01*
X50895406Y-63834173D01*
X50826179Y-63903401D01*
X50770233Y-63768002D01*
X50603400Y-63600878D01*
X50603400Y-61317192D01*
X50770730Y-61150154D01*
X50896670Y-60846858D01*
X50896956Y-60518453D01*
X50806628Y-60299841D01*
X51943816Y-60299841D01*
X52134899Y-60491258D01*
X52438195Y-60617198D01*
X52766600Y-60617484D01*
X53070116Y-60492074D01*
X53302535Y-60260060D01*
X53428475Y-59956764D01*
X53428761Y-59628359D01*
X53303351Y-59324843D01*
X53071337Y-59092424D01*
X52768041Y-58966484D01*
X52439636Y-58966198D01*
X52136120Y-59091608D01*
X51943551Y-59283841D01*
X48798159Y-59283841D01*
X48636009Y-59316095D01*
X48603755Y-59322510D01*
X48438949Y-59432631D01*
X47001987Y-60869593D01*
X46731518Y-60869357D01*
X46428002Y-60994767D01*
X46195583Y-61226781D01*
X46069643Y-61530077D01*
X46069357Y-61858482D01*
X45815358Y-61858482D01*
X45815643Y-61531518D01*
X45690233Y-61228002D01*
X45458219Y-60995583D01*
X45154923Y-60869643D01*
X44826518Y-60869357D01*
X44523002Y-60994767D01*
X44290583Y-61226781D01*
X44164643Y-61530077D01*
X44164357Y-61858482D01*
X34627000Y-61858482D01*
X34627000Y-52115889D01*
X42063188Y-52115889D01*
X42188598Y-52419405D01*
X42420612Y-52651824D01*
X42723908Y-52777764D01*
X43052313Y-52778050D01*
X43355829Y-52652640D01*
X43588248Y-52420626D01*
X43714188Y-52117330D01*
X43714474Y-51788925D01*
X43589064Y-51485409D01*
X43396831Y-51292840D01*
X43396831Y-48234633D01*
X43412254Y-48219210D01*
X43522375Y-48054404D01*
X43528907Y-48021565D01*
X43561044Y-47860000D01*
X43561044Y-42633336D01*
X43579809Y-42633336D01*
X43705219Y-42936852D01*
X43897452Y-43129421D01*
X43897452Y-47860000D01*
X43936121Y-48054403D01*
X44046242Y-48219210D01*
X44059017Y-48231985D01*
X44059017Y-51323180D01*
X43867600Y-51514263D01*
X43741660Y-51817559D01*
X43741374Y-52145964D01*
X43866784Y-52449480D01*
X44098798Y-52681899D01*
X44402094Y-52807839D01*
X44730499Y-52808125D01*
X45034015Y-52682715D01*
X45266434Y-52450701D01*
X45392374Y-52147405D01*
X45392660Y-51819000D01*
X45267250Y-51515484D01*
X45075017Y-51322915D01*
X45075017Y-48021565D01*
X45036348Y-47827162D01*
X45036348Y-47827161D01*
X44926227Y-47662354D01*
X44913452Y-47649579D01*
X44913452Y-46456057D01*
X44993737Y-46456057D01*
X45119147Y-46759573D01*
X45311380Y-46952142D01*
X45311380Y-48554380D01*
X45350049Y-48748783D01*
X45460170Y-48913590D01*
X48228172Y-51681592D01*
X48227936Y-51952061D01*
X48353346Y-52255577D01*
X48585360Y-52487996D01*
X48888656Y-52613936D01*
X49217061Y-52614222D01*
X49520577Y-52488812D01*
X49752996Y-52256798D01*
X49878936Y-51953502D01*
X49879222Y-51625097D01*
X49753812Y-51321581D01*
X49521798Y-51089162D01*
X49218502Y-50963222D01*
X48946405Y-50962985D01*
X46327380Y-48343960D01*
X46327380Y-46951877D01*
X46518797Y-46760794D01*
X46644737Y-46457498D01*
X46645023Y-46129093D01*
X46519613Y-45825577D01*
X46287599Y-45593158D01*
X45984303Y-45467218D01*
X45655898Y-45466932D01*
X45352382Y-45592342D01*
X45119963Y-45824356D01*
X44994023Y-46127652D01*
X44993737Y-46456057D01*
X44913452Y-46456057D01*
X44913452Y-43129156D01*
X45104869Y-42938073D01*
X45230809Y-42634777D01*
X45231095Y-42306372D01*
X45105685Y-42002856D01*
X44873671Y-41770437D01*
X44570375Y-41644497D01*
X44241970Y-41644211D01*
X43938454Y-41769621D01*
X43706035Y-42001635D01*
X43580095Y-42304931D01*
X43579809Y-42633336D01*
X43561044Y-42633336D01*
X43561044Y-41407936D01*
X43752461Y-41216853D01*
X43878401Y-40913557D01*
X43878687Y-40585152D01*
X43753277Y-40281636D01*
X43521263Y-40049217D01*
X43217967Y-39923277D01*
X42889562Y-39922991D01*
X42586046Y-40048401D01*
X42353627Y-40280415D01*
X42227687Y-40583711D01*
X42227401Y-40912116D01*
X42352811Y-41215632D01*
X42545044Y-41408201D01*
X42545044Y-47649580D01*
X42529621Y-47665003D01*
X42419500Y-47829810D01*
X42380831Y-48024213D01*
X42380831Y-51293105D01*
X42189414Y-51484188D01*
X42063474Y-51787484D01*
X42063188Y-52115889D01*
X34627000Y-52115889D01*
X34627000Y-42943482D01*
X40874357Y-42943482D01*
X40999767Y-43246998D01*
X41166600Y-43414122D01*
X41166600Y-45956053D01*
X41000583Y-46121781D01*
X40874643Y-46425077D01*
X40874357Y-46753482D01*
X40999767Y-47056998D01*
X41231781Y-47289417D01*
X41535077Y-47415357D01*
X41863482Y-47415643D01*
X42166998Y-47290233D01*
X42399417Y-47058219D01*
X42525357Y-46754923D01*
X42525643Y-46426518D01*
X42400233Y-46123002D01*
X42233400Y-45955878D01*
X42233400Y-43413947D01*
X42399417Y-43248219D01*
X42525357Y-42944923D01*
X42525643Y-42616518D01*
X42400233Y-42313002D01*
X42168219Y-42080583D01*
X41864923Y-41954643D01*
X41536518Y-41954357D01*
X41233002Y-42079767D01*
X41000583Y-42311781D01*
X40874643Y-42615077D01*
X40874357Y-42943482D01*
X34627000Y-42943482D01*
X34627000Y-37728862D01*
X45438737Y-37728862D01*
X45564147Y-38032378D01*
X45796161Y-38264797D01*
X46099457Y-38390737D01*
X46371554Y-38390974D01*
X46387000Y-38406420D01*
X46387000Y-40715698D01*
X46195583Y-40906781D01*
X46069643Y-41210077D01*
X46069357Y-41538482D01*
X46194767Y-41841998D01*
X46426781Y-42074417D01*
X46730077Y-42200357D01*
X47058482Y-42200643D01*
X47361998Y-42075233D01*
X47594417Y-41843219D01*
X47720357Y-41539923D01*
X47720643Y-41211518D01*
X47595233Y-40908002D01*
X47403000Y-40715433D01*
X47403000Y-38196000D01*
X47364331Y-38001597D01*
X47364331Y-38001596D01*
X47254210Y-37836790D01*
X47146282Y-37728862D01*
X47978737Y-37728862D01*
X48104147Y-38032378D01*
X48336161Y-38264797D01*
X48639457Y-38390737D01*
X48911554Y-38390974D01*
X48927000Y-38406420D01*
X48927000Y-40715698D01*
X48735583Y-40906781D01*
X48609643Y-41210077D01*
X48609357Y-41538482D01*
X48734767Y-41841998D01*
X48966781Y-42074417D01*
X49270077Y-42200357D01*
X49598482Y-42200643D01*
X49901998Y-42075233D01*
X50134417Y-41843219D01*
X50260357Y-41539923D01*
X50260643Y-41211518D01*
X50135233Y-40908002D01*
X49943000Y-40715433D01*
X49943000Y-38196000D01*
X49904331Y-38001597D01*
X49904331Y-38001596D01*
X49794210Y-37836790D01*
X49629787Y-37672367D01*
X49630023Y-37401898D01*
X49504613Y-37098382D01*
X49272599Y-36865963D01*
X48969303Y-36740023D01*
X48640898Y-36739737D01*
X48337382Y-36865147D01*
X48104963Y-37097161D01*
X47979023Y-37400457D01*
X47978737Y-37728862D01*
X47146282Y-37728862D01*
X47089787Y-37672367D01*
X47090023Y-37401898D01*
X46964613Y-37098382D01*
X46732599Y-36865963D01*
X46429303Y-36740023D01*
X46100898Y-36739737D01*
X45797382Y-36865147D01*
X45564963Y-37097161D01*
X45439023Y-37400457D01*
X45438737Y-37728862D01*
X34627000Y-37728862D01*
X34627000Y-29127000D01*
X35500000Y-29127000D01*
X35549410Y-29116994D01*
X35591035Y-29088553D01*
X35618315Y-29046159D01*
X35627000Y-29000000D01*
X35627000Y-27046521D01*
X35980395Y-26195451D01*
X35980647Y-25906400D01*
X36117936Y-25906400D01*
X36117936Y-27633600D01*
X36144503Y-27774790D01*
X36227946Y-27904465D01*
X36355266Y-27991459D01*
X36506400Y-28022064D01*
X38233600Y-28022064D01*
X38374790Y-27995497D01*
X38504465Y-27912054D01*
X38591459Y-27784734D01*
X38622064Y-27633600D01*
X38622064Y-26745617D01*
X38665400Y-26745617D01*
X38665400Y-26794383D01*
X38760140Y-27270671D01*
X39029935Y-27674448D01*
X39433712Y-27944243D01*
X39910000Y-28038983D01*
X40386288Y-27944243D01*
X40790065Y-27674448D01*
X41059860Y-27270671D01*
X41154600Y-26794383D01*
X41154600Y-26745617D01*
X41059860Y-26269329D01*
X40790065Y-25865552D01*
X40386288Y-25595757D01*
X39910000Y-25501017D01*
X39433712Y-25595757D01*
X39029935Y-25865552D01*
X38760140Y-26269329D01*
X38665400Y-26745617D01*
X38622064Y-26745617D01*
X38622064Y-25906400D01*
X38595497Y-25765210D01*
X38512054Y-25635535D01*
X38384734Y-25548541D01*
X38233600Y-25517936D01*
X36506400Y-25517936D01*
X36365210Y-25544503D01*
X36235535Y-25627946D01*
X36148541Y-25755266D01*
X36117936Y-25906400D01*
X35980647Y-25906400D01*
X35981603Y-24810624D01*
X35731620Y-24205617D01*
X36125400Y-24205617D01*
X36125400Y-24254383D01*
X36220140Y-24730671D01*
X36489935Y-25134448D01*
X36893712Y-25404243D01*
X37370000Y-25498983D01*
X37846288Y-25404243D01*
X38250065Y-25134448D01*
X38519860Y-24730671D01*
X38614600Y-24254383D01*
X38614600Y-24205617D01*
X38665400Y-24205617D01*
X38665400Y-24254383D01*
X38760140Y-24730671D01*
X39029935Y-25134448D01*
X39433712Y-25404243D01*
X39910000Y-25498983D01*
X40386288Y-25404243D01*
X40790065Y-25134448D01*
X41059860Y-24730671D01*
X41060324Y-24728338D01*
X41243179Y-25118490D01*
X41675053Y-25512688D01*
X41936172Y-25620841D01*
X41569935Y-25865552D01*
X41300140Y-26269329D01*
X41205400Y-26745617D01*
X41205400Y-26794383D01*
X41300140Y-27270671D01*
X41569935Y-27674448D01*
X41973712Y-27944243D01*
X42450000Y-28038983D01*
X42926288Y-27944243D01*
X43330065Y-27674448D01*
X43599860Y-27270671D01*
X43694600Y-26794383D01*
X43694600Y-26745617D01*
X43745400Y-26745617D01*
X43745400Y-26794383D01*
X43840140Y-27270671D01*
X44109935Y-27674448D01*
X44513712Y-27944243D01*
X44990000Y-28038983D01*
X45466288Y-27944243D01*
X45870065Y-27674448D01*
X46139860Y-27270671D01*
X46140324Y-27268338D01*
X46323179Y-27658490D01*
X46755053Y-28052688D01*
X47170974Y-28224958D01*
X47403000Y-28103817D01*
X47403000Y-26897000D01*
X47383000Y-26897000D01*
X47383000Y-26643000D01*
X47403000Y-26643000D01*
X47403000Y-26623000D01*
X47657000Y-26623000D01*
X47657000Y-26643000D01*
X47677000Y-26643000D01*
X47677000Y-26897000D01*
X47657000Y-26897000D01*
X47657000Y-28103817D01*
X47889026Y-28224958D01*
X48304947Y-28052688D01*
X48736821Y-27658490D01*
X48919676Y-27268338D01*
X48920140Y-27270671D01*
X49189935Y-27674448D01*
X49593712Y-27944243D01*
X50070000Y-28038983D01*
X50546288Y-27944243D01*
X50950065Y-27674448D01*
X51219860Y-27270671D01*
X51314600Y-26794383D01*
X51314600Y-26745617D01*
X51219860Y-26269329D01*
X50950065Y-25865552D01*
X50546288Y-25595757D01*
X50070000Y-25501017D01*
X49593712Y-25595757D01*
X49189935Y-25865552D01*
X48920140Y-26269329D01*
X48919676Y-26271662D01*
X48736821Y-25881510D01*
X48304947Y-25487312D01*
X48043828Y-25379159D01*
X48410065Y-25134448D01*
X48679860Y-24730671D01*
X48774600Y-24254383D01*
X48774600Y-24205617D01*
X48825400Y-24205617D01*
X48825400Y-24254383D01*
X48920140Y-24730671D01*
X49189935Y-25134448D01*
X49593712Y-25404243D01*
X50070000Y-25498983D01*
X50546288Y-25404243D01*
X50950065Y-25134448D01*
X51219860Y-24730671D01*
X51220324Y-24728338D01*
X51403179Y-25118490D01*
X51835053Y-25512688D01*
X52096172Y-25620841D01*
X51729935Y-25865552D01*
X51460140Y-26269329D01*
X51365400Y-26745617D01*
X51365400Y-26794383D01*
X51460140Y-27270671D01*
X51729935Y-27674448D01*
X52133712Y-27944243D01*
X52610000Y-28038983D01*
X53086288Y-27944243D01*
X53490065Y-27674448D01*
X53759860Y-27270671D01*
X53854600Y-26794383D01*
X53854600Y-26745617D01*
X53905400Y-26745617D01*
X53905400Y-26794383D01*
X54000140Y-27270671D01*
X54269935Y-27674448D01*
X54673712Y-27944243D01*
X55150000Y-28038983D01*
X55626288Y-27944243D01*
X56030065Y-27674448D01*
X56299860Y-27270671D01*
X56394600Y-26794383D01*
X56394600Y-26745617D01*
X56445400Y-26745617D01*
X56445400Y-26794383D01*
X56540140Y-27270671D01*
X56809935Y-27674448D01*
X57213712Y-27944243D01*
X57690000Y-28038983D01*
X58166288Y-27944243D01*
X58570065Y-27674448D01*
X58839860Y-27270671D01*
X58934600Y-26794383D01*
X58934600Y-26745617D01*
X58839860Y-26269329D01*
X58570065Y-25865552D01*
X58166288Y-25595757D01*
X57690000Y-25501017D01*
X57213712Y-25595757D01*
X56809935Y-25865552D01*
X56540140Y-26269329D01*
X56445400Y-26745617D01*
X56394600Y-26745617D01*
X56299860Y-26269329D01*
X56030065Y-25865552D01*
X55626288Y-25595757D01*
X55150000Y-25501017D01*
X54673712Y-25595757D01*
X54269935Y-25865552D01*
X54000140Y-26269329D01*
X53905400Y-26745617D01*
X53854600Y-26745617D01*
X53759860Y-26269329D01*
X53490065Y-25865552D01*
X53123828Y-25620841D01*
X53384947Y-25512688D01*
X53816821Y-25118490D01*
X53999676Y-24728338D01*
X54000140Y-24730671D01*
X54269935Y-25134448D01*
X54673712Y-25404243D01*
X55150000Y-25498983D01*
X55626288Y-25404243D01*
X56030065Y-25134448D01*
X56299860Y-24730671D01*
X56394600Y-24254383D01*
X56394600Y-24205617D01*
X56445400Y-24205617D01*
X56445400Y-24254383D01*
X56540140Y-24730671D01*
X56809935Y-25134448D01*
X57213712Y-25404243D01*
X57690000Y-25498983D01*
X58166288Y-25404243D01*
X58570065Y-25134448D01*
X58839860Y-24730671D01*
X58840324Y-24728338D01*
X59023179Y-25118490D01*
X59455053Y-25512688D01*
X59716172Y-25620841D01*
X59349935Y-25865552D01*
X59080140Y-26269329D01*
X58985400Y-26745617D01*
X58985400Y-26794383D01*
X59080140Y-27270671D01*
X59349935Y-27674448D01*
X59753712Y-27944243D01*
X60230000Y-28038983D01*
X60706288Y-27944243D01*
X61110065Y-27674448D01*
X61379860Y-27270671D01*
X61474600Y-26794383D01*
X61474600Y-26745617D01*
X61525400Y-26745617D01*
X61525400Y-26794383D01*
X61620140Y-27270671D01*
X61889935Y-27674448D01*
X62293712Y-27944243D01*
X62770000Y-28038983D01*
X63246288Y-27944243D01*
X63650065Y-27674448D01*
X63919860Y-27270671D01*
X64014600Y-26794383D01*
X64014600Y-26745617D01*
X64065400Y-26745617D01*
X64065400Y-26794383D01*
X64160140Y-27270671D01*
X64429935Y-27674448D01*
X64833712Y-27944243D01*
X65310000Y-28038983D01*
X65786288Y-27944243D01*
X66190065Y-27674448D01*
X66459860Y-27270671D01*
X66460324Y-27268338D01*
X66643179Y-27658490D01*
X67075053Y-28052688D01*
X67490974Y-28224958D01*
X67723000Y-28103817D01*
X67723000Y-26897000D01*
X67977000Y-26897000D01*
X67977000Y-28103817D01*
X68209026Y-28224958D01*
X68624947Y-28052688D01*
X69056821Y-27658490D01*
X69304968Y-27129027D01*
X69184469Y-26897000D01*
X67977000Y-26897000D01*
X67723000Y-26897000D01*
X67703000Y-26897000D01*
X67703000Y-26643000D01*
X67723000Y-26643000D01*
X67723000Y-26623000D01*
X67977000Y-26623000D01*
X67977000Y-26643000D01*
X69184469Y-26643000D01*
X69304968Y-26410973D01*
X69056821Y-25881510D01*
X68624947Y-25487312D01*
X68363828Y-25379159D01*
X68730065Y-25134448D01*
X68999860Y-24730671D01*
X69094600Y-24254383D01*
X69094600Y-24205617D01*
X68999860Y-23729329D01*
X68730065Y-23325552D01*
X68326288Y-23055757D01*
X67850000Y-22961017D01*
X67373712Y-23055757D01*
X66969935Y-23325552D01*
X66700140Y-23729329D01*
X66605400Y-24205617D01*
X66605400Y-24254383D01*
X66700140Y-24730671D01*
X66969935Y-25134448D01*
X67336172Y-25379159D01*
X67075053Y-25487312D01*
X66643179Y-25881510D01*
X66460324Y-26271662D01*
X66459860Y-26269329D01*
X66190065Y-25865552D01*
X65786288Y-25595757D01*
X65310000Y-25501017D01*
X64833712Y-25595757D01*
X64429935Y-25865552D01*
X64160140Y-26269329D01*
X64065400Y-26745617D01*
X64014600Y-26745617D01*
X63919860Y-26269329D01*
X63650065Y-25865552D01*
X63246288Y-25595757D01*
X62770000Y-25501017D01*
X62293712Y-25595757D01*
X61889935Y-25865552D01*
X61620140Y-26269329D01*
X61525400Y-26745617D01*
X61474600Y-26745617D01*
X61379860Y-26269329D01*
X61110065Y-25865552D01*
X60743828Y-25620841D01*
X61004947Y-25512688D01*
X61436821Y-25118490D01*
X61619676Y-24728338D01*
X61620140Y-24730671D01*
X61889935Y-25134448D01*
X62293712Y-25404243D01*
X62770000Y-25498983D01*
X63246288Y-25404243D01*
X63650065Y-25134448D01*
X63919860Y-24730671D01*
X64014600Y-24254383D01*
X64014600Y-24205617D01*
X64065400Y-24205617D01*
X64065400Y-24254383D01*
X64160140Y-24730671D01*
X64429935Y-25134448D01*
X64833712Y-25404243D01*
X65310000Y-25498983D01*
X65786288Y-25404243D01*
X66190065Y-25134448D01*
X66459860Y-24730671D01*
X66554600Y-24254383D01*
X66554600Y-24205617D01*
X66459860Y-23729329D01*
X66190065Y-23325552D01*
X65786288Y-23055757D01*
X65310000Y-22961017D01*
X64833712Y-23055757D01*
X64429935Y-23325552D01*
X64160140Y-23729329D01*
X64065400Y-24205617D01*
X64014600Y-24205617D01*
X63919860Y-23729329D01*
X63650065Y-23325552D01*
X63246288Y-23055757D01*
X62770000Y-22961017D01*
X62293712Y-23055757D01*
X61889935Y-23325552D01*
X61620140Y-23729329D01*
X61619676Y-23731662D01*
X61436821Y-23341510D01*
X61004947Y-22947312D01*
X60589026Y-22775042D01*
X60357000Y-22896183D01*
X60357000Y-24103000D01*
X60377000Y-24103000D01*
X60377000Y-24357000D01*
X60357000Y-24357000D01*
X60357000Y-24377000D01*
X60103000Y-24377000D01*
X60103000Y-24357000D01*
X60083000Y-24357000D01*
X60083000Y-24103000D01*
X60103000Y-24103000D01*
X60103000Y-22896183D01*
X59870974Y-22775042D01*
X59455053Y-22947312D01*
X59023179Y-23341510D01*
X58840324Y-23731662D01*
X58839860Y-23729329D01*
X58570065Y-23325552D01*
X58166288Y-23055757D01*
X57690000Y-22961017D01*
X57213712Y-23055757D01*
X56809935Y-23325552D01*
X56540140Y-23729329D01*
X56445400Y-24205617D01*
X56394600Y-24205617D01*
X56299860Y-23729329D01*
X56030065Y-23325552D01*
X55626288Y-23055757D01*
X55150000Y-22961017D01*
X54673712Y-23055757D01*
X54269935Y-23325552D01*
X54000140Y-23729329D01*
X53999676Y-23731662D01*
X53816821Y-23341510D01*
X53384947Y-22947312D01*
X52969026Y-22775042D01*
X52737000Y-22896183D01*
X52737000Y-24103000D01*
X52757000Y-24103000D01*
X52757000Y-24357000D01*
X52737000Y-24357000D01*
X52737000Y-24377000D01*
X52483000Y-24377000D01*
X52483000Y-24357000D01*
X52463000Y-24357000D01*
X52463000Y-24103000D01*
X52483000Y-24103000D01*
X52483000Y-22896183D01*
X52250974Y-22775042D01*
X51835053Y-22947312D01*
X51403179Y-23341510D01*
X51220324Y-23731662D01*
X51219860Y-23729329D01*
X50950065Y-23325552D01*
X50546288Y-23055757D01*
X50070000Y-22961017D01*
X49593712Y-23055757D01*
X49189935Y-23325552D01*
X48920140Y-23729329D01*
X48825400Y-24205617D01*
X48774600Y-24205617D01*
X48679860Y-23729329D01*
X48410065Y-23325552D01*
X48006288Y-23055757D01*
X47530000Y-22961017D01*
X47053712Y-23055757D01*
X46649935Y-23325552D01*
X46380140Y-23729329D01*
X46285400Y-24205617D01*
X46285400Y-24254383D01*
X46380140Y-24730671D01*
X46649935Y-25134448D01*
X47016172Y-25379159D01*
X46755053Y-25487312D01*
X46323179Y-25881510D01*
X46140324Y-26271662D01*
X46139860Y-26269329D01*
X45870065Y-25865552D01*
X45466288Y-25595757D01*
X44990000Y-25501017D01*
X44513712Y-25595757D01*
X44109935Y-25865552D01*
X43840140Y-26269329D01*
X43745400Y-26745617D01*
X43694600Y-26745617D01*
X43599860Y-26269329D01*
X43330065Y-25865552D01*
X42963828Y-25620841D01*
X43224947Y-25512688D01*
X43656821Y-25118490D01*
X43839676Y-24728338D01*
X43840140Y-24730671D01*
X44109935Y-25134448D01*
X44513712Y-25404243D01*
X44990000Y-25498983D01*
X45466288Y-25404243D01*
X45870065Y-25134448D01*
X46139860Y-24730671D01*
X46234600Y-24254383D01*
X46234600Y-24205617D01*
X46139860Y-23729329D01*
X45870065Y-23325552D01*
X45466288Y-23055757D01*
X44990000Y-22961017D01*
X44513712Y-23055757D01*
X44109935Y-23325552D01*
X43840140Y-23729329D01*
X43839676Y-23731662D01*
X43656821Y-23341510D01*
X43224947Y-22947312D01*
X42809026Y-22775042D01*
X42577000Y-22896183D01*
X42577000Y-24103000D01*
X42597000Y-24103000D01*
X42597000Y-24357000D01*
X42577000Y-24357000D01*
X42577000Y-24377000D01*
X42323000Y-24377000D01*
X42323000Y-24357000D01*
X42303000Y-24357000D01*
X42303000Y-24103000D01*
X42323000Y-24103000D01*
X42323000Y-22896183D01*
X42090974Y-22775042D01*
X41675053Y-22947312D01*
X41243179Y-23341510D01*
X41060324Y-23731662D01*
X41059860Y-23729329D01*
X40790065Y-23325552D01*
X40386288Y-23055757D01*
X39910000Y-22961017D01*
X39433712Y-23055757D01*
X39029935Y-23325552D01*
X38760140Y-23729329D01*
X38665400Y-24205617D01*
X38614600Y-24205617D01*
X38519860Y-23729329D01*
X38250065Y-23325552D01*
X37846288Y-23055757D01*
X37370000Y-22961017D01*
X36893712Y-23055757D01*
X36489935Y-23325552D01*
X36220140Y-23729329D01*
X36125400Y-24205617D01*
X35731620Y-24205617D01*
X35627000Y-23952419D01*
X35627000Y-22627000D01*
X68314763Y-22627000D01*
X68470128Y-22657904D01*
M02*
