G04 #@! TF.FileFunction,Legend,Bot*
%FSLAX46Y46*%
G04 Gerber Fmt 4.6, Leading zero omitted, Abs format (unit mm)*
G04 Created by KiCad (PCBNEW 4.0.5) date 04/15/17 13:19:52*
%MOMM*%
%LPD*%
G01*
G04 APERTURE LIST*
%ADD10C,0.100000*%
%ADD11C,0.300000*%
G04 APERTURE END LIST*
D10*
D11*
X68249999Y-30035714D02*
X68321428Y-30107143D01*
X68535714Y-30178571D01*
X68678571Y-30178571D01*
X68892856Y-30107143D01*
X69035714Y-29964286D01*
X69107142Y-29821429D01*
X69178571Y-29535714D01*
X69178571Y-29321429D01*
X69107142Y-29035714D01*
X69035714Y-28892857D01*
X68892856Y-28750000D01*
X68678571Y-28678571D01*
X68535714Y-28678571D01*
X68321428Y-28750000D01*
X68249999Y-28821429D01*
X67392856Y-30178571D02*
X67535714Y-30107143D01*
X67607142Y-30035714D01*
X67678571Y-29892857D01*
X67678571Y-29464286D01*
X67607142Y-29321429D01*
X67535714Y-29250000D01*
X67392856Y-29178571D01*
X67178571Y-29178571D01*
X67035714Y-29250000D01*
X66964285Y-29321429D01*
X66892856Y-29464286D01*
X66892856Y-29892857D01*
X66964285Y-30035714D01*
X67035714Y-30107143D01*
X67178571Y-30178571D01*
X67392856Y-30178571D01*
X66249999Y-29178571D02*
X66249999Y-30178571D01*
X66249999Y-29321429D02*
X66178571Y-29250000D01*
X66035713Y-29178571D01*
X65821428Y-29178571D01*
X65678571Y-29250000D01*
X65607142Y-29392857D01*
X65607142Y-30178571D01*
X64892856Y-29178571D02*
X64892856Y-30178571D01*
X64892856Y-29321429D02*
X64821428Y-29250000D01*
X64678570Y-29178571D01*
X64464285Y-29178571D01*
X64321428Y-29250000D01*
X64249999Y-29392857D01*
X64249999Y-30178571D01*
X62964285Y-30107143D02*
X63107142Y-30178571D01*
X63392856Y-30178571D01*
X63535713Y-30107143D01*
X63607142Y-29964286D01*
X63607142Y-29392857D01*
X63535713Y-29250000D01*
X63392856Y-29178571D01*
X63107142Y-29178571D01*
X62964285Y-29250000D01*
X62892856Y-29392857D01*
X62892856Y-29535714D01*
X63607142Y-29678571D01*
X61607142Y-30107143D02*
X61749999Y-30178571D01*
X62035713Y-30178571D01*
X62178571Y-30107143D01*
X62249999Y-30035714D01*
X62321428Y-29892857D01*
X62321428Y-29464286D01*
X62249999Y-29321429D01*
X62178571Y-29250000D01*
X62035713Y-29178571D01*
X61749999Y-29178571D01*
X61607142Y-29250000D01*
X61178571Y-29178571D02*
X60607142Y-29178571D01*
X60964285Y-28678571D02*
X60964285Y-29964286D01*
X60892857Y-30107143D01*
X60749999Y-30178571D01*
X60607142Y-30178571D01*
X59178571Y-29178571D02*
X58607142Y-29178571D01*
X58964285Y-28678571D02*
X58964285Y-29964286D01*
X58892857Y-30107143D01*
X58749999Y-30178571D01*
X58607142Y-30178571D01*
X57892856Y-30178571D02*
X58035714Y-30107143D01*
X58107142Y-30035714D01*
X58178571Y-29892857D01*
X58178571Y-29464286D01*
X58107142Y-29321429D01*
X58035714Y-29250000D01*
X57892856Y-29178571D01*
X57678571Y-29178571D01*
X57535714Y-29250000D01*
X57464285Y-29321429D01*
X57392856Y-29464286D01*
X57392856Y-29892857D01*
X57464285Y-30035714D01*
X57535714Y-30107143D01*
X57678571Y-30178571D01*
X57892856Y-30178571D01*
X54749999Y-30178571D02*
X55249999Y-29464286D01*
X55607142Y-30178571D02*
X55607142Y-28678571D01*
X55035714Y-28678571D01*
X54892856Y-28750000D01*
X54821428Y-28821429D01*
X54749999Y-28964286D01*
X54749999Y-29178571D01*
X54821428Y-29321429D01*
X54892856Y-29392857D01*
X55035714Y-29464286D01*
X55607142Y-29464286D01*
X53464285Y-30178571D02*
X53464285Y-29392857D01*
X53535714Y-29250000D01*
X53678571Y-29178571D01*
X53964285Y-29178571D01*
X54107142Y-29250000D01*
X53464285Y-30107143D02*
X53607142Y-30178571D01*
X53964285Y-30178571D01*
X54107142Y-30107143D01*
X54178571Y-29964286D01*
X54178571Y-29821429D01*
X54107142Y-29678571D01*
X53964285Y-29607143D01*
X53607142Y-29607143D01*
X53464285Y-29535714D01*
X52821428Y-30107143D02*
X52678571Y-30178571D01*
X52392856Y-30178571D01*
X52249999Y-30107143D01*
X52178571Y-29964286D01*
X52178571Y-29892857D01*
X52249999Y-29750000D01*
X52392856Y-29678571D01*
X52607142Y-29678571D01*
X52749999Y-29607143D01*
X52821428Y-29464286D01*
X52821428Y-29392857D01*
X52749999Y-29250000D01*
X52607142Y-29178571D01*
X52392856Y-29178571D01*
X52249999Y-29250000D01*
X51535713Y-29178571D02*
X51535713Y-30678571D01*
X51535713Y-29250000D02*
X51392856Y-29178571D01*
X51107142Y-29178571D01*
X50964285Y-29250000D01*
X50892856Y-29321429D01*
X50821427Y-29464286D01*
X50821427Y-29892857D01*
X50892856Y-30035714D01*
X50964285Y-30107143D01*
X51107142Y-30178571D01*
X51392856Y-30178571D01*
X51535713Y-30107143D01*
X50178570Y-30178571D02*
X50178570Y-28678571D01*
X50178570Y-29250000D02*
X50035713Y-29178571D01*
X49749999Y-29178571D01*
X49607142Y-29250000D01*
X49535713Y-29321429D01*
X49464284Y-29464286D01*
X49464284Y-29892857D01*
X49535713Y-30035714D01*
X49607142Y-30107143D01*
X49749999Y-30178571D01*
X50035713Y-30178571D01*
X50178570Y-30107143D01*
X48249999Y-30107143D02*
X48392856Y-30178571D01*
X48678570Y-30178571D01*
X48821427Y-30107143D01*
X48892856Y-29964286D01*
X48892856Y-29392857D01*
X48821427Y-29250000D01*
X48678570Y-29178571D01*
X48392856Y-29178571D01*
X48249999Y-29250000D01*
X48178570Y-29392857D01*
X48178570Y-29535714D01*
X48892856Y-29678571D01*
X47535713Y-30178571D02*
X47535713Y-29178571D01*
X47535713Y-29464286D02*
X47464285Y-29321429D01*
X47392856Y-29250000D01*
X47249999Y-29178571D01*
X47107142Y-29178571D01*
X46607142Y-30178571D02*
X46607142Y-29178571D01*
X46607142Y-29464286D02*
X46535714Y-29321429D01*
X46464285Y-29250000D01*
X46321428Y-29178571D01*
X46178571Y-29178571D01*
X45821428Y-29178571D02*
X45464285Y-30178571D01*
X45107143Y-29178571D02*
X45464285Y-30178571D01*
X45607143Y-30535714D01*
X45678571Y-30607143D01*
X45821428Y-30678571D01*
X43392857Y-30178571D02*
X43392857Y-28678571D01*
X42821429Y-28678571D01*
X42678571Y-28750000D01*
X42607143Y-28821429D01*
X42535714Y-28964286D01*
X42535714Y-29178571D01*
X42607143Y-29321429D01*
X42678571Y-29392857D01*
X42821429Y-29464286D01*
X43392857Y-29464286D01*
X41892857Y-30178571D02*
X41892857Y-29178571D01*
X41892857Y-28678571D02*
X41964286Y-28750000D01*
X41892857Y-28821429D01*
X41821429Y-28750000D01*
X41892857Y-28678571D01*
X41892857Y-28821429D01*
X40035714Y-30178571D02*
X40035714Y-28678571D01*
X39392857Y-30178571D02*
X39392857Y-29392857D01*
X39464286Y-29250000D01*
X39607143Y-29178571D01*
X39821428Y-29178571D01*
X39964286Y-29250000D01*
X40035714Y-29321429D01*
X38107143Y-30107143D02*
X38250000Y-30178571D01*
X38535714Y-30178571D01*
X38678571Y-30107143D01*
X38750000Y-29964286D01*
X38750000Y-29392857D01*
X38678571Y-29250000D01*
X38535714Y-29178571D01*
X38250000Y-29178571D01*
X38107143Y-29250000D01*
X38035714Y-29392857D01*
X38035714Y-29535714D01*
X38750000Y-29678571D01*
X37392857Y-30178571D02*
X37392857Y-29178571D01*
X37392857Y-29464286D02*
X37321429Y-29321429D01*
X37250000Y-29250000D01*
X37107143Y-29178571D01*
X36964286Y-29178571D01*
X35892858Y-30107143D02*
X36035715Y-30178571D01*
X36321429Y-30178571D01*
X36464286Y-30107143D01*
X36535715Y-29964286D01*
X36535715Y-29392857D01*
X36464286Y-29250000D01*
X36321429Y-29178571D01*
X36035715Y-29178571D01*
X35892858Y-29250000D01*
X35821429Y-29392857D01*
X35821429Y-29535714D01*
X36535715Y-29678571D01*
M02*
