G04 #@! TF.FileFunction,Copper,L2,Bot,Signal*
%FSLAX46Y46*%
G04 Gerber Fmt 4.6, Leading zero omitted, Abs format (unit mm)*
G04 Created by KiCad (PCBNEW 4.0.5) date 12/24/17 15:15:51*
%MOMM*%
%LPD*%
G01*
G04 APERTURE LIST*
%ADD10C,0.100000*%
%ADD11R,2.250000X6.000000*%
%ADD12R,2.050000X6.000000*%
%ADD13C,1.500000*%
%ADD14C,1.000000*%
%ADD15C,0.600000*%
%ADD16C,0.400000*%
G04 APERTURE END LIST*
D10*
D11*
X133633000Y-91146000D03*
X129670600Y-91146000D03*
X125708200Y-91146000D03*
X121745800Y-91146000D03*
X117783400Y-91146000D03*
X113821000Y-91146000D03*
X133633000Y-78654000D03*
D12*
X129870600Y-78654000D03*
X125508200Y-78654000D03*
D11*
X121745800Y-78654000D03*
X117783400Y-78654000D03*
X113821000Y-78654000D03*
D13*
X129670600Y-84836000D03*
X133633000Y-84836000D03*
X125708200Y-84836000D03*
X121745800Y-84836000D03*
X117783400Y-84836000D03*
X113821000Y-84836000D03*
D14*
X129670600Y-84836000D02*
X129670600Y-91146000D01*
X129670600Y-78654000D02*
X129670600Y-84836000D01*
X133633000Y-78654000D02*
X133633000Y-84836000D01*
X133633000Y-91146000D02*
X133633000Y-84836000D01*
D15*
X133600000Y-78687000D02*
X133633000Y-78654000D01*
D14*
X125708200Y-84836000D02*
X125708200Y-78654000D01*
X125708200Y-91146000D02*
X125708200Y-84836000D01*
D15*
X125700000Y-91137800D02*
X125708200Y-91146000D01*
D16*
X125700000Y-78662200D02*
X125708200Y-78654000D01*
D14*
X121745800Y-84836000D02*
X121745800Y-91146000D01*
X121745800Y-78654000D02*
X121745800Y-84836000D01*
X117783400Y-84836000D02*
X117783400Y-78654000D01*
X117783400Y-91146000D02*
X117783400Y-84836000D01*
D16*
X117800000Y-78670600D02*
X117783400Y-78654000D01*
D14*
X113821000Y-84836000D02*
X113821000Y-91146000D01*
X113821000Y-78654000D02*
X113821000Y-84836000D01*
M02*
