G04 #@! TF.FileFunction,Soldermask,Top*
%FSLAX46Y46*%
G04 Gerber Fmt 4.6, Leading zero omitted, Abs format (unit mm)*
G04 Created by KiCad (PCBNEW 4.0.5) date 11/08/17 13:58:34*
%MOMM*%
%LPD*%
G01*
G04 APERTURE LIST*
%ADD10C,0.100000*%
%ADD11R,1.650000X1.400000*%
%ADD12R,1.000000X1.900000*%
%ADD13R,1.797000X1.289000*%
%ADD14R,1.200100X1.200100*%
%ADD15R,1.700000X1.100000*%
%ADD16R,1.100000X1.700000*%
%ADD17R,1.441400X1.441400*%
%ADD18C,1.441400*%
%ADD19R,2.650000X5.400000*%
G04 APERTURE END LIST*
D10*
D11*
X177927000Y-55610000D03*
X177927000Y-53610000D03*
D12*
X187960000Y-52291000D03*
X186690000Y-52291000D03*
X185420000Y-52291000D03*
X184150000Y-52291000D03*
X182880000Y-52291000D03*
X181610000Y-52291000D03*
X180340000Y-52291000D03*
X180340000Y-57691000D03*
X181610000Y-57691000D03*
X182880000Y-57691000D03*
X184150000Y-57691000D03*
X185420000Y-57691000D03*
X186690000Y-57691000D03*
X187960000Y-57691000D03*
D13*
X190119000Y-55308500D03*
X190119000Y-57213500D03*
D11*
X182245000Y-49276000D03*
X182245000Y-47276000D03*
D14*
X186375000Y-49260760D03*
X188275000Y-49260760D03*
X187325000Y-47261780D03*
X193868000Y-49260760D03*
X195768000Y-49260760D03*
X194818000Y-47261780D03*
X190312000Y-49260760D03*
X192212000Y-49260760D03*
X191262000Y-47261780D03*
D15*
X184531000Y-47310000D03*
X184531000Y-49210000D03*
D16*
X193868000Y-51435000D03*
X195768000Y-51435000D03*
X192212000Y-51435000D03*
X190312000Y-51435000D03*
D14*
X178104760Y-49448760D03*
X180004760Y-49448760D03*
X179054760Y-47449780D03*
D17*
X175387000Y-57150000D03*
D18*
X175387000Y-55880000D03*
X175387000Y-54610000D03*
X175387000Y-53340000D03*
X175387000Y-52070000D03*
X175387000Y-50800000D03*
X175387000Y-48260000D03*
D19*
X175387000Y-42746000D03*
X179349400Y-42746000D03*
X183311800Y-42746000D03*
X187274200Y-42746000D03*
X191236600Y-42746000D03*
X195199000Y-42746000D03*
M02*
