G04 #@! TF.FileFunction,Copper,L1,Top,Signal*
%FSLAX46Y46*%
G04 Gerber Fmt 4.6, Leading zero omitted, Abs format (unit mm)*
G04 Created by KiCad (PCBNEW 4.0.5) date 11/08/17 13:58:34*
%MOMM*%
%LPD*%
G01*
G04 APERTURE LIST*
%ADD10C,0.100000*%
%ADD11C,0.203200*%
%ADD12R,1.250000X1.000000*%
%ADD13R,0.600000X1.500000*%
%ADD14R,1.397000X0.889000*%
%ADD15R,0.800100X0.800100*%
%ADD16R,1.300000X0.700000*%
%ADD17R,0.700000X1.300000*%
%ADD18R,1.041400X1.041400*%
%ADD19C,1.041400*%
%ADD20R,2.250000X5.000000*%
%ADD21C,0.762000*%
%ADD22C,0.304800*%
G04 APERTURE END LIST*
D10*
D11*
X176741668Y-57552167D02*
X177249668Y-57552167D01*
X176995668Y-58441167D02*
X176995668Y-57552167D01*
X177673001Y-58441167D02*
X177588334Y-58398833D01*
X177546001Y-58356500D01*
X177503667Y-58271833D01*
X177503667Y-58017833D01*
X177546001Y-57933167D01*
X177588334Y-57890833D01*
X177673001Y-57848500D01*
X177800001Y-57848500D01*
X177884667Y-57890833D01*
X177927001Y-57933167D01*
X177969334Y-58017833D01*
X177969334Y-58271833D01*
X177927001Y-58356500D01*
X177884667Y-58398833D01*
X177800001Y-58441167D01*
X177673001Y-58441167D01*
X178350334Y-57848500D02*
X178350334Y-58737500D01*
X178350334Y-57890833D02*
X178435000Y-57848500D01*
X178604334Y-57848500D01*
X178689000Y-57890833D01*
X178731334Y-57933167D01*
X178773667Y-58017833D01*
X178773667Y-58271833D01*
X178731334Y-58356500D01*
X178689000Y-58398833D01*
X178604334Y-58441167D01*
X178435000Y-58441167D01*
X178350334Y-58398833D01*
D12*
X177927000Y-55610000D03*
X177927000Y-53610000D03*
D13*
X187960000Y-52291000D03*
X186690000Y-52291000D03*
X185420000Y-52291000D03*
X184150000Y-52291000D03*
X182880000Y-52291000D03*
X181610000Y-52291000D03*
X180340000Y-52291000D03*
X180340000Y-57691000D03*
X181610000Y-57691000D03*
X182880000Y-57691000D03*
X184150000Y-57691000D03*
X185420000Y-57691000D03*
X186690000Y-57691000D03*
X187960000Y-57691000D03*
D14*
X190119000Y-55308500D03*
X190119000Y-57213500D03*
D12*
X182245000Y-49276000D03*
X182245000Y-47276000D03*
D15*
X186375000Y-49260760D03*
X188275000Y-49260760D03*
X187325000Y-47261780D03*
X193868000Y-49260760D03*
X195768000Y-49260760D03*
X194818000Y-47261780D03*
X190312000Y-49260760D03*
X192212000Y-49260760D03*
X191262000Y-47261780D03*
D16*
X184531000Y-47310000D03*
X184531000Y-49210000D03*
D17*
X193868000Y-51435000D03*
X195768000Y-51435000D03*
X192212000Y-51435000D03*
X190312000Y-51435000D03*
D15*
X178104760Y-49448760D03*
X180004760Y-49448760D03*
X179054760Y-47449780D03*
D18*
X175387000Y-57150000D03*
D19*
X175387000Y-55880000D03*
X175387000Y-54610000D03*
X175387000Y-53340000D03*
X175387000Y-52070000D03*
X175387000Y-50800000D03*
X175387000Y-48260000D03*
D20*
X175387000Y-42746000D03*
X179349400Y-42746000D03*
X183311800Y-42746000D03*
X187274200Y-42746000D03*
X191236600Y-42746000D03*
X195199000Y-42746000D03*
D21*
X188341000Y-54533802D03*
X186309000Y-50292000D03*
X178181000Y-56896000D03*
X178181010Y-50673000D03*
X175387000Y-45466000D03*
X183667420Y-56134000D03*
X188849000Y-47371000D03*
X187325000Y-45466000D03*
X181864000Y-50673000D03*
X184865976Y-55778420D03*
X195199000Y-45466000D03*
X191262000Y-45466000D03*
X179324000Y-45466000D03*
X183388000Y-45466000D03*
X187452000Y-55880000D03*
X185166000Y-50673000D03*
X186699317Y-53779631D03*
X185734268Y-53797385D03*
X182880000Y-53848004D03*
X184150000Y-50673000D03*
X181991000Y-56134000D03*
X190119000Y-53975000D03*
D11*
X181610000Y-57691000D02*
X181610000Y-57241000D01*
X181610000Y-57241000D02*
X181106800Y-56737800D01*
X181106800Y-56737800D02*
X181106800Y-55621200D01*
X181106800Y-55621200D02*
X182194195Y-54533805D01*
X182194195Y-54533805D02*
X187802182Y-54533805D01*
X187802182Y-54533805D02*
X187802185Y-54533802D01*
X187802185Y-54533802D02*
X188341000Y-54533802D01*
X186375000Y-50226000D02*
X186309000Y-50292000D01*
X186375000Y-49260760D02*
X186375000Y-50226000D01*
D22*
X177927000Y-56642000D02*
X178181000Y-56896000D01*
X177927000Y-55610000D02*
X177927000Y-56642000D01*
X178104760Y-50596750D02*
X178181010Y-50673000D01*
X178104760Y-49448760D02*
X178104760Y-50596750D01*
X175387000Y-45466000D02*
X175387000Y-42746000D01*
X175387000Y-55880000D02*
X177657000Y-55880000D01*
X177657000Y-55880000D02*
X177927000Y-55610000D01*
X181009000Y-48387000D02*
X178461670Y-48387000D01*
X178461670Y-48387000D02*
X178104760Y-48743910D01*
X178104760Y-48743910D02*
X178104760Y-49448760D01*
X181009000Y-48387000D02*
X182120000Y-47276000D01*
X182120000Y-47276000D02*
X182245000Y-47276000D01*
X184150000Y-56616580D02*
X183667420Y-56134000D01*
X184150000Y-57691000D02*
X184150000Y-56616580D01*
X188849000Y-47371000D02*
X188849000Y-48686760D01*
X188849000Y-48686760D02*
X188275000Y-49260760D01*
D11*
X187325000Y-45466000D02*
X187325000Y-42796800D01*
X187325000Y-42796800D02*
X187274200Y-42746000D01*
X187325000Y-45466000D02*
X187325000Y-47261780D01*
D22*
X182244999Y-50292001D02*
X181864000Y-50673000D01*
X182245000Y-49276000D02*
X182244999Y-50292001D01*
X179578000Y-50673000D02*
X181864000Y-50673000D01*
X178562000Y-51689000D02*
X179578000Y-50673000D01*
X177012381Y-51689000D02*
X178562000Y-51689000D01*
X176123381Y-50800000D02*
X177012381Y-51689000D01*
X175387000Y-50800000D02*
X176123381Y-50800000D01*
X180004760Y-49448760D02*
X182072240Y-49448760D01*
X182072240Y-49448760D02*
X182245000Y-49276000D01*
X187071000Y-48260000D02*
X183386000Y-48260000D01*
X183386000Y-48260000D02*
X182370000Y-49276000D01*
X182370000Y-49276000D02*
X182245000Y-49276000D01*
X190312000Y-50165000D02*
X187629851Y-50165000D01*
X187629851Y-50165000D02*
X187325000Y-49860149D01*
X187325000Y-49860149D02*
X187325000Y-48514000D01*
X187325000Y-48514000D02*
X187071000Y-48260000D01*
X190312000Y-49260760D02*
X190312000Y-50165000D01*
X190312000Y-50165000D02*
X190312000Y-51435000D01*
X193868000Y-49260760D02*
X193868000Y-48555910D01*
X193868000Y-48555910D02*
X193572090Y-48260000D01*
X193572090Y-48260000D02*
X190607910Y-48260000D01*
X190312000Y-48555910D02*
X190312000Y-49260760D01*
X190607910Y-48260000D02*
X190312000Y-48555910D01*
X193868000Y-51435000D02*
X193868000Y-49260760D01*
X185420000Y-56332444D02*
X184865976Y-55778420D01*
X185420000Y-57691000D02*
X185420000Y-56332444D01*
D11*
X195768000Y-52451000D02*
X195768000Y-51435000D01*
X192024000Y-52959000D02*
X195260000Y-52959000D01*
X195260000Y-52959000D02*
X195768000Y-52451000D01*
X191516000Y-53467000D02*
X192024000Y-52959000D01*
X191135000Y-58293000D02*
X191516000Y-57912000D01*
X191516000Y-57912000D02*
X191516000Y-53467000D01*
X187960000Y-57691000D02*
X188463200Y-57691000D01*
X188463200Y-57691000D02*
X189065200Y-58293000D01*
X189065200Y-58293000D02*
X191135000Y-58293000D01*
X195768000Y-49260760D02*
X195768000Y-51435000D01*
X195199000Y-45466000D02*
X195199000Y-42746000D01*
X194818000Y-45847000D02*
X194818000Y-47261780D01*
X195199000Y-45466000D02*
X194818000Y-45847000D01*
X192212000Y-51735000D02*
X192212000Y-51435000D01*
X191115000Y-52832000D02*
X192212000Y-51735000D01*
X189004200Y-52832000D02*
X191115000Y-52832000D01*
X187960000Y-52291000D02*
X188463200Y-52291000D01*
X188463200Y-52291000D02*
X189004200Y-52832000D01*
X192212000Y-51435000D02*
X192212000Y-49260760D01*
X191262000Y-45466000D02*
X191262000Y-42771400D01*
X191262000Y-42771400D02*
X191236600Y-42746000D01*
X191262000Y-45466000D02*
X191262000Y-47261780D01*
D22*
X179324000Y-45466000D02*
X179324000Y-42771400D01*
X179324000Y-42771400D02*
X179349400Y-42746000D01*
X175387000Y-48260000D02*
X176197220Y-47449780D01*
X176197220Y-47449780D02*
X179054760Y-47449780D01*
X179324000Y-46101000D02*
X179054760Y-46370240D01*
X179054760Y-46370240D02*
X179054760Y-47449780D01*
X179324000Y-45466000D02*
X179324000Y-46101000D01*
D11*
X175387000Y-53340000D02*
X177657000Y-53340000D01*
X177657000Y-53340000D02*
X177927000Y-53610000D01*
X177927000Y-53610000D02*
X181244200Y-53610000D01*
X181244200Y-53610000D02*
X181610000Y-53244200D01*
X181610000Y-53244200D02*
X181610000Y-52291000D01*
X183388000Y-45466000D02*
X183388000Y-42822200D01*
X183388000Y-42822200D02*
X183311800Y-42746000D01*
X183388000Y-45466000D02*
X184531000Y-46609000D01*
X184531000Y-46609000D02*
X184531000Y-47310000D01*
X176123381Y-52070000D02*
X175387000Y-52070000D01*
X176344381Y-52291000D02*
X180340000Y-52291000D01*
X176123381Y-52070000D02*
X176344381Y-52291000D01*
X178783522Y-54610000D02*
X175387000Y-54610000D01*
X180340000Y-56166478D02*
X178783522Y-54610000D01*
X180340000Y-57691000D02*
X180340000Y-56166478D01*
X186690000Y-56642000D02*
X187452000Y-55880000D01*
X186690000Y-57691000D02*
X186690000Y-56642000D01*
X184531000Y-50038000D02*
X185166000Y-50673000D01*
X184531000Y-49210000D02*
X184531000Y-50038000D01*
X186690000Y-53770314D02*
X186699317Y-53779631D01*
X186690000Y-52291000D02*
X186690000Y-53770314D01*
X185420000Y-53483117D02*
X185734268Y-53797385D01*
X185420000Y-52291000D02*
X185420000Y-53483117D01*
X184150000Y-53340000D02*
X184150000Y-52291000D01*
X183641996Y-53848004D02*
X184150000Y-53340000D01*
X182880000Y-53848004D02*
X183641996Y-53848004D01*
X184150000Y-50673000D02*
X183261000Y-50673000D01*
X183261000Y-50673000D02*
X182880000Y-51054000D01*
X182880000Y-51054000D02*
X182880000Y-52291000D01*
X182880000Y-56134000D02*
X181991000Y-56134000D01*
X182880000Y-56134000D02*
X182880000Y-57691000D01*
X182880000Y-55499000D02*
X182880000Y-56134000D01*
X190119000Y-57213500D02*
X189865000Y-57213500D01*
X189865000Y-57213500D02*
X187642500Y-54991000D01*
X187642500Y-54991000D02*
X183388000Y-54991000D01*
X183388000Y-54991000D02*
X182880000Y-55499000D01*
X190119000Y-55308500D02*
X190119000Y-53975000D01*
M02*
