M48
;DRILL file {KiCad 4.0.5} date 11/08/17 13:58:37
;FORMAT={-:-/ absolute / metric / decimal}
FMAT,2
METRIC,TZ
T1C0.381
T2C0.686
%
G90
G05
M71
T1
X175.387Y-45.466
X178.181Y-56.896
X178.181Y-50.673
X179.324Y-45.466
X181.864Y-50.673
X181.991Y-56.134
X182.88Y-53.848
X183.388Y-45.466
X183.667Y-56.134
X184.15Y-50.673
X184.866Y-55.778
X185.166Y-50.673
X185.734Y-53.797
X186.309Y-50.292
X186.699Y-53.78
X187.325Y-45.466
X187.452Y-55.88
X188.341Y-54.534
X188.849Y-47.371
X190.119Y-53.975
X191.262Y-45.466
X195.199Y-45.466
T2
X175.387Y-48.26
X175.387Y-50.8
X175.387Y-52.07
X175.387Y-53.34
X175.387Y-54.61
X175.387Y-55.88
X175.387Y-57.15
T0
M30
