G04 #@! TF.FileFunction,Legend,Top*
%FSLAX46Y46*%
G04 Gerber Fmt 4.6, Leading zero omitted, Abs format (unit mm)*
G04 Created by KiCad (PCBNEW 4.0.5) date 11/08/17 13:58:34*
%MOMM*%
%LPD*%
G01*
G04 APERTURE LIST*
%ADD10C,0.100000*%
%ADD11C,0.200000*%
%ADD12C,0.150000*%
%ADD13C,0.099060*%
%ADD14C,0.152400*%
%ADD15C,0.140000*%
%ADD16C,0.254000*%
G04 APERTURE END LIST*
D10*
D11*
X189103000Y-52197000D02*
G75*
G03X189103000Y-52197000I-127000J0D01*
G01*
D12*
X177077000Y-54110000D02*
X177077000Y-55110000D01*
X178777000Y-55110000D02*
X178777000Y-54110000D01*
X188600000Y-52916000D02*
X188485000Y-52916000D01*
X188600000Y-57066000D02*
X188485000Y-57066000D01*
X179700000Y-57066000D02*
X179815000Y-57066000D01*
X179700000Y-52916000D02*
X179815000Y-52916000D01*
X188600000Y-52916000D02*
X188600000Y-57066000D01*
X179700000Y-52916000D02*
X179700000Y-57066000D01*
X188485000Y-52916000D02*
X188485000Y-51541000D01*
X190881000Y-58039000D02*
X189357000Y-58039000D01*
D13*
X189357000Y-55753000D02*
X189357000Y-54737000D01*
X189357000Y-54737000D02*
X190881000Y-54737000D01*
X190881000Y-54737000D02*
X190881000Y-55753000D01*
X190881000Y-56769000D02*
X190881000Y-57785000D01*
X190881000Y-57785000D02*
X189357000Y-57785000D01*
X189357000Y-57785000D02*
X189357000Y-56769000D01*
D12*
X181395000Y-47776000D02*
X181395000Y-48776000D01*
X183095000Y-48776000D02*
X183095000Y-47776000D01*
X188624160Y-47609760D02*
X188575900Y-47609760D01*
X185825180Y-48310800D02*
X185825180Y-47609760D01*
X185825180Y-47609760D02*
X186074100Y-47609760D01*
X188624160Y-47609760D02*
X188824820Y-47609760D01*
X188824820Y-47609760D02*
X188824820Y-48310800D01*
X196117160Y-47609760D02*
X196068900Y-47609760D01*
X193318180Y-48310800D02*
X193318180Y-47609760D01*
X193318180Y-47609760D02*
X193567100Y-47609760D01*
X196117160Y-47609760D02*
X196317820Y-47609760D01*
X196317820Y-47609760D02*
X196317820Y-48310800D01*
X192561160Y-47609760D02*
X192512900Y-47609760D01*
X189762180Y-48310800D02*
X189762180Y-47609760D01*
X189762180Y-47609760D02*
X190011100Y-47609760D01*
X192561160Y-47609760D02*
X192761820Y-47609760D01*
X192761820Y-47609760D02*
X192761820Y-48310800D01*
X183656000Y-48860000D02*
X183656000Y-47660000D01*
X185406000Y-47660000D02*
X185406000Y-48860000D01*
X195418000Y-52310000D02*
X194218000Y-52310000D01*
X194218000Y-50560000D02*
X195418000Y-50560000D01*
X190662000Y-50560000D02*
X191862000Y-50560000D01*
X191862000Y-52310000D02*
X190662000Y-52310000D01*
X180353920Y-47797760D02*
X180305660Y-47797760D01*
X177554940Y-48498800D02*
X177554940Y-47797760D01*
X177554940Y-47797760D02*
X177803860Y-47797760D01*
X180353920Y-47797760D02*
X180554580Y-47797760D01*
X180554580Y-47797760D02*
X180554580Y-48498800D01*
X176403000Y-47244000D02*
X176403000Y-58166000D01*
X174371000Y-58166000D02*
X174371000Y-47244000D01*
X174371000Y-47244000D02*
X176403000Y-47244000D01*
X176403000Y-58166000D02*
X174371000Y-58166000D01*
D14*
X177435934Y-52559857D02*
X177404486Y-52591305D01*
X177310143Y-52622752D01*
X177247248Y-52622752D01*
X177152905Y-52591305D01*
X177090010Y-52528410D01*
X177058562Y-52465514D01*
X177027114Y-52339724D01*
X177027114Y-52245381D01*
X177058562Y-52119590D01*
X177090010Y-52056695D01*
X177152905Y-51993800D01*
X177247248Y-51962352D01*
X177310143Y-51962352D01*
X177404486Y-51993800D01*
X177435934Y-52025248D01*
X178001991Y-52182486D02*
X178001991Y-52622752D01*
X177844753Y-51930905D02*
X177687514Y-52402619D01*
X178096334Y-52402619D01*
X177498829Y-54885771D02*
X177150486Y-54885771D01*
X177324658Y-54885771D02*
X177324658Y-54276171D01*
X177266601Y-54363257D01*
X177208543Y-54421314D01*
X177150486Y-54450343D01*
X177876200Y-54276171D02*
X177934257Y-54276171D01*
X177992314Y-54305200D01*
X178021343Y-54334229D01*
X178050372Y-54392286D01*
X178079400Y-54508400D01*
X178079400Y-54653543D01*
X178050372Y-54769657D01*
X178021343Y-54827714D01*
X177992314Y-54856743D01*
X177934257Y-54885771D01*
X177876200Y-54885771D01*
X177818143Y-54856743D01*
X177789114Y-54827714D01*
X177760086Y-54769657D01*
X177731057Y-54653543D01*
X177731057Y-54508400D01*
X177760086Y-54392286D01*
X177789114Y-54334229D01*
X177818143Y-54305200D01*
X177876200Y-54276171D01*
X178456771Y-54276171D02*
X178514828Y-54276171D01*
X178572885Y-54305200D01*
X178601914Y-54334229D01*
X178630943Y-54392286D01*
X178659971Y-54508400D01*
X178659971Y-54653543D01*
X178630943Y-54769657D01*
X178601914Y-54827714D01*
X178572885Y-54856743D01*
X178514828Y-54885771D01*
X178456771Y-54885771D01*
X178398714Y-54856743D01*
X178369685Y-54827714D01*
X178340657Y-54769657D01*
X178311628Y-54653543D01*
X178311628Y-54508400D01*
X178340657Y-54392286D01*
X178369685Y-54334229D01*
X178398714Y-54305200D01*
X178456771Y-54276171D01*
X178921228Y-54479371D02*
X178921228Y-54885771D01*
X178921228Y-54537429D02*
X178950256Y-54508400D01*
X179008314Y-54479371D01*
X179095399Y-54479371D01*
X179153456Y-54508400D01*
X179182485Y-54566457D01*
X179182485Y-54885771D01*
X179709838Y-50438352D02*
X179709838Y-50972962D01*
X179741286Y-51035857D01*
X179772733Y-51067305D01*
X179835629Y-51098752D01*
X179961419Y-51098752D01*
X180024314Y-51067305D01*
X180055762Y-51035857D01*
X180087210Y-50972962D01*
X180087210Y-50438352D01*
X180370238Y-50501248D02*
X180401686Y-50469800D01*
X180464581Y-50438352D01*
X180621819Y-50438352D01*
X180684715Y-50469800D01*
X180716162Y-50501248D01*
X180747610Y-50564143D01*
X180747610Y-50627038D01*
X180716162Y-50721381D01*
X180338791Y-51098752D01*
X180747610Y-51098752D01*
D12*
X180102381Y-55157667D02*
X180578572Y-55157667D01*
X180007143Y-55443381D02*
X180340476Y-54443381D01*
X180673810Y-55443381D01*
X180864286Y-54443381D02*
X181435715Y-54443381D01*
X181150000Y-55443381D02*
X181150000Y-54443381D01*
X181721429Y-55395762D02*
X181864286Y-55443381D01*
X182102382Y-55443381D01*
X182197620Y-55395762D01*
X182245239Y-55348143D01*
X182292858Y-55252905D01*
X182292858Y-55157667D01*
X182245239Y-55062429D01*
X182197620Y-55014810D01*
X182102382Y-54967190D01*
X181911905Y-54919571D01*
X181816667Y-54871952D01*
X181769048Y-54824333D01*
X181721429Y-54729095D01*
X181721429Y-54633857D01*
X181769048Y-54538619D01*
X181816667Y-54491000D01*
X181911905Y-54443381D01*
X182150001Y-54443381D01*
X182292858Y-54491000D01*
X182673810Y-55157667D02*
X183150001Y-55157667D01*
X182578572Y-55443381D02*
X182911905Y-54443381D01*
X183245239Y-55443381D01*
X183578572Y-55443381D02*
X183578572Y-54443381D01*
X183911906Y-55157667D01*
X184245239Y-54443381D01*
X184245239Y-55443381D01*
X184721429Y-55443381D02*
X184721429Y-54443381D01*
X184959524Y-54443381D01*
X185102382Y-54491000D01*
X185197620Y-54586238D01*
X185245239Y-54681476D01*
X185292858Y-54871952D01*
X185292858Y-55014810D01*
X185245239Y-55205286D01*
X185197620Y-55300524D01*
X185102382Y-55395762D01*
X184959524Y-55443381D01*
X184721429Y-55443381D01*
X185911905Y-54443381D02*
X186007144Y-54443381D01*
X186102382Y-54491000D01*
X186150001Y-54538619D01*
X186197620Y-54633857D01*
X186245239Y-54824333D01*
X186245239Y-55062429D01*
X186197620Y-55252905D01*
X186150001Y-55348143D01*
X186102382Y-55395762D01*
X186007144Y-55443381D01*
X185911905Y-55443381D01*
X185816667Y-55395762D01*
X185769048Y-55348143D01*
X185721429Y-55252905D01*
X185673810Y-55062429D01*
X185673810Y-54824333D01*
X185721429Y-54633857D01*
X185769048Y-54538619D01*
X185816667Y-54491000D01*
X185911905Y-54443381D01*
X186721429Y-55443381D02*
X186911905Y-55443381D01*
X187007144Y-55395762D01*
X187054763Y-55348143D01*
X187150001Y-55205286D01*
X187197620Y-55014810D01*
X187197620Y-54633857D01*
X187150001Y-54538619D01*
X187102382Y-54491000D01*
X187007144Y-54443381D01*
X186816667Y-54443381D01*
X186721429Y-54491000D01*
X186673810Y-54538619D01*
X186626191Y-54633857D01*
X186626191Y-54871952D01*
X186673810Y-54967190D01*
X186721429Y-55014810D01*
X186816667Y-55062429D01*
X187007144Y-55062429D01*
X187102382Y-55014810D01*
X187150001Y-54967190D01*
X187197620Y-54871952D01*
X188197620Y-55348143D02*
X188150001Y-55395762D01*
X188007144Y-55443381D01*
X187911906Y-55443381D01*
X187769048Y-55395762D01*
X187673810Y-55300524D01*
X187626191Y-55205286D01*
X187578572Y-55014810D01*
X187578572Y-54871952D01*
X187626191Y-54681476D01*
X187673810Y-54586238D01*
X187769048Y-54491000D01*
X187911906Y-54443381D01*
X188007144Y-54443381D01*
X188150001Y-54491000D01*
X188197620Y-54538619D01*
D14*
X189377562Y-54527752D02*
X189377562Y-53867352D01*
X189534800Y-53867352D01*
X189629143Y-53898800D01*
X189692038Y-53961695D01*
X189723486Y-54024590D01*
X189754934Y-54150381D01*
X189754934Y-54244724D01*
X189723486Y-54370514D01*
X189692038Y-54433410D01*
X189629143Y-54496305D01*
X189534800Y-54527752D01*
X189377562Y-54527752D01*
X190383886Y-54527752D02*
X190006514Y-54527752D01*
X190195200Y-54527752D02*
X190195200Y-53867352D01*
X190132305Y-53961695D01*
X190069410Y-54024590D01*
X190006514Y-54056038D01*
X189727115Y-56536771D02*
X189436829Y-56536771D01*
X189436829Y-55927171D01*
X189930315Y-56217457D02*
X190133515Y-56217457D01*
X190220601Y-56536771D02*
X189930315Y-56536771D01*
X189930315Y-55927171D01*
X190220601Y-55927171D01*
X190481858Y-56536771D02*
X190481858Y-55927171D01*
X190627001Y-55927171D01*
X190714086Y-55956200D01*
X190772144Y-56014257D01*
X190801172Y-56072314D01*
X190830201Y-56188429D01*
X190830201Y-56275514D01*
X190801172Y-56391629D01*
X190772144Y-56449686D01*
X190714086Y-56507743D01*
X190627001Y-56536771D01*
X190481858Y-56536771D01*
X181753934Y-46209857D02*
X181722486Y-46241305D01*
X181628143Y-46272752D01*
X181565248Y-46272752D01*
X181470905Y-46241305D01*
X181408010Y-46178410D01*
X181376562Y-46115514D01*
X181345114Y-45989724D01*
X181345114Y-45895381D01*
X181376562Y-45769590D01*
X181408010Y-45706695D01*
X181470905Y-45643800D01*
X181565248Y-45612352D01*
X181628143Y-45612352D01*
X181722486Y-45643800D01*
X181753934Y-45675248D01*
X182005514Y-45675248D02*
X182036962Y-45643800D01*
X182099857Y-45612352D01*
X182257095Y-45612352D01*
X182319991Y-45643800D01*
X182351438Y-45675248D01*
X182382886Y-45738143D01*
X182382886Y-45801038D01*
X182351438Y-45895381D01*
X181974067Y-46272752D01*
X182382886Y-46272752D01*
X181915143Y-48533771D02*
X181566800Y-48533771D01*
X181740972Y-48533771D02*
X181740972Y-47924171D01*
X181682915Y-48011257D01*
X181624857Y-48069314D01*
X181566800Y-48098343D01*
X182437657Y-48127371D02*
X182437657Y-48533771D01*
X182176400Y-48127371D02*
X182176400Y-48446686D01*
X182205428Y-48504743D01*
X182263486Y-48533771D01*
X182350571Y-48533771D01*
X182408628Y-48504743D01*
X182437657Y-48475714D01*
X182931143Y-48214457D02*
X182727943Y-48214457D01*
X182727943Y-48533771D02*
X182727943Y-47924171D01*
X183018229Y-47924171D01*
X186246105Y-46462648D02*
X186183210Y-46431200D01*
X186120314Y-46368305D01*
X186025971Y-46273962D01*
X185963076Y-46242514D01*
X185900181Y-46242514D01*
X185931629Y-46399752D02*
X185868733Y-46368305D01*
X185805838Y-46305410D01*
X185774390Y-46179619D01*
X185774390Y-45959486D01*
X185805838Y-45833695D01*
X185868733Y-45770800D01*
X185931629Y-45739352D01*
X186057419Y-45739352D01*
X186120314Y-45770800D01*
X186183210Y-45833695D01*
X186214657Y-45959486D01*
X186214657Y-46179619D01*
X186183210Y-46305410D01*
X186120314Y-46368305D01*
X186057419Y-46399752D01*
X185931629Y-46399752D01*
X186843610Y-46399752D02*
X186466238Y-46399752D01*
X186654924Y-46399752D02*
X186654924Y-45739352D01*
X186592029Y-45833695D01*
X186529134Y-45896590D01*
X186466238Y-45928038D01*
X186171116Y-48206457D02*
X186258202Y-48235486D01*
X186287230Y-48264514D01*
X186316259Y-48322571D01*
X186316259Y-48409657D01*
X186287230Y-48467714D01*
X186258202Y-48496743D01*
X186200144Y-48525771D01*
X185967916Y-48525771D01*
X185967916Y-47916171D01*
X186171116Y-47916171D01*
X186229173Y-47945200D01*
X186258202Y-47974229D01*
X186287230Y-48032286D01*
X186287230Y-48090343D01*
X186258202Y-48148400D01*
X186229173Y-48177429D01*
X186171116Y-48206457D01*
X185967916Y-48206457D01*
X186548487Y-48496743D02*
X186635573Y-48525771D01*
X186780716Y-48525771D01*
X186838773Y-48496743D01*
X186867802Y-48467714D01*
X186896830Y-48409657D01*
X186896830Y-48351600D01*
X186867802Y-48293543D01*
X186838773Y-48264514D01*
X186780716Y-48235486D01*
X186664602Y-48206457D01*
X186606544Y-48177429D01*
X186577516Y-48148400D01*
X186548487Y-48090343D01*
X186548487Y-48032286D01*
X186577516Y-47974229D01*
X186606544Y-47945200D01*
X186664602Y-47916171D01*
X186809744Y-47916171D01*
X186896830Y-47945200D01*
X187129058Y-48496743D02*
X187216144Y-48525771D01*
X187361287Y-48525771D01*
X187419344Y-48496743D01*
X187448373Y-48467714D01*
X187477401Y-48409657D01*
X187477401Y-48351600D01*
X187448373Y-48293543D01*
X187419344Y-48264514D01*
X187361287Y-48235486D01*
X187245173Y-48206457D01*
X187187115Y-48177429D01*
X187158087Y-48148400D01*
X187129058Y-48090343D01*
X187129058Y-48032286D01*
X187158087Y-47974229D01*
X187187115Y-47945200D01*
X187245173Y-47916171D01*
X187390315Y-47916171D01*
X187477401Y-47945200D01*
X188057972Y-48525771D02*
X187709629Y-48525771D01*
X187883801Y-48525771D02*
X187883801Y-47916171D01*
X187825744Y-48003257D01*
X187767686Y-48061314D01*
X187709629Y-48090343D01*
X188261172Y-47916171D02*
X188638543Y-47916171D01*
X188435343Y-48148400D01*
X188522429Y-48148400D01*
X188580486Y-48177429D01*
X188609515Y-48206457D01*
X188638543Y-48264514D01*
X188638543Y-48409657D01*
X188609515Y-48467714D01*
X188580486Y-48496743D01*
X188522429Y-48525771D01*
X188348257Y-48525771D01*
X188290200Y-48496743D01*
X188261172Y-48467714D01*
X188986886Y-48177429D02*
X188928828Y-48148400D01*
X188899800Y-48119371D01*
X188870771Y-48061314D01*
X188870771Y-48032286D01*
X188899800Y-47974229D01*
X188928828Y-47945200D01*
X188986886Y-47916171D01*
X189103000Y-47916171D01*
X189161057Y-47945200D01*
X189190086Y-47974229D01*
X189219114Y-48032286D01*
X189219114Y-48061314D01*
X189190086Y-48119371D01*
X189161057Y-48148400D01*
X189103000Y-48177429D01*
X188986886Y-48177429D01*
X188928828Y-48206457D01*
X188899800Y-48235486D01*
X188870771Y-48293543D01*
X188870771Y-48409657D01*
X188899800Y-48467714D01*
X188928828Y-48496743D01*
X188986886Y-48525771D01*
X189103000Y-48525771D01*
X189161057Y-48496743D01*
X189190086Y-48467714D01*
X189219114Y-48409657D01*
X189219114Y-48293543D01*
X189190086Y-48235486D01*
X189161057Y-48206457D01*
X189103000Y-48177429D01*
X193739105Y-46462648D02*
X193676210Y-46431200D01*
X193613314Y-46368305D01*
X193518971Y-46273962D01*
X193456076Y-46242514D01*
X193393181Y-46242514D01*
X193424629Y-46399752D02*
X193361733Y-46368305D01*
X193298838Y-46305410D01*
X193267390Y-46179619D01*
X193267390Y-45959486D01*
X193298838Y-45833695D01*
X193361733Y-45770800D01*
X193424629Y-45739352D01*
X193550419Y-45739352D01*
X193613314Y-45770800D01*
X193676210Y-45833695D01*
X193707657Y-45959486D01*
X193707657Y-46179619D01*
X193676210Y-46305410D01*
X193613314Y-46368305D01*
X193550419Y-46399752D01*
X193424629Y-46399752D01*
X193959238Y-45802248D02*
X193990686Y-45770800D01*
X194053581Y-45739352D01*
X194210819Y-45739352D01*
X194273715Y-45770800D01*
X194305162Y-45802248D01*
X194336610Y-45865143D01*
X194336610Y-45928038D01*
X194305162Y-46022381D01*
X193927791Y-46399752D01*
X194336610Y-46399752D01*
X193664116Y-48206457D02*
X193751202Y-48235486D01*
X193780230Y-48264514D01*
X193809259Y-48322571D01*
X193809259Y-48409657D01*
X193780230Y-48467714D01*
X193751202Y-48496743D01*
X193693144Y-48525771D01*
X193460916Y-48525771D01*
X193460916Y-47916171D01*
X193664116Y-47916171D01*
X193722173Y-47945200D01*
X193751202Y-47974229D01*
X193780230Y-48032286D01*
X193780230Y-48090343D01*
X193751202Y-48148400D01*
X193722173Y-48177429D01*
X193664116Y-48206457D01*
X193460916Y-48206457D01*
X194041487Y-48496743D02*
X194128573Y-48525771D01*
X194273716Y-48525771D01*
X194331773Y-48496743D01*
X194360802Y-48467714D01*
X194389830Y-48409657D01*
X194389830Y-48351600D01*
X194360802Y-48293543D01*
X194331773Y-48264514D01*
X194273716Y-48235486D01*
X194157602Y-48206457D01*
X194099544Y-48177429D01*
X194070516Y-48148400D01*
X194041487Y-48090343D01*
X194041487Y-48032286D01*
X194070516Y-47974229D01*
X194099544Y-47945200D01*
X194157602Y-47916171D01*
X194302744Y-47916171D01*
X194389830Y-47945200D01*
X194622058Y-48496743D02*
X194709144Y-48525771D01*
X194854287Y-48525771D01*
X194912344Y-48496743D01*
X194941373Y-48467714D01*
X194970401Y-48409657D01*
X194970401Y-48351600D01*
X194941373Y-48293543D01*
X194912344Y-48264514D01*
X194854287Y-48235486D01*
X194738173Y-48206457D01*
X194680115Y-48177429D01*
X194651087Y-48148400D01*
X194622058Y-48090343D01*
X194622058Y-48032286D01*
X194651087Y-47974229D01*
X194680115Y-47945200D01*
X194738173Y-47916171D01*
X194883315Y-47916171D01*
X194970401Y-47945200D01*
X195550972Y-48525771D02*
X195202629Y-48525771D01*
X195376801Y-48525771D02*
X195376801Y-47916171D01*
X195318744Y-48003257D01*
X195260686Y-48061314D01*
X195202629Y-48090343D01*
X195754172Y-47916171D02*
X196131543Y-47916171D01*
X195928343Y-48148400D01*
X196015429Y-48148400D01*
X196073486Y-48177429D01*
X196102515Y-48206457D01*
X196131543Y-48264514D01*
X196131543Y-48409657D01*
X196102515Y-48467714D01*
X196073486Y-48496743D01*
X196015429Y-48525771D01*
X195841257Y-48525771D01*
X195783200Y-48496743D01*
X195754172Y-48467714D01*
X196479886Y-48177429D02*
X196421828Y-48148400D01*
X196392800Y-48119371D01*
X196363771Y-48061314D01*
X196363771Y-48032286D01*
X196392800Y-47974229D01*
X196421828Y-47945200D01*
X196479886Y-47916171D01*
X196596000Y-47916171D01*
X196654057Y-47945200D01*
X196683086Y-47974229D01*
X196712114Y-48032286D01*
X196712114Y-48061314D01*
X196683086Y-48119371D01*
X196654057Y-48148400D01*
X196596000Y-48177429D01*
X196479886Y-48177429D01*
X196421828Y-48206457D01*
X196392800Y-48235486D01*
X196363771Y-48293543D01*
X196363771Y-48409657D01*
X196392800Y-48467714D01*
X196421828Y-48496743D01*
X196479886Y-48525771D01*
X196596000Y-48525771D01*
X196654057Y-48496743D01*
X196683086Y-48467714D01*
X196712114Y-48409657D01*
X196712114Y-48293543D01*
X196683086Y-48235486D01*
X196654057Y-48206457D01*
X196596000Y-48177429D01*
X190183105Y-46462648D02*
X190120210Y-46431200D01*
X190057314Y-46368305D01*
X189962971Y-46273962D01*
X189900076Y-46242514D01*
X189837181Y-46242514D01*
X189868629Y-46399752D02*
X189805733Y-46368305D01*
X189742838Y-46305410D01*
X189711390Y-46179619D01*
X189711390Y-45959486D01*
X189742838Y-45833695D01*
X189805733Y-45770800D01*
X189868629Y-45739352D01*
X189994419Y-45739352D01*
X190057314Y-45770800D01*
X190120210Y-45833695D01*
X190151657Y-45959486D01*
X190151657Y-46179619D01*
X190120210Y-46305410D01*
X190057314Y-46368305D01*
X189994419Y-46399752D01*
X189868629Y-46399752D01*
X190371791Y-45739352D02*
X190780610Y-45739352D01*
X190560477Y-45990933D01*
X190654819Y-45990933D01*
X190717715Y-46022381D01*
X190749162Y-46053829D01*
X190780610Y-46116724D01*
X190780610Y-46273962D01*
X190749162Y-46336857D01*
X190717715Y-46368305D01*
X190654819Y-46399752D01*
X190466134Y-46399752D01*
X190403238Y-46368305D01*
X190371791Y-46336857D01*
X190108116Y-48206457D02*
X190195202Y-48235486D01*
X190224230Y-48264514D01*
X190253259Y-48322571D01*
X190253259Y-48409657D01*
X190224230Y-48467714D01*
X190195202Y-48496743D01*
X190137144Y-48525771D01*
X189904916Y-48525771D01*
X189904916Y-47916171D01*
X190108116Y-47916171D01*
X190166173Y-47945200D01*
X190195202Y-47974229D01*
X190224230Y-48032286D01*
X190224230Y-48090343D01*
X190195202Y-48148400D01*
X190166173Y-48177429D01*
X190108116Y-48206457D01*
X189904916Y-48206457D01*
X190485487Y-48496743D02*
X190572573Y-48525771D01*
X190717716Y-48525771D01*
X190775773Y-48496743D01*
X190804802Y-48467714D01*
X190833830Y-48409657D01*
X190833830Y-48351600D01*
X190804802Y-48293543D01*
X190775773Y-48264514D01*
X190717716Y-48235486D01*
X190601602Y-48206457D01*
X190543544Y-48177429D01*
X190514516Y-48148400D01*
X190485487Y-48090343D01*
X190485487Y-48032286D01*
X190514516Y-47974229D01*
X190543544Y-47945200D01*
X190601602Y-47916171D01*
X190746744Y-47916171D01*
X190833830Y-47945200D01*
X191066058Y-48496743D02*
X191153144Y-48525771D01*
X191298287Y-48525771D01*
X191356344Y-48496743D01*
X191385373Y-48467714D01*
X191414401Y-48409657D01*
X191414401Y-48351600D01*
X191385373Y-48293543D01*
X191356344Y-48264514D01*
X191298287Y-48235486D01*
X191182173Y-48206457D01*
X191124115Y-48177429D01*
X191095087Y-48148400D01*
X191066058Y-48090343D01*
X191066058Y-48032286D01*
X191095087Y-47974229D01*
X191124115Y-47945200D01*
X191182173Y-47916171D01*
X191327315Y-47916171D01*
X191414401Y-47945200D01*
X191994972Y-48525771D02*
X191646629Y-48525771D01*
X191820801Y-48525771D02*
X191820801Y-47916171D01*
X191762744Y-48003257D01*
X191704686Y-48061314D01*
X191646629Y-48090343D01*
X192198172Y-47916171D02*
X192575543Y-47916171D01*
X192372343Y-48148400D01*
X192459429Y-48148400D01*
X192517486Y-48177429D01*
X192546515Y-48206457D01*
X192575543Y-48264514D01*
X192575543Y-48409657D01*
X192546515Y-48467714D01*
X192517486Y-48496743D01*
X192459429Y-48525771D01*
X192285257Y-48525771D01*
X192227200Y-48496743D01*
X192198172Y-48467714D01*
X192923886Y-48177429D02*
X192865828Y-48148400D01*
X192836800Y-48119371D01*
X192807771Y-48061314D01*
X192807771Y-48032286D01*
X192836800Y-47974229D01*
X192865828Y-47945200D01*
X192923886Y-47916171D01*
X193040000Y-47916171D01*
X193098057Y-47945200D01*
X193127086Y-47974229D01*
X193156114Y-48032286D01*
X193156114Y-48061314D01*
X193127086Y-48119371D01*
X193098057Y-48148400D01*
X193040000Y-48177429D01*
X192923886Y-48177429D01*
X192865828Y-48206457D01*
X192836800Y-48235486D01*
X192807771Y-48293543D01*
X192807771Y-48409657D01*
X192836800Y-48467714D01*
X192865828Y-48496743D01*
X192923886Y-48525771D01*
X193040000Y-48525771D01*
X193098057Y-48496743D01*
X193127086Y-48467714D01*
X193156114Y-48409657D01*
X193156114Y-48293543D01*
X193127086Y-48235486D01*
X193098057Y-48206457D01*
X193040000Y-48177429D01*
X184039934Y-46526752D02*
X183819800Y-46212276D01*
X183662562Y-46526752D02*
X183662562Y-45866352D01*
X183914143Y-45866352D01*
X183977038Y-45897800D01*
X184008486Y-45929248D01*
X184039934Y-45992143D01*
X184039934Y-46086486D01*
X184008486Y-46149381D01*
X183977038Y-46180829D01*
X183914143Y-46212276D01*
X183662562Y-46212276D01*
X184668886Y-46526752D02*
X184291514Y-46526752D01*
X184480200Y-46526752D02*
X184480200Y-45866352D01*
X184417305Y-45960695D01*
X184354410Y-46023590D01*
X184291514Y-46055038D01*
X184066544Y-47926171D02*
X183950430Y-47926171D01*
X183892373Y-47955200D01*
X183863344Y-47984229D01*
X183805287Y-48071314D01*
X183776258Y-48187429D01*
X183776258Y-48419657D01*
X183805287Y-48477714D01*
X183834315Y-48506743D01*
X183892373Y-48535771D01*
X184008487Y-48535771D01*
X184066544Y-48506743D01*
X184095573Y-48477714D01*
X184124601Y-48419657D01*
X184124601Y-48274514D01*
X184095573Y-48216457D01*
X184066544Y-48187429D01*
X184008487Y-48158400D01*
X183892373Y-48158400D01*
X183834315Y-48187429D01*
X183805287Y-48216457D01*
X183776258Y-48274514D01*
X184472944Y-48187429D02*
X184414886Y-48158400D01*
X184385858Y-48129371D01*
X184356829Y-48071314D01*
X184356829Y-48042286D01*
X184385858Y-47984229D01*
X184414886Y-47955200D01*
X184472944Y-47926171D01*
X184589058Y-47926171D01*
X184647115Y-47955200D01*
X184676144Y-47984229D01*
X184705172Y-48042286D01*
X184705172Y-48071314D01*
X184676144Y-48129371D01*
X184647115Y-48158400D01*
X184589058Y-48187429D01*
X184472944Y-48187429D01*
X184414886Y-48216457D01*
X184385858Y-48245486D01*
X184356829Y-48303543D01*
X184356829Y-48419657D01*
X184385858Y-48477714D01*
X184414886Y-48506743D01*
X184472944Y-48535771D01*
X184589058Y-48535771D01*
X184647115Y-48506743D01*
X184676144Y-48477714D01*
X184705172Y-48419657D01*
X184705172Y-48303543D01*
X184676144Y-48245486D01*
X184647115Y-48216457D01*
X184589058Y-48187429D01*
X185082543Y-47926171D02*
X185140600Y-47926171D01*
X185198657Y-47955200D01*
X185227686Y-47984229D01*
X185256715Y-48042286D01*
X185285743Y-48158400D01*
X185285743Y-48303543D01*
X185256715Y-48419657D01*
X185227686Y-48477714D01*
X185198657Y-48506743D01*
X185140600Y-48535771D01*
X185082543Y-48535771D01*
X185024486Y-48506743D01*
X184995457Y-48477714D01*
X184966429Y-48419657D01*
X184937400Y-48303543D01*
X184937400Y-48158400D01*
X184966429Y-48042286D01*
X184995457Y-47984229D01*
X185024486Y-47955200D01*
X185082543Y-47926171D01*
D15*
X196115000Y-52976429D02*
X195915000Y-52690714D01*
X195772143Y-52976429D02*
X195772143Y-52376429D01*
X196000715Y-52376429D01*
X196057857Y-52405000D01*
X196086429Y-52433571D01*
X196115000Y-52490714D01*
X196115000Y-52576429D01*
X196086429Y-52633571D01*
X196057857Y-52662143D01*
X196000715Y-52690714D01*
X195772143Y-52690714D01*
X196657857Y-52376429D02*
X196372143Y-52376429D01*
X196343572Y-52662143D01*
X196372143Y-52633571D01*
X196429286Y-52605000D01*
X196572143Y-52605000D01*
X196629286Y-52633571D01*
X196657857Y-52662143D01*
X196686429Y-52719286D01*
X196686429Y-52862143D01*
X196657857Y-52919286D01*
X196629286Y-52947857D01*
X196572143Y-52976429D01*
X196429286Y-52976429D01*
X196372143Y-52947857D01*
X196343572Y-52919286D01*
D14*
X194484171Y-52066371D02*
X194484171Y-51689000D01*
X194716400Y-51892200D01*
X194716400Y-51805114D01*
X194745429Y-51747057D01*
X194774457Y-51718028D01*
X194832514Y-51689000D01*
X194977657Y-51689000D01*
X195035714Y-51718028D01*
X195064743Y-51747057D01*
X195093771Y-51805114D01*
X195093771Y-51979286D01*
X195064743Y-52037343D01*
X195035714Y-52066371D01*
X195035714Y-51427743D02*
X195064743Y-51398715D01*
X195093771Y-51427743D01*
X195064743Y-51456772D01*
X195035714Y-51427743D01*
X195093771Y-51427743D01*
X194484171Y-51195514D02*
X194484171Y-50818143D01*
X194716400Y-51021343D01*
X194716400Y-50934257D01*
X194745429Y-50876200D01*
X194774457Y-50847171D01*
X194832514Y-50818143D01*
X194977657Y-50818143D01*
X195035714Y-50847171D01*
X195064743Y-50876200D01*
X195093771Y-50934257D01*
X195093771Y-51108429D01*
X195064743Y-51166486D01*
X195035714Y-51195514D01*
X195093771Y-50556886D02*
X194484171Y-50556886D01*
X194861543Y-50498829D02*
X195093771Y-50324658D01*
X194687371Y-50324658D02*
X194919600Y-50556886D01*
X189528752Y-51164066D02*
X189214276Y-51384200D01*
X189528752Y-51541438D02*
X188868352Y-51541438D01*
X188868352Y-51289857D01*
X188899800Y-51226962D01*
X188931248Y-51195514D01*
X188994143Y-51164066D01*
X189088486Y-51164066D01*
X189151381Y-51195514D01*
X189182829Y-51226962D01*
X189214276Y-51289857D01*
X189214276Y-51541438D01*
X188868352Y-50943933D02*
X188868352Y-50503666D01*
X189528752Y-50786695D01*
X190928171Y-52066371D02*
X190928171Y-51689000D01*
X191160400Y-51892200D01*
X191160400Y-51805114D01*
X191189429Y-51747057D01*
X191218457Y-51718028D01*
X191276514Y-51689000D01*
X191421657Y-51689000D01*
X191479714Y-51718028D01*
X191508743Y-51747057D01*
X191537771Y-51805114D01*
X191537771Y-51979286D01*
X191508743Y-52037343D01*
X191479714Y-52066371D01*
X191479714Y-51427743D02*
X191508743Y-51398715D01*
X191537771Y-51427743D01*
X191508743Y-51456772D01*
X191479714Y-51427743D01*
X191537771Y-51427743D01*
X190928171Y-51195514D02*
X190928171Y-50818143D01*
X191160400Y-51021343D01*
X191160400Y-50934257D01*
X191189429Y-50876200D01*
X191218457Y-50847171D01*
X191276514Y-50818143D01*
X191421657Y-50818143D01*
X191479714Y-50847171D01*
X191508743Y-50876200D01*
X191537771Y-50934257D01*
X191537771Y-51108429D01*
X191508743Y-51166486D01*
X191479714Y-51195514D01*
X191537771Y-50556886D02*
X190928171Y-50556886D01*
X191305543Y-50498829D02*
X191537771Y-50324658D01*
X191131371Y-50324658D02*
X191363600Y-50556886D01*
X177423838Y-45993352D02*
X177423838Y-46527962D01*
X177455286Y-46590857D01*
X177486733Y-46622305D01*
X177549629Y-46653752D01*
X177675419Y-46653752D01*
X177738314Y-46622305D01*
X177769762Y-46590857D01*
X177801210Y-46527962D01*
X177801210Y-45993352D01*
X178461610Y-46653752D02*
X178084238Y-46653752D01*
X178272924Y-46653752D02*
X178272924Y-45993352D01*
X178210029Y-46087695D01*
X178147134Y-46150590D01*
X178084238Y-46182038D01*
X177012601Y-48549600D02*
X177302887Y-48549600D01*
X176954544Y-48723771D02*
X177157744Y-48114171D01*
X177360944Y-48723771D01*
X177564144Y-48723771D02*
X177564144Y-48114171D01*
X177796372Y-48114171D01*
X177854430Y-48143200D01*
X177883458Y-48172229D01*
X177912487Y-48230286D01*
X177912487Y-48317371D01*
X177883458Y-48375429D01*
X177854430Y-48404457D01*
X177796372Y-48433486D01*
X177564144Y-48433486D01*
X178144715Y-48172229D02*
X178173744Y-48143200D01*
X178231801Y-48114171D01*
X178376944Y-48114171D01*
X178435001Y-48143200D01*
X178464030Y-48172229D01*
X178493058Y-48230286D01*
X178493058Y-48288343D01*
X178464030Y-48375429D01*
X178115687Y-48723771D01*
X178493058Y-48723771D01*
X179073629Y-48723771D02*
X178725286Y-48723771D01*
X178899458Y-48723771D02*
X178899458Y-48114171D01*
X178841401Y-48201257D01*
X178783343Y-48259314D01*
X178725286Y-48288343D01*
X179305857Y-48172229D02*
X179334886Y-48143200D01*
X179392943Y-48114171D01*
X179538086Y-48114171D01*
X179596143Y-48143200D01*
X179625172Y-48172229D01*
X179654200Y-48230286D01*
X179654200Y-48288343D01*
X179625172Y-48375429D01*
X179276829Y-48723771D01*
X179654200Y-48723771D01*
X180031571Y-48114171D02*
X180089628Y-48114171D01*
X180147685Y-48143200D01*
X180176714Y-48172229D01*
X180205743Y-48230286D01*
X180234771Y-48346400D01*
X180234771Y-48491543D01*
X180205743Y-48607657D01*
X180176714Y-48665714D01*
X180147685Y-48694743D01*
X180089628Y-48723771D01*
X180031571Y-48723771D01*
X179973514Y-48694743D01*
X179944485Y-48665714D01*
X179915457Y-48607657D01*
X179886428Y-48491543D01*
X179886428Y-48346400D01*
X179915457Y-48230286D01*
X179944485Y-48172229D01*
X179973514Y-48143200D01*
X180031571Y-48114171D01*
X180496028Y-48723771D02*
X180496028Y-48114171D01*
X180844371Y-48723771D01*
X180844371Y-48114171D01*
D16*
G36*
X196373000Y-57197394D02*
X195197394Y-58373000D01*
X191627000Y-58373000D01*
X191627000Y-53127000D01*
X196373000Y-53127000D01*
X196373000Y-57197394D01*
X196373000Y-57197394D01*
G37*
X196373000Y-57197394D02*
X195197394Y-58373000D01*
X191627000Y-58373000D01*
X191627000Y-53127000D01*
X196373000Y-53127000D01*
X196373000Y-57197394D01*
M02*
