G04 #@! TF.FileFunction,Legend,Top*
%FSLAX46Y46*%
G04 Gerber Fmt 4.6, Leading zero omitted, Abs format (unit mm)*
G04 Created by KiCad (PCBNEW 4.0.5) date 11/08/17 14:45:23*
%MOMM*%
%LPD*%
G01*
G04 APERTURE LIST*
%ADD10C,0.100000*%
%ADD11C,0.150000*%
%ADD12C,0.200000*%
%ADD13C,0.152400*%
G04 APERTURE END LIST*
D10*
D11*
X196311857Y-58818429D02*
X196311857Y-58218429D01*
X196654714Y-58818429D02*
X196397571Y-58475571D01*
X196654714Y-58218429D02*
X196311857Y-58561286D01*
D12*
X193600605Y-56896000D02*
G75*
G03X193600605Y-56896000I-179605J0D01*
G01*
X177471605Y-59436000D02*
G75*
G03X177471605Y-59436000I-179605J0D01*
G01*
D11*
X184390000Y-59598000D02*
X184390000Y-60798000D01*
X182640000Y-60798000D02*
X182640000Y-59598000D01*
X188683000Y-51919000D02*
X188683000Y-50919000D01*
X186983000Y-50919000D02*
X186983000Y-51919000D01*
X193934000Y-56091000D02*
X193819000Y-56091000D01*
X193934000Y-60241000D02*
X193819000Y-60241000D01*
X185034000Y-60241000D02*
X185149000Y-60241000D01*
X185034000Y-56091000D02*
X185149000Y-56091000D01*
X193934000Y-56091000D02*
X193934000Y-60241000D01*
X185034000Y-56091000D02*
X185034000Y-60241000D01*
X193819000Y-56091000D02*
X193819000Y-54716000D01*
X176876000Y-60241000D02*
X177021000Y-60241000D01*
X176876000Y-56091000D02*
X177021000Y-56091000D01*
X182026000Y-56091000D02*
X181881000Y-56091000D01*
X182026000Y-60241000D02*
X181881000Y-60241000D01*
X176876000Y-60241000D02*
X176876000Y-56091000D01*
X182026000Y-60241000D02*
X182026000Y-56091000D01*
X177021000Y-60241000D02*
X177021000Y-61641000D01*
X176665000Y-47840000D02*
X177665000Y-47840000D01*
X177665000Y-46140000D02*
X176665000Y-46140000D01*
X178601000Y-51189000D02*
X178601000Y-52189000D01*
X180301000Y-52189000D02*
X180301000Y-51189000D01*
X184365000Y-57142000D02*
X184365000Y-56142000D01*
X182665000Y-56142000D02*
X182665000Y-57142000D01*
X186719160Y-46974760D02*
X186670900Y-46974760D01*
X183920180Y-47675800D02*
X183920180Y-46974760D01*
X183920180Y-46974760D02*
X184169100Y-46974760D01*
X186719160Y-46974760D02*
X186919820Y-46974760D01*
X186919820Y-46974760D02*
X186919820Y-47675800D01*
X196371160Y-49387760D02*
X196322900Y-49387760D01*
X193572180Y-50088800D02*
X193572180Y-49387760D01*
X193572180Y-49387760D02*
X193821100Y-49387760D01*
X196371160Y-49387760D02*
X196571820Y-49387760D01*
X196571820Y-49387760D02*
X196571820Y-50088800D01*
X192180160Y-49387760D02*
X192131900Y-49387760D01*
X189381180Y-50088800D02*
X189381180Y-49387760D01*
X189381180Y-49387760D02*
X189630100Y-49387760D01*
X192180160Y-49387760D02*
X192380820Y-49387760D01*
X192380820Y-49387760D02*
X192380820Y-50088800D01*
X181751000Y-48225000D02*
X181751000Y-47025000D01*
X183501000Y-47025000D02*
X183501000Y-48225000D01*
X179592000Y-48225000D02*
X179592000Y-47025000D01*
X181342000Y-47025000D02*
X181342000Y-48225000D01*
X185324000Y-51421000D02*
X184124000Y-51421000D01*
X184124000Y-49671000D02*
X185324000Y-49671000D01*
X190145000Y-47992000D02*
X188945000Y-47992000D01*
X188945000Y-46242000D02*
X190145000Y-46242000D01*
X195672000Y-53834000D02*
X194472000Y-53834000D01*
X194472000Y-52084000D02*
X195672000Y-52084000D01*
X195225000Y-47992000D02*
X194025000Y-47992000D01*
X194025000Y-46242000D02*
X195225000Y-46242000D01*
X190281000Y-52084000D02*
X191481000Y-52084000D01*
X191481000Y-53834000D02*
X190281000Y-53834000D01*
X196582000Y-55915000D02*
X196582000Y-57115000D01*
X194832000Y-57115000D02*
X194832000Y-55915000D01*
X176926240Y-51337160D02*
X176926240Y-51288900D01*
X176225200Y-48538180D02*
X176926240Y-48538180D01*
X176926240Y-48538180D02*
X176926240Y-48787100D01*
X176926240Y-51337160D02*
X176926240Y-51537820D01*
X176926240Y-51537820D02*
X176225200Y-51537820D01*
X176149000Y-51943000D02*
X176149000Y-62865000D01*
X174117000Y-62865000D02*
X174117000Y-51943000D01*
X174117000Y-51943000D02*
X176149000Y-51943000D01*
X176149000Y-62865000D02*
X174117000Y-62865000D01*
X185258000Y-53961000D02*
X184058000Y-53961000D01*
X184058000Y-52211000D02*
X185258000Y-52211000D01*
X194957000Y-59233000D02*
X194957000Y-61933000D01*
X196457000Y-59233000D02*
X196457000Y-61933000D01*
X195557000Y-60733000D02*
X195807000Y-60733000D01*
X195807000Y-60733000D02*
X195657000Y-60583000D01*
X196057000Y-60483000D02*
X195357000Y-60483000D01*
X195707000Y-60833000D02*
X195707000Y-61183000D01*
X195707000Y-60483000D02*
X196057000Y-60833000D01*
X196057000Y-60833000D02*
X195357000Y-60833000D01*
X195357000Y-60833000D02*
X195707000Y-60483000D01*
D13*
X183404934Y-62655752D02*
X183184800Y-62341276D01*
X183027562Y-62655752D02*
X183027562Y-61995352D01*
X183279143Y-61995352D01*
X183342038Y-62026800D01*
X183373486Y-62058248D01*
X183404934Y-62121143D01*
X183404934Y-62215486D01*
X183373486Y-62278381D01*
X183342038Y-62309829D01*
X183279143Y-62341276D01*
X183027562Y-62341276D01*
X183719410Y-62655752D02*
X183845200Y-62655752D01*
X183908095Y-62624305D01*
X183939543Y-62592857D01*
X184002438Y-62498514D01*
X184033886Y-62372724D01*
X184033886Y-62121143D01*
X184002438Y-62058248D01*
X183970991Y-62026800D01*
X183908095Y-61995352D01*
X183782305Y-61995352D01*
X183719410Y-62026800D01*
X183687962Y-62058248D01*
X183656514Y-62121143D01*
X183656514Y-62278381D01*
X183687962Y-62341276D01*
X183719410Y-62372724D01*
X183782305Y-62404171D01*
X183908095Y-62404171D01*
X183970991Y-62372724D01*
X184002438Y-62341276D01*
X184033886Y-62278381D01*
X182988858Y-60463571D02*
X182640515Y-60463571D01*
X182814687Y-60463571D02*
X182814687Y-59853971D01*
X182756630Y-59941057D01*
X182698572Y-59999114D01*
X182640515Y-60028143D01*
X183366229Y-59853971D02*
X183424286Y-59853971D01*
X183482343Y-59883000D01*
X183511372Y-59912029D01*
X183540401Y-59970086D01*
X183569429Y-60086200D01*
X183569429Y-60231343D01*
X183540401Y-60347457D01*
X183511372Y-60405514D01*
X183482343Y-60434543D01*
X183424286Y-60463571D01*
X183366229Y-60463571D01*
X183308172Y-60434543D01*
X183279143Y-60405514D01*
X183250115Y-60347457D01*
X183221086Y-60231343D01*
X183221086Y-60086200D01*
X183250115Y-59970086D01*
X183279143Y-59912029D01*
X183308172Y-59883000D01*
X183366229Y-59853971D01*
X183946800Y-59853971D02*
X184004857Y-59853971D01*
X184062914Y-59883000D01*
X184091943Y-59912029D01*
X184120972Y-59970086D01*
X184150000Y-60086200D01*
X184150000Y-60231343D01*
X184120972Y-60347457D01*
X184091943Y-60405514D01*
X184062914Y-60434543D01*
X184004857Y-60463571D01*
X183946800Y-60463571D01*
X183888743Y-60434543D01*
X183859714Y-60405514D01*
X183830686Y-60347457D01*
X183801657Y-60231343D01*
X183801657Y-60086200D01*
X183830686Y-59970086D01*
X183859714Y-59912029D01*
X183888743Y-59883000D01*
X183946800Y-59853971D01*
X184411257Y-60463571D02*
X184411257Y-59853971D01*
X184469314Y-60231343D02*
X184643485Y-60463571D01*
X184643485Y-60057171D02*
X184411257Y-60289400D01*
X187468934Y-49511857D02*
X187437486Y-49543305D01*
X187343143Y-49574752D01*
X187280248Y-49574752D01*
X187185905Y-49543305D01*
X187123010Y-49480410D01*
X187091562Y-49417514D01*
X187060114Y-49291724D01*
X187060114Y-49197381D01*
X187091562Y-49071590D01*
X187123010Y-49008695D01*
X187185905Y-48945800D01*
X187280248Y-48914352D01*
X187343143Y-48914352D01*
X187437486Y-48945800D01*
X187468934Y-48977248D01*
X188034991Y-49134486D02*
X188034991Y-49574752D01*
X187877753Y-48882905D02*
X187720514Y-49354619D01*
X188129334Y-49354619D01*
X187404829Y-51694771D02*
X187056486Y-51694771D01*
X187230658Y-51694771D02*
X187230658Y-51085171D01*
X187172601Y-51172257D01*
X187114543Y-51230314D01*
X187056486Y-51259343D01*
X187782200Y-51085171D02*
X187840257Y-51085171D01*
X187898314Y-51114200D01*
X187927343Y-51143229D01*
X187956372Y-51201286D01*
X187985400Y-51317400D01*
X187985400Y-51462543D01*
X187956372Y-51578657D01*
X187927343Y-51636714D01*
X187898314Y-51665743D01*
X187840257Y-51694771D01*
X187782200Y-51694771D01*
X187724143Y-51665743D01*
X187695114Y-51636714D01*
X187666086Y-51578657D01*
X187637057Y-51462543D01*
X187637057Y-51317400D01*
X187666086Y-51201286D01*
X187695114Y-51143229D01*
X187724143Y-51114200D01*
X187782200Y-51085171D01*
X188362771Y-51085171D02*
X188420828Y-51085171D01*
X188478885Y-51114200D01*
X188507914Y-51143229D01*
X188536943Y-51201286D01*
X188565971Y-51317400D01*
X188565971Y-51462543D01*
X188536943Y-51578657D01*
X188507914Y-51636714D01*
X188478885Y-51665743D01*
X188420828Y-51694771D01*
X188362771Y-51694771D01*
X188304714Y-51665743D01*
X188275685Y-51636714D01*
X188246657Y-51578657D01*
X188217628Y-51462543D01*
X188217628Y-51317400D01*
X188246657Y-51201286D01*
X188275685Y-51143229D01*
X188304714Y-51114200D01*
X188362771Y-51085171D01*
X188827228Y-51288371D02*
X188827228Y-51694771D01*
X188827228Y-51346429D02*
X188856256Y-51317400D01*
X188914314Y-51288371D01*
X189001399Y-51288371D01*
X189059456Y-51317400D01*
X189088485Y-51375457D01*
X189088485Y-51694771D01*
X185043838Y-62249352D02*
X185043838Y-62783962D01*
X185075286Y-62846857D01*
X185106733Y-62878305D01*
X185169629Y-62909752D01*
X185295419Y-62909752D01*
X185358314Y-62878305D01*
X185389762Y-62846857D01*
X185421210Y-62783962D01*
X185421210Y-62249352D01*
X185704238Y-62312248D02*
X185735686Y-62280800D01*
X185798581Y-62249352D01*
X185955819Y-62249352D01*
X186018715Y-62280800D01*
X186050162Y-62312248D01*
X186081610Y-62375143D01*
X186081610Y-62438038D01*
X186050162Y-62532381D01*
X185672791Y-62909752D01*
X186081610Y-62909752D01*
D11*
X185436381Y-58332667D02*
X185912572Y-58332667D01*
X185341143Y-58618381D02*
X185674476Y-57618381D01*
X186007810Y-58618381D01*
X186198286Y-57618381D02*
X186769715Y-57618381D01*
X186484000Y-58618381D02*
X186484000Y-57618381D01*
X187055429Y-58570762D02*
X187198286Y-58618381D01*
X187436382Y-58618381D01*
X187531620Y-58570762D01*
X187579239Y-58523143D01*
X187626858Y-58427905D01*
X187626858Y-58332667D01*
X187579239Y-58237429D01*
X187531620Y-58189810D01*
X187436382Y-58142190D01*
X187245905Y-58094571D01*
X187150667Y-58046952D01*
X187103048Y-57999333D01*
X187055429Y-57904095D01*
X187055429Y-57808857D01*
X187103048Y-57713619D01*
X187150667Y-57666000D01*
X187245905Y-57618381D01*
X187484001Y-57618381D01*
X187626858Y-57666000D01*
X188007810Y-58332667D02*
X188484001Y-58332667D01*
X187912572Y-58618381D02*
X188245905Y-57618381D01*
X188579239Y-58618381D01*
X188912572Y-58618381D02*
X188912572Y-57618381D01*
X189245906Y-58332667D01*
X189579239Y-57618381D01*
X189579239Y-58618381D01*
X190055429Y-58618381D02*
X190055429Y-57618381D01*
X190293524Y-57618381D01*
X190436382Y-57666000D01*
X190531620Y-57761238D01*
X190579239Y-57856476D01*
X190626858Y-58046952D01*
X190626858Y-58189810D01*
X190579239Y-58380286D01*
X190531620Y-58475524D01*
X190436382Y-58570762D01*
X190293524Y-58618381D01*
X190055429Y-58618381D01*
X191245905Y-57618381D02*
X191341144Y-57618381D01*
X191436382Y-57666000D01*
X191484001Y-57713619D01*
X191531620Y-57808857D01*
X191579239Y-57999333D01*
X191579239Y-58237429D01*
X191531620Y-58427905D01*
X191484001Y-58523143D01*
X191436382Y-58570762D01*
X191341144Y-58618381D01*
X191245905Y-58618381D01*
X191150667Y-58570762D01*
X191103048Y-58523143D01*
X191055429Y-58427905D01*
X191007810Y-58237429D01*
X191007810Y-57999333D01*
X191055429Y-57808857D01*
X191103048Y-57713619D01*
X191150667Y-57666000D01*
X191245905Y-57618381D01*
X192055429Y-58618381D02*
X192245905Y-58618381D01*
X192341144Y-58570762D01*
X192388763Y-58523143D01*
X192484001Y-58380286D01*
X192531620Y-58189810D01*
X192531620Y-57808857D01*
X192484001Y-57713619D01*
X192436382Y-57666000D01*
X192341144Y-57618381D01*
X192150667Y-57618381D01*
X192055429Y-57666000D01*
X192007810Y-57713619D01*
X191960191Y-57808857D01*
X191960191Y-58046952D01*
X192007810Y-58142190D01*
X192055429Y-58189810D01*
X192150667Y-58237429D01*
X192341144Y-58237429D01*
X192436382Y-58189810D01*
X192484001Y-58142190D01*
X192531620Y-58046952D01*
X193531620Y-58523143D02*
X193484001Y-58570762D01*
X193341144Y-58618381D01*
X193245906Y-58618381D01*
X193103048Y-58570762D01*
X193007810Y-58475524D01*
X192960191Y-58380286D01*
X192912572Y-58189810D01*
X192912572Y-58046952D01*
X192960191Y-57856476D01*
X193007810Y-57761238D01*
X193103048Y-57666000D01*
X193245906Y-57618381D01*
X193341144Y-57618381D01*
X193484001Y-57666000D01*
X193531620Y-57713619D01*
D13*
X176915838Y-62249352D02*
X176915838Y-62783962D01*
X176947286Y-62846857D01*
X176978733Y-62878305D01*
X177041629Y-62909752D01*
X177167419Y-62909752D01*
X177230314Y-62878305D01*
X177261762Y-62846857D01*
X177293210Y-62783962D01*
X177293210Y-62249352D01*
X177544791Y-62249352D02*
X177953610Y-62249352D01*
X177733477Y-62500933D01*
X177827819Y-62500933D01*
X177890715Y-62532381D01*
X177922162Y-62563829D01*
X177953610Y-62626724D01*
X177953610Y-62783962D01*
X177922162Y-62846857D01*
X177890715Y-62878305D01*
X177827819Y-62909752D01*
X177639134Y-62909752D01*
X177576238Y-62878305D01*
X177544791Y-62846857D01*
X177143230Y-57705171D02*
X177288373Y-58314771D01*
X177404487Y-57879343D01*
X177520601Y-58314771D01*
X177665744Y-57705171D01*
X177868944Y-57763229D02*
X177897973Y-57734200D01*
X177956030Y-57705171D01*
X178101173Y-57705171D01*
X178159230Y-57734200D01*
X178188259Y-57763229D01*
X178217287Y-57821286D01*
X178217287Y-57879343D01*
X178188259Y-57966429D01*
X177839916Y-58314771D01*
X178217287Y-58314771D01*
X178768830Y-57705171D02*
X178478544Y-57705171D01*
X178449515Y-57995457D01*
X178478544Y-57966429D01*
X178536601Y-57937400D01*
X178681744Y-57937400D01*
X178739801Y-57966429D01*
X178768830Y-57995457D01*
X178797858Y-58053514D01*
X178797858Y-58198657D01*
X178768830Y-58256714D01*
X178739801Y-58285743D01*
X178681744Y-58314771D01*
X178536601Y-58314771D01*
X178478544Y-58285743D01*
X178449515Y-58256714D01*
X179465515Y-58372829D02*
X179407458Y-58343800D01*
X179349401Y-58285743D01*
X179262315Y-58198657D01*
X179204258Y-58169629D01*
X179146201Y-58169629D01*
X179175229Y-58314771D02*
X179117172Y-58285743D01*
X179059115Y-58227686D01*
X179030086Y-58111571D01*
X179030086Y-57908371D01*
X179059115Y-57792257D01*
X179117172Y-57734200D01*
X179175229Y-57705171D01*
X179291343Y-57705171D01*
X179349401Y-57734200D01*
X179407458Y-57792257D01*
X179436486Y-57908371D01*
X179436486Y-58111571D01*
X179407458Y-58227686D01*
X179349401Y-58285743D01*
X179291343Y-58314771D01*
X179175229Y-58314771D01*
X180017058Y-58314771D02*
X179668715Y-58314771D01*
X179842887Y-58314771D02*
X179842887Y-57705171D01*
X179784830Y-57792257D01*
X179726772Y-57850314D01*
X179668715Y-57879343D01*
X180539572Y-57705171D02*
X180423458Y-57705171D01*
X180365401Y-57734200D01*
X180336372Y-57763229D01*
X180278315Y-57850314D01*
X180249286Y-57966429D01*
X180249286Y-58198657D01*
X180278315Y-58256714D01*
X180307343Y-58285743D01*
X180365401Y-58314771D01*
X180481515Y-58314771D01*
X180539572Y-58285743D01*
X180568601Y-58256714D01*
X180597629Y-58198657D01*
X180597629Y-58053514D01*
X180568601Y-57995457D01*
X180539572Y-57966429D01*
X180481515Y-57937400D01*
X180365401Y-57937400D01*
X180307343Y-57966429D01*
X180278315Y-57995457D01*
X180249286Y-58053514D01*
X180858886Y-58314771D02*
X180858886Y-57705171D01*
X181004029Y-57705171D01*
X181091114Y-57734200D01*
X181149172Y-57792257D01*
X181178200Y-57850314D01*
X181207229Y-57966429D01*
X181207229Y-58053514D01*
X181178200Y-58169629D01*
X181149172Y-58227686D01*
X181091114Y-58285743D01*
X181004029Y-58314771D01*
X180858886Y-58314771D01*
X181381400Y-57705171D02*
X181584600Y-58314771D01*
X181787800Y-57705171D01*
X178527857Y-48624066D02*
X178559305Y-48655514D01*
X178590752Y-48749857D01*
X178590752Y-48812752D01*
X178559305Y-48907095D01*
X178496410Y-48969990D01*
X178433514Y-49001438D01*
X178307724Y-49032886D01*
X178213381Y-49032886D01*
X178087590Y-49001438D01*
X178024695Y-48969990D01*
X177961800Y-48907095D01*
X177930352Y-48812752D01*
X177930352Y-48749857D01*
X177961800Y-48655514D01*
X177993248Y-48624066D01*
X178590752Y-47995114D02*
X178590752Y-48372486D01*
X178590752Y-48183800D02*
X177930352Y-48183800D01*
X178024695Y-48246695D01*
X178087590Y-48309590D01*
X178119038Y-48372486D01*
X177440771Y-47352857D02*
X177440771Y-47701200D01*
X177440771Y-47527028D02*
X176831171Y-47527028D01*
X176918257Y-47585085D01*
X176976314Y-47643143D01*
X177005343Y-47701200D01*
X177034371Y-46830343D02*
X177440771Y-46830343D01*
X177034371Y-47091600D02*
X177353686Y-47091600D01*
X177411743Y-47062572D01*
X177440771Y-47004514D01*
X177440771Y-46917429D01*
X177411743Y-46859372D01*
X177382714Y-46830343D01*
X177121457Y-46336857D02*
X177121457Y-46540057D01*
X177440771Y-46540057D02*
X176831171Y-46540057D01*
X176831171Y-46249771D01*
X178832934Y-54083857D02*
X178801486Y-54115305D01*
X178707143Y-54146752D01*
X178644248Y-54146752D01*
X178549905Y-54115305D01*
X178487010Y-54052410D01*
X178455562Y-53989514D01*
X178424114Y-53863724D01*
X178424114Y-53769381D01*
X178455562Y-53643590D01*
X178487010Y-53580695D01*
X178549905Y-53517800D01*
X178644248Y-53486352D01*
X178707143Y-53486352D01*
X178801486Y-53517800D01*
X178832934Y-53549248D01*
X179084514Y-53549248D02*
X179115962Y-53517800D01*
X179178857Y-53486352D01*
X179336095Y-53486352D01*
X179398991Y-53517800D01*
X179430438Y-53549248D01*
X179461886Y-53612143D01*
X179461886Y-53675038D01*
X179430438Y-53769381D01*
X179053067Y-54146752D01*
X179461886Y-54146752D01*
X179121143Y-51946771D02*
X178772800Y-51946771D01*
X178946972Y-51946771D02*
X178946972Y-51337171D01*
X178888915Y-51424257D01*
X178830857Y-51482314D01*
X178772800Y-51511343D01*
X179643657Y-51540371D02*
X179643657Y-51946771D01*
X179382400Y-51540371D02*
X179382400Y-51859686D01*
X179411428Y-51917743D01*
X179469486Y-51946771D01*
X179556571Y-51946771D01*
X179614628Y-51917743D01*
X179643657Y-51888714D01*
X180137143Y-51627457D02*
X179933943Y-51627457D01*
X179933943Y-51946771D02*
X179933943Y-51337171D01*
X180224229Y-51337171D01*
X182769934Y-54718857D02*
X182738486Y-54750305D01*
X182644143Y-54781752D01*
X182581248Y-54781752D01*
X182486905Y-54750305D01*
X182424010Y-54687410D01*
X182392562Y-54624514D01*
X182361114Y-54498724D01*
X182361114Y-54404381D01*
X182392562Y-54278590D01*
X182424010Y-54215695D01*
X182486905Y-54152800D01*
X182581248Y-54121352D01*
X182644143Y-54121352D01*
X182738486Y-54152800D01*
X182769934Y-54184248D01*
X183367438Y-54121352D02*
X183052962Y-54121352D01*
X183021514Y-54435829D01*
X183052962Y-54404381D01*
X183115857Y-54372933D01*
X183273095Y-54372933D01*
X183335991Y-54404381D01*
X183367438Y-54435829D01*
X183398886Y-54498724D01*
X183398886Y-54655962D01*
X183367438Y-54718857D01*
X183335991Y-54750305D01*
X183273095Y-54781752D01*
X183115857Y-54781752D01*
X183052962Y-54750305D01*
X183021514Y-54718857D01*
X183086829Y-56917771D02*
X182738486Y-56917771D01*
X182912658Y-56917771D02*
X182912658Y-56308171D01*
X182854601Y-56395257D01*
X182796543Y-56453314D01*
X182738486Y-56482343D01*
X183464200Y-56308171D02*
X183522257Y-56308171D01*
X183580314Y-56337200D01*
X183609343Y-56366229D01*
X183638372Y-56424286D01*
X183667400Y-56540400D01*
X183667400Y-56685543D01*
X183638372Y-56801657D01*
X183609343Y-56859714D01*
X183580314Y-56888743D01*
X183522257Y-56917771D01*
X183464200Y-56917771D01*
X183406143Y-56888743D01*
X183377114Y-56859714D01*
X183348086Y-56801657D01*
X183319057Y-56685543D01*
X183319057Y-56540400D01*
X183348086Y-56424286D01*
X183377114Y-56366229D01*
X183406143Y-56337200D01*
X183464200Y-56308171D01*
X184044771Y-56308171D02*
X184102828Y-56308171D01*
X184160885Y-56337200D01*
X184189914Y-56366229D01*
X184218943Y-56424286D01*
X184247971Y-56540400D01*
X184247971Y-56685543D01*
X184218943Y-56801657D01*
X184189914Y-56859714D01*
X184160885Y-56888743D01*
X184102828Y-56917771D01*
X184044771Y-56917771D01*
X183986714Y-56888743D01*
X183957685Y-56859714D01*
X183928657Y-56801657D01*
X183899628Y-56685543D01*
X183899628Y-56540400D01*
X183928657Y-56424286D01*
X183957685Y-56366229D01*
X183986714Y-56337200D01*
X184044771Y-56308171D01*
X184509228Y-56511371D02*
X184509228Y-56917771D01*
X184509228Y-56569429D02*
X184538256Y-56540400D01*
X184596314Y-56511371D01*
X184683399Y-56511371D01*
X184741456Y-56540400D01*
X184770485Y-56598457D01*
X184770485Y-56917771D01*
X184087105Y-46716648D02*
X184024210Y-46685200D01*
X183961314Y-46622305D01*
X183866971Y-46527962D01*
X183804076Y-46496514D01*
X183741181Y-46496514D01*
X183772629Y-46653752D02*
X183709733Y-46622305D01*
X183646838Y-46559410D01*
X183615390Y-46433619D01*
X183615390Y-46213486D01*
X183646838Y-46087695D01*
X183709733Y-46024800D01*
X183772629Y-45993352D01*
X183898419Y-45993352D01*
X183961314Y-46024800D01*
X184024210Y-46087695D01*
X184055657Y-46213486D01*
X184055657Y-46433619D01*
X184024210Y-46559410D01*
X183961314Y-46622305D01*
X183898419Y-46653752D01*
X183772629Y-46653752D01*
X184684610Y-46653752D02*
X184307238Y-46653752D01*
X184495924Y-46653752D02*
X184495924Y-45993352D01*
X184433029Y-46087695D01*
X184370134Y-46150590D01*
X184307238Y-46182038D01*
X184266116Y-47571457D02*
X184353202Y-47600486D01*
X184382230Y-47629514D01*
X184411259Y-47687571D01*
X184411259Y-47774657D01*
X184382230Y-47832714D01*
X184353202Y-47861743D01*
X184295144Y-47890771D01*
X184062916Y-47890771D01*
X184062916Y-47281171D01*
X184266116Y-47281171D01*
X184324173Y-47310200D01*
X184353202Y-47339229D01*
X184382230Y-47397286D01*
X184382230Y-47455343D01*
X184353202Y-47513400D01*
X184324173Y-47542429D01*
X184266116Y-47571457D01*
X184062916Y-47571457D01*
X184643487Y-47861743D02*
X184730573Y-47890771D01*
X184875716Y-47890771D01*
X184933773Y-47861743D01*
X184962802Y-47832714D01*
X184991830Y-47774657D01*
X184991830Y-47716600D01*
X184962802Y-47658543D01*
X184933773Y-47629514D01*
X184875716Y-47600486D01*
X184759602Y-47571457D01*
X184701544Y-47542429D01*
X184672516Y-47513400D01*
X184643487Y-47455343D01*
X184643487Y-47397286D01*
X184672516Y-47339229D01*
X184701544Y-47310200D01*
X184759602Y-47281171D01*
X184904744Y-47281171D01*
X184991830Y-47310200D01*
X185224058Y-47861743D02*
X185311144Y-47890771D01*
X185456287Y-47890771D01*
X185514344Y-47861743D01*
X185543373Y-47832714D01*
X185572401Y-47774657D01*
X185572401Y-47716600D01*
X185543373Y-47658543D01*
X185514344Y-47629514D01*
X185456287Y-47600486D01*
X185340173Y-47571457D01*
X185282115Y-47542429D01*
X185253087Y-47513400D01*
X185224058Y-47455343D01*
X185224058Y-47397286D01*
X185253087Y-47339229D01*
X185282115Y-47310200D01*
X185340173Y-47281171D01*
X185485315Y-47281171D01*
X185572401Y-47310200D01*
X186152972Y-47890771D02*
X185804629Y-47890771D01*
X185978801Y-47890771D02*
X185978801Y-47281171D01*
X185920744Y-47368257D01*
X185862686Y-47426314D01*
X185804629Y-47455343D01*
X186356172Y-47281171D02*
X186733543Y-47281171D01*
X186530343Y-47513400D01*
X186617429Y-47513400D01*
X186675486Y-47542429D01*
X186704515Y-47571457D01*
X186733543Y-47629514D01*
X186733543Y-47774657D01*
X186704515Y-47832714D01*
X186675486Y-47861743D01*
X186617429Y-47890771D01*
X186443257Y-47890771D01*
X186385200Y-47861743D01*
X186356172Y-47832714D01*
X187081886Y-47542429D02*
X187023828Y-47513400D01*
X186994800Y-47484371D01*
X186965771Y-47426314D01*
X186965771Y-47397286D01*
X186994800Y-47339229D01*
X187023828Y-47310200D01*
X187081886Y-47281171D01*
X187198000Y-47281171D01*
X187256057Y-47310200D01*
X187285086Y-47339229D01*
X187314114Y-47397286D01*
X187314114Y-47426314D01*
X187285086Y-47484371D01*
X187256057Y-47513400D01*
X187198000Y-47542429D01*
X187081886Y-47542429D01*
X187023828Y-47571457D01*
X186994800Y-47600486D01*
X186965771Y-47658543D01*
X186965771Y-47774657D01*
X186994800Y-47832714D01*
X187023828Y-47861743D01*
X187081886Y-47890771D01*
X187198000Y-47890771D01*
X187256057Y-47861743D01*
X187285086Y-47832714D01*
X187314114Y-47774657D01*
X187314114Y-47658543D01*
X187285086Y-47600486D01*
X187256057Y-47571457D01*
X187198000Y-47542429D01*
X193485105Y-49129648D02*
X193422210Y-49098200D01*
X193359314Y-49035305D01*
X193264971Y-48940962D01*
X193202076Y-48909514D01*
X193139181Y-48909514D01*
X193170629Y-49066752D02*
X193107733Y-49035305D01*
X193044838Y-48972410D01*
X193013390Y-48846619D01*
X193013390Y-48626486D01*
X193044838Y-48500695D01*
X193107733Y-48437800D01*
X193170629Y-48406352D01*
X193296419Y-48406352D01*
X193359314Y-48437800D01*
X193422210Y-48500695D01*
X193453657Y-48626486D01*
X193453657Y-48846619D01*
X193422210Y-48972410D01*
X193359314Y-49035305D01*
X193296419Y-49066752D01*
X193170629Y-49066752D01*
X193705238Y-48469248D02*
X193736686Y-48437800D01*
X193799581Y-48406352D01*
X193956819Y-48406352D01*
X194019715Y-48437800D01*
X194051162Y-48469248D01*
X194082610Y-48532143D01*
X194082610Y-48595038D01*
X194051162Y-48689381D01*
X193673791Y-49066752D01*
X194082610Y-49066752D01*
X193918116Y-49984457D02*
X194005202Y-50013486D01*
X194034230Y-50042514D01*
X194063259Y-50100571D01*
X194063259Y-50187657D01*
X194034230Y-50245714D01*
X194005202Y-50274743D01*
X193947144Y-50303771D01*
X193714916Y-50303771D01*
X193714916Y-49694171D01*
X193918116Y-49694171D01*
X193976173Y-49723200D01*
X194005202Y-49752229D01*
X194034230Y-49810286D01*
X194034230Y-49868343D01*
X194005202Y-49926400D01*
X193976173Y-49955429D01*
X193918116Y-49984457D01*
X193714916Y-49984457D01*
X194295487Y-50274743D02*
X194382573Y-50303771D01*
X194527716Y-50303771D01*
X194585773Y-50274743D01*
X194614802Y-50245714D01*
X194643830Y-50187657D01*
X194643830Y-50129600D01*
X194614802Y-50071543D01*
X194585773Y-50042514D01*
X194527716Y-50013486D01*
X194411602Y-49984457D01*
X194353544Y-49955429D01*
X194324516Y-49926400D01*
X194295487Y-49868343D01*
X194295487Y-49810286D01*
X194324516Y-49752229D01*
X194353544Y-49723200D01*
X194411602Y-49694171D01*
X194556744Y-49694171D01*
X194643830Y-49723200D01*
X194876058Y-50274743D02*
X194963144Y-50303771D01*
X195108287Y-50303771D01*
X195166344Y-50274743D01*
X195195373Y-50245714D01*
X195224401Y-50187657D01*
X195224401Y-50129600D01*
X195195373Y-50071543D01*
X195166344Y-50042514D01*
X195108287Y-50013486D01*
X194992173Y-49984457D01*
X194934115Y-49955429D01*
X194905087Y-49926400D01*
X194876058Y-49868343D01*
X194876058Y-49810286D01*
X194905087Y-49752229D01*
X194934115Y-49723200D01*
X194992173Y-49694171D01*
X195137315Y-49694171D01*
X195224401Y-49723200D01*
X195804972Y-50303771D02*
X195456629Y-50303771D01*
X195630801Y-50303771D02*
X195630801Y-49694171D01*
X195572744Y-49781257D01*
X195514686Y-49839314D01*
X195456629Y-49868343D01*
X196008172Y-49694171D02*
X196385543Y-49694171D01*
X196182343Y-49926400D01*
X196269429Y-49926400D01*
X196327486Y-49955429D01*
X196356515Y-49984457D01*
X196385543Y-50042514D01*
X196385543Y-50187657D01*
X196356515Y-50245714D01*
X196327486Y-50274743D01*
X196269429Y-50303771D01*
X196095257Y-50303771D01*
X196037200Y-50274743D01*
X196008172Y-50245714D01*
X196733886Y-49955429D02*
X196675828Y-49926400D01*
X196646800Y-49897371D01*
X196617771Y-49839314D01*
X196617771Y-49810286D01*
X196646800Y-49752229D01*
X196675828Y-49723200D01*
X196733886Y-49694171D01*
X196850000Y-49694171D01*
X196908057Y-49723200D01*
X196937086Y-49752229D01*
X196966114Y-49810286D01*
X196966114Y-49839314D01*
X196937086Y-49897371D01*
X196908057Y-49926400D01*
X196850000Y-49955429D01*
X196733886Y-49955429D01*
X196675828Y-49984457D01*
X196646800Y-50013486D01*
X196617771Y-50071543D01*
X196617771Y-50187657D01*
X196646800Y-50245714D01*
X196675828Y-50274743D01*
X196733886Y-50303771D01*
X196850000Y-50303771D01*
X196908057Y-50274743D01*
X196937086Y-50245714D01*
X196966114Y-50187657D01*
X196966114Y-50071543D01*
X196937086Y-50013486D01*
X196908057Y-49984457D01*
X196850000Y-49955429D01*
X189421105Y-49129648D02*
X189358210Y-49098200D01*
X189295314Y-49035305D01*
X189200971Y-48940962D01*
X189138076Y-48909514D01*
X189075181Y-48909514D01*
X189106629Y-49066752D02*
X189043733Y-49035305D01*
X188980838Y-48972410D01*
X188949390Y-48846619D01*
X188949390Y-48626486D01*
X188980838Y-48500695D01*
X189043733Y-48437800D01*
X189106629Y-48406352D01*
X189232419Y-48406352D01*
X189295314Y-48437800D01*
X189358210Y-48500695D01*
X189389657Y-48626486D01*
X189389657Y-48846619D01*
X189358210Y-48972410D01*
X189295314Y-49035305D01*
X189232419Y-49066752D01*
X189106629Y-49066752D01*
X189609791Y-48406352D02*
X190018610Y-48406352D01*
X189798477Y-48657933D01*
X189892819Y-48657933D01*
X189955715Y-48689381D01*
X189987162Y-48720829D01*
X190018610Y-48783724D01*
X190018610Y-48940962D01*
X189987162Y-49003857D01*
X189955715Y-49035305D01*
X189892819Y-49066752D01*
X189704134Y-49066752D01*
X189641238Y-49035305D01*
X189609791Y-49003857D01*
X189727116Y-49984457D02*
X189814202Y-50013486D01*
X189843230Y-50042514D01*
X189872259Y-50100571D01*
X189872259Y-50187657D01*
X189843230Y-50245714D01*
X189814202Y-50274743D01*
X189756144Y-50303771D01*
X189523916Y-50303771D01*
X189523916Y-49694171D01*
X189727116Y-49694171D01*
X189785173Y-49723200D01*
X189814202Y-49752229D01*
X189843230Y-49810286D01*
X189843230Y-49868343D01*
X189814202Y-49926400D01*
X189785173Y-49955429D01*
X189727116Y-49984457D01*
X189523916Y-49984457D01*
X190104487Y-50274743D02*
X190191573Y-50303771D01*
X190336716Y-50303771D01*
X190394773Y-50274743D01*
X190423802Y-50245714D01*
X190452830Y-50187657D01*
X190452830Y-50129600D01*
X190423802Y-50071543D01*
X190394773Y-50042514D01*
X190336716Y-50013486D01*
X190220602Y-49984457D01*
X190162544Y-49955429D01*
X190133516Y-49926400D01*
X190104487Y-49868343D01*
X190104487Y-49810286D01*
X190133516Y-49752229D01*
X190162544Y-49723200D01*
X190220602Y-49694171D01*
X190365744Y-49694171D01*
X190452830Y-49723200D01*
X190685058Y-50274743D02*
X190772144Y-50303771D01*
X190917287Y-50303771D01*
X190975344Y-50274743D01*
X191004373Y-50245714D01*
X191033401Y-50187657D01*
X191033401Y-50129600D01*
X191004373Y-50071543D01*
X190975344Y-50042514D01*
X190917287Y-50013486D01*
X190801173Y-49984457D01*
X190743115Y-49955429D01*
X190714087Y-49926400D01*
X190685058Y-49868343D01*
X190685058Y-49810286D01*
X190714087Y-49752229D01*
X190743115Y-49723200D01*
X190801173Y-49694171D01*
X190946315Y-49694171D01*
X191033401Y-49723200D01*
X191613972Y-50303771D02*
X191265629Y-50303771D01*
X191439801Y-50303771D02*
X191439801Y-49694171D01*
X191381744Y-49781257D01*
X191323686Y-49839314D01*
X191265629Y-49868343D01*
X191817172Y-49694171D02*
X192194543Y-49694171D01*
X191991343Y-49926400D01*
X192078429Y-49926400D01*
X192136486Y-49955429D01*
X192165515Y-49984457D01*
X192194543Y-50042514D01*
X192194543Y-50187657D01*
X192165515Y-50245714D01*
X192136486Y-50274743D01*
X192078429Y-50303771D01*
X191904257Y-50303771D01*
X191846200Y-50274743D01*
X191817172Y-50245714D01*
X192542886Y-49955429D02*
X192484828Y-49926400D01*
X192455800Y-49897371D01*
X192426771Y-49839314D01*
X192426771Y-49810286D01*
X192455800Y-49752229D01*
X192484828Y-49723200D01*
X192542886Y-49694171D01*
X192659000Y-49694171D01*
X192717057Y-49723200D01*
X192746086Y-49752229D01*
X192775114Y-49810286D01*
X192775114Y-49839314D01*
X192746086Y-49897371D01*
X192717057Y-49926400D01*
X192659000Y-49955429D01*
X192542886Y-49955429D01*
X192484828Y-49984457D01*
X192455800Y-50013486D01*
X192426771Y-50071543D01*
X192426771Y-50187657D01*
X192455800Y-50245714D01*
X192484828Y-50274743D01*
X192542886Y-50303771D01*
X192659000Y-50303771D01*
X192717057Y-50274743D01*
X192746086Y-50245714D01*
X192775114Y-50187657D01*
X192775114Y-50071543D01*
X192746086Y-50013486D01*
X192717057Y-49984457D01*
X192659000Y-49955429D01*
X182515934Y-49828752D02*
X182295800Y-49514276D01*
X182138562Y-49828752D02*
X182138562Y-49168352D01*
X182390143Y-49168352D01*
X182453038Y-49199800D01*
X182484486Y-49231248D01*
X182515934Y-49294143D01*
X182515934Y-49388486D01*
X182484486Y-49451381D01*
X182453038Y-49482829D01*
X182390143Y-49514276D01*
X182138562Y-49514276D01*
X183144886Y-49828752D02*
X182767514Y-49828752D01*
X182956200Y-49828752D02*
X182956200Y-49168352D01*
X182893305Y-49262695D01*
X182830410Y-49325590D01*
X182767514Y-49357038D01*
X182161544Y-47291171D02*
X182045430Y-47291171D01*
X181987373Y-47320200D01*
X181958344Y-47349229D01*
X181900287Y-47436314D01*
X181871258Y-47552429D01*
X181871258Y-47784657D01*
X181900287Y-47842714D01*
X181929315Y-47871743D01*
X181987373Y-47900771D01*
X182103487Y-47900771D01*
X182161544Y-47871743D01*
X182190573Y-47842714D01*
X182219601Y-47784657D01*
X182219601Y-47639514D01*
X182190573Y-47581457D01*
X182161544Y-47552429D01*
X182103487Y-47523400D01*
X181987373Y-47523400D01*
X181929315Y-47552429D01*
X181900287Y-47581457D01*
X181871258Y-47639514D01*
X182567944Y-47552429D02*
X182509886Y-47523400D01*
X182480858Y-47494371D01*
X182451829Y-47436314D01*
X182451829Y-47407286D01*
X182480858Y-47349229D01*
X182509886Y-47320200D01*
X182567944Y-47291171D01*
X182684058Y-47291171D01*
X182742115Y-47320200D01*
X182771144Y-47349229D01*
X182800172Y-47407286D01*
X182800172Y-47436314D01*
X182771144Y-47494371D01*
X182742115Y-47523400D01*
X182684058Y-47552429D01*
X182567944Y-47552429D01*
X182509886Y-47581457D01*
X182480858Y-47610486D01*
X182451829Y-47668543D01*
X182451829Y-47784657D01*
X182480858Y-47842714D01*
X182509886Y-47871743D01*
X182567944Y-47900771D01*
X182684058Y-47900771D01*
X182742115Y-47871743D01*
X182771144Y-47842714D01*
X182800172Y-47784657D01*
X182800172Y-47668543D01*
X182771144Y-47610486D01*
X182742115Y-47581457D01*
X182684058Y-47552429D01*
X183177543Y-47291171D02*
X183235600Y-47291171D01*
X183293657Y-47320200D01*
X183322686Y-47349229D01*
X183351715Y-47407286D01*
X183380743Y-47523400D01*
X183380743Y-47668543D01*
X183351715Y-47784657D01*
X183322686Y-47842714D01*
X183293657Y-47871743D01*
X183235600Y-47900771D01*
X183177543Y-47900771D01*
X183119486Y-47871743D01*
X183090457Y-47842714D01*
X183061429Y-47784657D01*
X183032400Y-47668543D01*
X183032400Y-47523400D01*
X183061429Y-47407286D01*
X183090457Y-47349229D01*
X183119486Y-47320200D01*
X183177543Y-47291171D01*
X180356934Y-49828752D02*
X180136800Y-49514276D01*
X179979562Y-49828752D02*
X179979562Y-49168352D01*
X180231143Y-49168352D01*
X180294038Y-49199800D01*
X180325486Y-49231248D01*
X180356934Y-49294143D01*
X180356934Y-49388486D01*
X180325486Y-49451381D01*
X180294038Y-49482829D01*
X180231143Y-49514276D01*
X179979562Y-49514276D01*
X180608514Y-49231248D02*
X180639962Y-49199800D01*
X180702857Y-49168352D01*
X180860095Y-49168352D01*
X180922991Y-49199800D01*
X180954438Y-49231248D01*
X180985886Y-49294143D01*
X180985886Y-49357038D01*
X180954438Y-49451381D01*
X180577067Y-49828752D01*
X180985886Y-49828752D01*
X180031573Y-47291171D02*
X179741287Y-47291171D01*
X179712258Y-47581457D01*
X179741287Y-47552429D01*
X179799344Y-47523400D01*
X179944487Y-47523400D01*
X180002544Y-47552429D01*
X180031573Y-47581457D01*
X180060601Y-47639514D01*
X180060601Y-47784657D01*
X180031573Y-47842714D01*
X180002544Y-47871743D01*
X179944487Y-47900771D01*
X179799344Y-47900771D01*
X179741287Y-47871743D01*
X179712258Y-47842714D01*
X180583115Y-47291171D02*
X180467001Y-47291171D01*
X180408944Y-47320200D01*
X180379915Y-47349229D01*
X180321858Y-47436314D01*
X180292829Y-47552429D01*
X180292829Y-47784657D01*
X180321858Y-47842714D01*
X180350886Y-47871743D01*
X180408944Y-47900771D01*
X180525058Y-47900771D01*
X180583115Y-47871743D01*
X180612144Y-47842714D01*
X180641172Y-47784657D01*
X180641172Y-47639514D01*
X180612144Y-47581457D01*
X180583115Y-47552429D01*
X180525058Y-47523400D01*
X180408944Y-47523400D01*
X180350886Y-47552429D01*
X180321858Y-47581457D01*
X180292829Y-47639514D01*
X181018543Y-47291171D02*
X181076600Y-47291171D01*
X181134657Y-47320200D01*
X181163686Y-47349229D01*
X181192715Y-47407286D01*
X181221743Y-47523400D01*
X181221743Y-47668543D01*
X181192715Y-47784657D01*
X181163686Y-47842714D01*
X181134657Y-47871743D01*
X181076600Y-47900771D01*
X181018543Y-47900771D01*
X180960486Y-47871743D01*
X180931457Y-47842714D01*
X180902429Y-47784657D01*
X180873400Y-47668543D01*
X180873400Y-47523400D01*
X180902429Y-47407286D01*
X180931457Y-47349229D01*
X180960486Y-47320200D01*
X181018543Y-47291171D01*
X183051752Y-51672066D02*
X182737276Y-51892200D01*
X183051752Y-52049438D02*
X182391352Y-52049438D01*
X182391352Y-51797857D01*
X182422800Y-51734962D01*
X182454248Y-51703514D01*
X182517143Y-51672066D01*
X182611486Y-51672066D01*
X182674381Y-51703514D01*
X182705829Y-51734962D01*
X182737276Y-51797857D01*
X182737276Y-52049438D01*
X182391352Y-51451933D02*
X182391352Y-51043114D01*
X182642933Y-51263247D01*
X182642933Y-51168905D01*
X182674381Y-51106009D01*
X182705829Y-51074562D01*
X182768724Y-51043114D01*
X182925962Y-51043114D01*
X182988857Y-51074562D01*
X183020305Y-51106009D01*
X183051752Y-51168905D01*
X183051752Y-51357590D01*
X183020305Y-51420486D01*
X182988857Y-51451933D01*
X184390171Y-51177371D02*
X184390171Y-50800000D01*
X184622400Y-51003200D01*
X184622400Y-50916114D01*
X184651429Y-50858057D01*
X184680457Y-50829028D01*
X184738514Y-50800000D01*
X184883657Y-50800000D01*
X184941714Y-50829028D01*
X184970743Y-50858057D01*
X184999771Y-50916114D01*
X184999771Y-51090286D01*
X184970743Y-51148343D01*
X184941714Y-51177371D01*
X184941714Y-50538743D02*
X184970743Y-50509715D01*
X184999771Y-50538743D01*
X184970743Y-50567772D01*
X184941714Y-50538743D01*
X184999771Y-50538743D01*
X184390171Y-50306514D02*
X184390171Y-49929143D01*
X184622400Y-50132343D01*
X184622400Y-50045257D01*
X184651429Y-49987200D01*
X184680457Y-49958171D01*
X184738514Y-49929143D01*
X184883657Y-49929143D01*
X184941714Y-49958171D01*
X184970743Y-49987200D01*
X184999771Y-50045257D01*
X184999771Y-50219429D01*
X184970743Y-50277486D01*
X184941714Y-50306514D01*
X184999771Y-49667886D02*
X184390171Y-49667886D01*
X184767543Y-49609829D02*
X184999771Y-49435658D01*
X184593371Y-49435658D02*
X184825600Y-49667886D01*
X191875752Y-47227066D02*
X191561276Y-47447200D01*
X191875752Y-47604438D02*
X191215352Y-47604438D01*
X191215352Y-47352857D01*
X191246800Y-47289962D01*
X191278248Y-47258514D01*
X191341143Y-47227066D01*
X191435486Y-47227066D01*
X191498381Y-47258514D01*
X191529829Y-47289962D01*
X191561276Y-47352857D01*
X191561276Y-47604438D01*
X191435486Y-46661009D02*
X191875752Y-46661009D01*
X191183905Y-46818247D02*
X191655619Y-46975486D01*
X191655619Y-46566666D01*
X189211171Y-47748371D02*
X189211171Y-47371000D01*
X189443400Y-47574200D01*
X189443400Y-47487114D01*
X189472429Y-47429057D01*
X189501457Y-47400028D01*
X189559514Y-47371000D01*
X189704657Y-47371000D01*
X189762714Y-47400028D01*
X189791743Y-47429057D01*
X189820771Y-47487114D01*
X189820771Y-47661286D01*
X189791743Y-47719343D01*
X189762714Y-47748371D01*
X189762714Y-47109743D02*
X189791743Y-47080715D01*
X189820771Y-47109743D01*
X189791743Y-47138772D01*
X189762714Y-47109743D01*
X189820771Y-47109743D01*
X189211171Y-46877514D02*
X189211171Y-46500143D01*
X189443400Y-46703343D01*
X189443400Y-46616257D01*
X189472429Y-46558200D01*
X189501457Y-46529171D01*
X189559514Y-46500143D01*
X189704657Y-46500143D01*
X189762714Y-46529171D01*
X189791743Y-46558200D01*
X189820771Y-46616257D01*
X189820771Y-46790429D01*
X189791743Y-46848486D01*
X189762714Y-46877514D01*
X189820771Y-46238886D02*
X189211171Y-46238886D01*
X189588543Y-46180829D02*
X189820771Y-46006658D01*
X189414371Y-46006658D02*
X189646600Y-46238886D01*
X193465752Y-53069066D02*
X193151276Y-53289200D01*
X193465752Y-53446438D02*
X192805352Y-53446438D01*
X192805352Y-53194857D01*
X192836800Y-53131962D01*
X192868248Y-53100514D01*
X192931143Y-53069066D01*
X193025486Y-53069066D01*
X193088381Y-53100514D01*
X193119829Y-53131962D01*
X193151276Y-53194857D01*
X193151276Y-53446438D01*
X192805352Y-52471562D02*
X192805352Y-52786038D01*
X193119829Y-52817486D01*
X193088381Y-52786038D01*
X193056933Y-52723143D01*
X193056933Y-52565905D01*
X193088381Y-52503009D01*
X193119829Y-52471562D01*
X193182724Y-52440114D01*
X193339962Y-52440114D01*
X193402857Y-52471562D01*
X193434305Y-52503009D01*
X193465752Y-52565905D01*
X193465752Y-52723143D01*
X193434305Y-52786038D01*
X193402857Y-52817486D01*
X194738171Y-53590371D02*
X194738171Y-53213000D01*
X194970400Y-53416200D01*
X194970400Y-53329114D01*
X194999429Y-53271057D01*
X195028457Y-53242028D01*
X195086514Y-53213000D01*
X195231657Y-53213000D01*
X195289714Y-53242028D01*
X195318743Y-53271057D01*
X195347771Y-53329114D01*
X195347771Y-53503286D01*
X195318743Y-53561343D01*
X195289714Y-53590371D01*
X195289714Y-52951743D02*
X195318743Y-52922715D01*
X195347771Y-52951743D01*
X195318743Y-52980772D01*
X195289714Y-52951743D01*
X195347771Y-52951743D01*
X194738171Y-52719514D02*
X194738171Y-52342143D01*
X194970400Y-52545343D01*
X194970400Y-52458257D01*
X194999429Y-52400200D01*
X195028457Y-52371171D01*
X195086514Y-52342143D01*
X195231657Y-52342143D01*
X195289714Y-52371171D01*
X195318743Y-52400200D01*
X195347771Y-52458257D01*
X195347771Y-52632429D01*
X195318743Y-52690486D01*
X195289714Y-52719514D01*
X195347771Y-52080886D02*
X194738171Y-52080886D01*
X195115543Y-52022829D02*
X195347771Y-51848658D01*
X194941371Y-51848658D02*
X195173600Y-52080886D01*
X196894752Y-47227066D02*
X196580276Y-47447200D01*
X196894752Y-47604438D02*
X196234352Y-47604438D01*
X196234352Y-47352857D01*
X196265800Y-47289962D01*
X196297248Y-47258514D01*
X196360143Y-47227066D01*
X196454486Y-47227066D01*
X196517381Y-47258514D01*
X196548829Y-47289962D01*
X196580276Y-47352857D01*
X196580276Y-47604438D01*
X196234352Y-46661009D02*
X196234352Y-46786800D01*
X196265800Y-46849695D01*
X196297248Y-46881143D01*
X196391590Y-46944038D01*
X196517381Y-46975486D01*
X196768962Y-46975486D01*
X196831857Y-46944038D01*
X196863305Y-46912590D01*
X196894752Y-46849695D01*
X196894752Y-46723905D01*
X196863305Y-46661009D01*
X196831857Y-46629562D01*
X196768962Y-46598114D01*
X196611724Y-46598114D01*
X196548829Y-46629562D01*
X196517381Y-46661009D01*
X196485933Y-46723905D01*
X196485933Y-46849695D01*
X196517381Y-46912590D01*
X196548829Y-46944038D01*
X196611724Y-46975486D01*
X194291171Y-47748371D02*
X194291171Y-47371000D01*
X194523400Y-47574200D01*
X194523400Y-47487114D01*
X194552429Y-47429057D01*
X194581457Y-47400028D01*
X194639514Y-47371000D01*
X194784657Y-47371000D01*
X194842714Y-47400028D01*
X194871743Y-47429057D01*
X194900771Y-47487114D01*
X194900771Y-47661286D01*
X194871743Y-47719343D01*
X194842714Y-47748371D01*
X194842714Y-47109743D02*
X194871743Y-47080715D01*
X194900771Y-47109743D01*
X194871743Y-47138772D01*
X194842714Y-47109743D01*
X194900771Y-47109743D01*
X194291171Y-46877514D02*
X194291171Y-46500143D01*
X194523400Y-46703343D01*
X194523400Y-46616257D01*
X194552429Y-46558200D01*
X194581457Y-46529171D01*
X194639514Y-46500143D01*
X194784657Y-46500143D01*
X194842714Y-46529171D01*
X194871743Y-46558200D01*
X194900771Y-46616257D01*
X194900771Y-46790429D01*
X194871743Y-46848486D01*
X194842714Y-46877514D01*
X194900771Y-46238886D02*
X194291171Y-46238886D01*
X194668543Y-46180829D02*
X194900771Y-46006658D01*
X194494371Y-46006658D02*
X194726600Y-46238886D01*
X189274752Y-53831066D02*
X188960276Y-54051200D01*
X189274752Y-54208438D02*
X188614352Y-54208438D01*
X188614352Y-53956857D01*
X188645800Y-53893962D01*
X188677248Y-53862514D01*
X188740143Y-53831066D01*
X188834486Y-53831066D01*
X188897381Y-53862514D01*
X188928829Y-53893962D01*
X188960276Y-53956857D01*
X188960276Y-54208438D01*
X188614352Y-53610933D02*
X188614352Y-53170666D01*
X189274752Y-53453695D01*
X190547171Y-53590371D02*
X190547171Y-53213000D01*
X190779400Y-53416200D01*
X190779400Y-53329114D01*
X190808429Y-53271057D01*
X190837457Y-53242028D01*
X190895514Y-53213000D01*
X191040657Y-53213000D01*
X191098714Y-53242028D01*
X191127743Y-53271057D01*
X191156771Y-53329114D01*
X191156771Y-53503286D01*
X191127743Y-53561343D01*
X191098714Y-53590371D01*
X191098714Y-52951743D02*
X191127743Y-52922715D01*
X191156771Y-52951743D01*
X191127743Y-52980772D01*
X191098714Y-52951743D01*
X191156771Y-52951743D01*
X190547171Y-52719514D02*
X190547171Y-52342143D01*
X190779400Y-52545343D01*
X190779400Y-52458257D01*
X190808429Y-52400200D01*
X190837457Y-52371171D01*
X190895514Y-52342143D01*
X191040657Y-52342143D01*
X191098714Y-52371171D01*
X191127743Y-52400200D01*
X191156771Y-52458257D01*
X191156771Y-52632429D01*
X191127743Y-52690486D01*
X191098714Y-52719514D01*
X191156771Y-52080886D02*
X190547171Y-52080886D01*
X190924543Y-52022829D02*
X191156771Y-51848658D01*
X190750371Y-51848658D02*
X190982600Y-52080886D01*
X194580934Y-54781752D02*
X194360800Y-54467276D01*
X194203562Y-54781752D02*
X194203562Y-54121352D01*
X194455143Y-54121352D01*
X194518038Y-54152800D01*
X194549486Y-54184248D01*
X194580934Y-54247143D01*
X194580934Y-54341486D01*
X194549486Y-54404381D01*
X194518038Y-54435829D01*
X194455143Y-54467276D01*
X194203562Y-54467276D01*
X194958305Y-54404381D02*
X194895410Y-54372933D01*
X194863962Y-54341486D01*
X194832514Y-54278590D01*
X194832514Y-54247143D01*
X194863962Y-54184248D01*
X194895410Y-54152800D01*
X194958305Y-54121352D01*
X195084095Y-54121352D01*
X195146991Y-54152800D01*
X195178438Y-54184248D01*
X195209886Y-54247143D01*
X195209886Y-54278590D01*
X195178438Y-54341486D01*
X195146991Y-54372933D01*
X195084095Y-54404381D01*
X194958305Y-54404381D01*
X194895410Y-54435829D01*
X194863962Y-54467276D01*
X194832514Y-54530171D01*
X194832514Y-54655962D01*
X194863962Y-54718857D01*
X194895410Y-54750305D01*
X194958305Y-54781752D01*
X195084095Y-54781752D01*
X195146991Y-54750305D01*
X195178438Y-54718857D01*
X195209886Y-54655962D01*
X195209886Y-54530171D01*
X195178438Y-54467276D01*
X195146991Y-54435829D01*
X195084095Y-54404381D01*
X194923230Y-56181171D02*
X195300601Y-56181171D01*
X195097401Y-56413400D01*
X195184487Y-56413400D01*
X195242544Y-56442429D01*
X195271573Y-56471457D01*
X195300601Y-56529514D01*
X195300601Y-56674657D01*
X195271573Y-56732714D01*
X195242544Y-56761743D01*
X195184487Y-56790771D01*
X195010315Y-56790771D01*
X194952258Y-56761743D01*
X194923230Y-56732714D01*
X195503801Y-56181171D02*
X195881172Y-56181171D01*
X195677972Y-56413400D01*
X195765058Y-56413400D01*
X195823115Y-56442429D01*
X195852144Y-56471457D01*
X195881172Y-56529514D01*
X195881172Y-56674657D01*
X195852144Y-56732714D01*
X195823115Y-56761743D01*
X195765058Y-56790771D01*
X195590886Y-56790771D01*
X195532829Y-56761743D01*
X195503801Y-56732714D01*
X196258543Y-56181171D02*
X196316600Y-56181171D01*
X196374657Y-56210200D01*
X196403686Y-56239229D01*
X196432715Y-56297286D01*
X196461743Y-56413400D01*
X196461743Y-56558543D01*
X196432715Y-56674657D01*
X196403686Y-56732714D01*
X196374657Y-56761743D01*
X196316600Y-56790771D01*
X196258543Y-56790771D01*
X196200486Y-56761743D01*
X196171457Y-56732714D01*
X196142429Y-56674657D01*
X196113400Y-56558543D01*
X196113400Y-56413400D01*
X196142429Y-56297286D01*
X196171457Y-56239229D01*
X196200486Y-56210200D01*
X196258543Y-56181171D01*
X177184352Y-51811162D02*
X177718962Y-51811162D01*
X177781857Y-51779714D01*
X177813305Y-51748267D01*
X177844752Y-51685371D01*
X177844752Y-51559581D01*
X177813305Y-51496686D01*
X177781857Y-51465238D01*
X177718962Y-51433790D01*
X177184352Y-51433790D01*
X177844752Y-50773390D02*
X177844752Y-51150762D01*
X177844752Y-50962076D02*
X177184352Y-50962076D01*
X177278695Y-51024971D01*
X177341590Y-51087866D01*
X177373038Y-51150762D01*
X176377600Y-51856639D02*
X176377600Y-51566353D01*
X176551771Y-51914696D02*
X175942171Y-51711496D01*
X176551771Y-51508296D01*
X176551771Y-51305096D02*
X175942171Y-51305096D01*
X175942171Y-51072868D01*
X175971200Y-51014810D01*
X176000229Y-50985782D01*
X176058286Y-50956753D01*
X176145371Y-50956753D01*
X176203429Y-50985782D01*
X176232457Y-51014810D01*
X176261486Y-51072868D01*
X176261486Y-51305096D01*
X176000229Y-50724525D02*
X175971200Y-50695496D01*
X175942171Y-50637439D01*
X175942171Y-50492296D01*
X175971200Y-50434239D01*
X176000229Y-50405210D01*
X176058286Y-50376182D01*
X176116343Y-50376182D01*
X176203429Y-50405210D01*
X176551771Y-50753553D01*
X176551771Y-50376182D01*
X176551771Y-49795611D02*
X176551771Y-50143954D01*
X176551771Y-49969782D02*
X175942171Y-49969782D01*
X176029257Y-50027839D01*
X176087314Y-50085897D01*
X176116343Y-50143954D01*
X176000229Y-49563383D02*
X175971200Y-49534354D01*
X175942171Y-49476297D01*
X175942171Y-49331154D01*
X175971200Y-49273097D01*
X176000229Y-49244068D01*
X176058286Y-49215040D01*
X176116343Y-49215040D01*
X176203429Y-49244068D01*
X176551771Y-49592411D01*
X176551771Y-49215040D01*
X175942171Y-48837669D02*
X175942171Y-48779612D01*
X175971200Y-48721555D01*
X176000229Y-48692526D01*
X176058286Y-48663497D01*
X176174400Y-48634469D01*
X176319543Y-48634469D01*
X176435657Y-48663497D01*
X176493714Y-48692526D01*
X176522743Y-48721555D01*
X176551771Y-48779612D01*
X176551771Y-48837669D01*
X176522743Y-48895726D01*
X176493714Y-48924755D01*
X176435657Y-48953783D01*
X176319543Y-48982812D01*
X176174400Y-48982812D01*
X176058286Y-48953783D01*
X176000229Y-48924755D01*
X175971200Y-48895726D01*
X175942171Y-48837669D01*
X176551771Y-48373212D02*
X175942171Y-48373212D01*
X176551771Y-48024869D01*
X175942171Y-48024869D01*
X186861752Y-53510542D02*
X186547276Y-53730676D01*
X186861752Y-53887914D02*
X186201352Y-53887914D01*
X186201352Y-53636333D01*
X186232800Y-53573438D01*
X186264248Y-53541990D01*
X186327143Y-53510542D01*
X186421486Y-53510542D01*
X186484381Y-53541990D01*
X186515829Y-53573438D01*
X186547276Y-53636333D01*
X186547276Y-53887914D01*
X186861752Y-52881590D02*
X186861752Y-53258962D01*
X186861752Y-53070276D02*
X186201352Y-53070276D01*
X186295695Y-53133171D01*
X186358590Y-53196066D01*
X186390038Y-53258962D01*
X186201352Y-52472771D02*
X186201352Y-52409876D01*
X186232800Y-52346981D01*
X186264248Y-52315533D01*
X186327143Y-52284086D01*
X186452933Y-52252638D01*
X186610171Y-52252638D01*
X186735962Y-52284086D01*
X186798857Y-52315533D01*
X186830305Y-52346981D01*
X186861752Y-52409876D01*
X186861752Y-52472771D01*
X186830305Y-52535667D01*
X186798857Y-52567114D01*
X186735962Y-52598562D01*
X186610171Y-52630010D01*
X186452933Y-52630010D01*
X186327143Y-52598562D01*
X186264248Y-52567114D01*
X186232800Y-52535667D01*
X186201352Y-52472771D01*
X184933771Y-53612142D02*
X184933771Y-53960485D01*
X184933771Y-53786313D02*
X184324171Y-53786313D01*
X184411257Y-53844370D01*
X184469314Y-53902428D01*
X184498343Y-53960485D01*
X184324171Y-53234771D02*
X184324171Y-53176714D01*
X184353200Y-53118657D01*
X184382229Y-53089628D01*
X184440286Y-53060599D01*
X184556400Y-53031571D01*
X184701543Y-53031571D01*
X184817657Y-53060599D01*
X184875714Y-53089628D01*
X184904743Y-53118657D01*
X184933771Y-53176714D01*
X184933771Y-53234771D01*
X184904743Y-53292828D01*
X184875714Y-53321857D01*
X184817657Y-53350885D01*
X184701543Y-53379914D01*
X184556400Y-53379914D01*
X184440286Y-53350885D01*
X184382229Y-53321857D01*
X184353200Y-53292828D01*
X184324171Y-53234771D01*
X184324171Y-52654200D02*
X184324171Y-52596143D01*
X184353200Y-52538086D01*
X184382229Y-52509057D01*
X184440286Y-52480028D01*
X184556400Y-52451000D01*
X184701543Y-52451000D01*
X184817657Y-52480028D01*
X184875714Y-52509057D01*
X184904743Y-52538086D01*
X184933771Y-52596143D01*
X184933771Y-52654200D01*
X184904743Y-52712257D01*
X184875714Y-52741286D01*
X184817657Y-52770314D01*
X184701543Y-52799343D01*
X184556400Y-52799343D01*
X184440286Y-52770314D01*
X184382229Y-52741286D01*
X184353200Y-52712257D01*
X184324171Y-52654200D01*
X184933771Y-52189743D02*
X184324171Y-52189743D01*
X184701543Y-52131686D02*
X184933771Y-51957515D01*
X184527371Y-51957515D02*
X184759600Y-52189743D01*
D11*
X193465524Y-63099905D02*
X193465524Y-62299905D01*
X193656000Y-62299905D01*
X193770286Y-62338000D01*
X193846477Y-62414190D01*
X193884572Y-62490381D01*
X193922667Y-62642762D01*
X193922667Y-62757048D01*
X193884572Y-62909429D01*
X193846477Y-62985619D01*
X193770286Y-63061810D01*
X193656000Y-63099905D01*
X193465524Y-63099905D01*
X194684572Y-63099905D02*
X194227429Y-63099905D01*
X194456000Y-63099905D02*
X194456000Y-62299905D01*
X194379810Y-62414190D01*
X194303619Y-62490381D01*
X194227429Y-62528476D01*
M02*
