M48
;DRILL file {KiCad 4.0.5} date 11/08/17 14:45:33
;FORMAT={-:-/ absolute / metric / decimal}
FMAT,2
METRIC,TZ
T1C0.381
T2C0.686
%
G90
G05
M71
T1
X175.387Y-45.339
X178.106Y-59.29
X179.229Y-59.273
X179.324Y-45.339
X180.047Y-53.936
X181.229Y-53.594
X181.353Y-59.305
X181.357Y-57.403
X181.737Y-51.562
X182.537Y-50.576
X183.261Y-45.339
X185.672Y-59.308
X185.674Y-57.023
X186.945Y-57.021
X186.945Y-59.307
X187.198Y-45.339
X187.34Y-47.071
X188.177Y-57.015
X188.214Y-53.924
X188.341Y-48.725
X189.484Y-59.309
X190.754Y-57.023
X191.262Y-45.339
X191.897Y-57.023
X192.339Y-47.068
X195.199Y-45.339
X195.683Y-54.476
T2
X175.133Y-52.959
X175.133Y-55.499
X175.133Y-56.769
X175.133Y-58.039
X175.133Y-59.309
X175.133Y-60.579
X175.133Y-61.849
T0
M30
