G04 #@! TF.FileFunction,Legend,Bot*
%FSLAX46Y46*%
G04 Gerber Fmt 4.6, Leading zero omitted, Abs format (unit mm)*
G04 Created by KiCad (PCBNEW 4.0.5) date 11/08/17 14:45:23*
%MOMM*%
%LPD*%
G01*
G04 APERTURE LIST*
%ADD10C,0.100000*%
%ADD11C,0.203200*%
G04 APERTURE END LIST*
D10*
D11*
X196005752Y-49580800D02*
X195676762Y-49580800D01*
X195882381Y-49284467D02*
X195882381Y-50046467D01*
X195841257Y-50131133D01*
X195759010Y-50173467D01*
X195676762Y-50173467D01*
X195018781Y-50173467D02*
X195018781Y-49707800D01*
X195059904Y-49623133D01*
X195142152Y-49580800D01*
X195306647Y-49580800D01*
X195388895Y-49623133D01*
X195018781Y-50131133D02*
X195101028Y-50173467D01*
X195306647Y-50173467D01*
X195388895Y-50131133D01*
X195430019Y-50046467D01*
X195430019Y-49961800D01*
X195388895Y-49877133D01*
X195306647Y-49834800D01*
X195101028Y-49834800D01*
X195018781Y-49792467D01*
X194607543Y-49580800D02*
X194607543Y-50469800D01*
X194607543Y-49623133D02*
X194525295Y-49580800D01*
X194360800Y-49580800D01*
X194278552Y-49623133D01*
X194237429Y-49665467D01*
X194196305Y-49750133D01*
X194196305Y-50004133D01*
X194237429Y-50088800D01*
X194278552Y-50131133D01*
X194360800Y-50173467D01*
X194525295Y-50173467D01*
X194607543Y-50131133D01*
X193497200Y-50131133D02*
X193579448Y-50173467D01*
X193743943Y-50173467D01*
X193826191Y-50131133D01*
X193867315Y-50046467D01*
X193867315Y-49707800D01*
X193826191Y-49623133D01*
X193743943Y-49580800D01*
X193579448Y-49580800D01*
X193497200Y-49623133D01*
X193456077Y-49707800D01*
X193456077Y-49792467D01*
X193867315Y-49877133D01*
X192715848Y-50131133D02*
X192798095Y-50173467D01*
X192962591Y-50173467D01*
X193044838Y-50131133D01*
X193085962Y-50088800D01*
X193127086Y-50004133D01*
X193127086Y-49750133D01*
X193085962Y-49665467D01*
X193044838Y-49623133D01*
X192962591Y-49580800D01*
X192798095Y-49580800D01*
X192715848Y-49623133D01*
X191975619Y-50173467D02*
X191975619Y-49707800D01*
X192016742Y-49623133D01*
X192098990Y-49580800D01*
X192263485Y-49580800D01*
X192345733Y-49623133D01*
X191975619Y-50131133D02*
X192057866Y-50173467D01*
X192263485Y-50173467D01*
X192345733Y-50131133D01*
X192386857Y-50046467D01*
X192386857Y-49961800D01*
X192345733Y-49877133D01*
X192263485Y-49834800D01*
X192057866Y-49834800D01*
X191975619Y-49792467D01*
X191564381Y-50173467D02*
X191564381Y-49580800D01*
X191564381Y-49750133D02*
X191523257Y-49665467D01*
X191482133Y-49623133D01*
X191399886Y-49580800D01*
X191317638Y-49580800D01*
X191153142Y-49580800D02*
X190824152Y-49580800D01*
X191029771Y-49284467D02*
X191029771Y-50046467D01*
X190988647Y-50131133D01*
X190906400Y-50173467D01*
X190824152Y-50173467D01*
X189878304Y-50173467D02*
X189878304Y-49580800D01*
X189878304Y-49750133D02*
X189837180Y-49665467D01*
X189796056Y-49623133D01*
X189713809Y-49580800D01*
X189631561Y-49580800D01*
X189014703Y-50131133D02*
X189096951Y-50173467D01*
X189261446Y-50173467D01*
X189343694Y-50131133D01*
X189384818Y-50046467D01*
X189384818Y-49707800D01*
X189343694Y-49623133D01*
X189261446Y-49580800D01*
X189096951Y-49580800D01*
X189014703Y-49623133D01*
X188973580Y-49707800D01*
X188973580Y-49792467D01*
X189384818Y-49877133D01*
X188480094Y-50173467D02*
X188562341Y-50131133D01*
X188603465Y-50046467D01*
X188603465Y-49284467D01*
X187822112Y-50131133D02*
X187904360Y-50173467D01*
X188068855Y-50173467D01*
X188151103Y-50131133D01*
X188192227Y-50046467D01*
X188192227Y-49707800D01*
X188151103Y-49623133D01*
X188068855Y-49580800D01*
X187904360Y-49580800D01*
X187822112Y-49623133D01*
X187780989Y-49707800D01*
X187780989Y-49792467D01*
X188192227Y-49877133D01*
X187040760Y-50173467D02*
X187040760Y-49707800D01*
X187081883Y-49623133D01*
X187164131Y-49580800D01*
X187328626Y-49580800D01*
X187410874Y-49623133D01*
X187040760Y-50131133D02*
X187123007Y-50173467D01*
X187328626Y-50173467D01*
X187410874Y-50131133D01*
X187451998Y-50046467D01*
X187451998Y-49961800D01*
X187410874Y-49877133D01*
X187328626Y-49834800D01*
X187123007Y-49834800D01*
X187040760Y-49792467D01*
X186670646Y-50131133D02*
X186588398Y-50173467D01*
X186423903Y-50173467D01*
X186341655Y-50131133D01*
X186300531Y-50046467D01*
X186300531Y-50004133D01*
X186341655Y-49919467D01*
X186423903Y-49877133D01*
X186547274Y-49877133D01*
X186629522Y-49834800D01*
X186670646Y-49750133D01*
X186670646Y-49707800D01*
X186629522Y-49623133D01*
X186547274Y-49580800D01*
X186423903Y-49580800D01*
X186341655Y-49623133D01*
X185601426Y-50131133D02*
X185683674Y-50173467D01*
X185848169Y-50173467D01*
X185930417Y-50131133D01*
X185971541Y-50046467D01*
X185971541Y-49707800D01*
X185930417Y-49623133D01*
X185848169Y-49580800D01*
X185683674Y-49580800D01*
X185601426Y-49623133D01*
X185560303Y-49707800D01*
X185560303Y-49792467D01*
X185971541Y-49877133D01*
X184079845Y-50173467D02*
X184573331Y-50173467D01*
X184326588Y-50173467D02*
X184326588Y-49284467D01*
X184408836Y-49411467D01*
X184491083Y-49496133D01*
X184573331Y-49538467D01*
X183750855Y-50131133D02*
X183668607Y-50173467D01*
X183504112Y-50173467D01*
X183421864Y-50131133D01*
X183380740Y-50046467D01*
X183380740Y-50004133D01*
X183421864Y-49919467D01*
X183504112Y-49877133D01*
X183627483Y-49877133D01*
X183709731Y-49834800D01*
X183750855Y-49750133D01*
X183750855Y-49707800D01*
X183709731Y-49623133D01*
X183627483Y-49580800D01*
X183504112Y-49580800D01*
X183421864Y-49623133D01*
X195388895Y-51625500D02*
X195430019Y-51667833D01*
X195553390Y-51710167D01*
X195635638Y-51710167D01*
X195759010Y-51667833D01*
X195841257Y-51583167D01*
X195882381Y-51498500D01*
X195923505Y-51329167D01*
X195923505Y-51202167D01*
X195882381Y-51032833D01*
X195841257Y-50948167D01*
X195759010Y-50863500D01*
X195635638Y-50821167D01*
X195553390Y-50821167D01*
X195430019Y-50863500D01*
X195388895Y-50905833D01*
X195018781Y-51710167D02*
X195018781Y-51117500D01*
X195018781Y-51286833D02*
X194977657Y-51202167D01*
X194936533Y-51159833D01*
X194854286Y-51117500D01*
X194772038Y-51117500D01*
X194155180Y-51667833D02*
X194237428Y-51710167D01*
X194401923Y-51710167D01*
X194484171Y-51667833D01*
X194525295Y-51583167D01*
X194525295Y-51244500D01*
X194484171Y-51159833D01*
X194401923Y-51117500D01*
X194237428Y-51117500D01*
X194155180Y-51159833D01*
X194114057Y-51244500D01*
X194114057Y-51329167D01*
X194525295Y-51413833D01*
X193373828Y-51710167D02*
X193373828Y-51244500D01*
X193414951Y-51159833D01*
X193497199Y-51117500D01*
X193661694Y-51117500D01*
X193743942Y-51159833D01*
X193373828Y-51667833D02*
X193456075Y-51710167D01*
X193661694Y-51710167D01*
X193743942Y-51667833D01*
X193785066Y-51583167D01*
X193785066Y-51498500D01*
X193743942Y-51413833D01*
X193661694Y-51371500D01*
X193456075Y-51371500D01*
X193373828Y-51329167D01*
X193085961Y-51117500D02*
X192756971Y-51117500D01*
X192962590Y-50821167D02*
X192962590Y-51583167D01*
X192921466Y-51667833D01*
X192839219Y-51710167D01*
X192756971Y-51710167D01*
X192140113Y-51667833D02*
X192222361Y-51710167D01*
X192386856Y-51710167D01*
X192469104Y-51667833D01*
X192510228Y-51583167D01*
X192510228Y-51244500D01*
X192469104Y-51159833D01*
X192386856Y-51117500D01*
X192222361Y-51117500D01*
X192140113Y-51159833D01*
X192098990Y-51244500D01*
X192098990Y-51329167D01*
X192510228Y-51413833D01*
X191358761Y-51710167D02*
X191358761Y-50821167D01*
X191358761Y-51667833D02*
X191441008Y-51710167D01*
X191605504Y-51710167D01*
X191687751Y-51667833D01*
X191728875Y-51625500D01*
X191769999Y-51540833D01*
X191769999Y-51286833D01*
X191728875Y-51202167D01*
X191687751Y-51159833D01*
X191605504Y-51117500D01*
X191441008Y-51117500D01*
X191358761Y-51159833D01*
X190330666Y-50905833D02*
X190289542Y-50863500D01*
X190207294Y-50821167D01*
X190001675Y-50821167D01*
X189919428Y-50863500D01*
X189878304Y-50905833D01*
X189837180Y-50990500D01*
X189837180Y-51075167D01*
X189878304Y-51202167D01*
X190371790Y-51710167D01*
X189837180Y-51710167D01*
X189302571Y-50821167D02*
X189220323Y-50821167D01*
X189138075Y-50863500D01*
X189096952Y-50905833D01*
X189055828Y-50990500D01*
X189014704Y-51159833D01*
X189014704Y-51371500D01*
X189055828Y-51540833D01*
X189096952Y-51625500D01*
X189138075Y-51667833D01*
X189220323Y-51710167D01*
X189302571Y-51710167D01*
X189384818Y-51667833D01*
X189425942Y-51625500D01*
X189467066Y-51540833D01*
X189508190Y-51371500D01*
X189508190Y-51159833D01*
X189467066Y-50990500D01*
X189425942Y-50905833D01*
X189384818Y-50863500D01*
X189302571Y-50821167D01*
X188192228Y-51710167D02*
X188685714Y-51710167D01*
X188438971Y-51710167D02*
X188438971Y-50821167D01*
X188521219Y-50948167D01*
X188603466Y-51032833D01*
X188685714Y-51075167D01*
X187452000Y-50821167D02*
X187616495Y-50821167D01*
X187698743Y-50863500D01*
X187739866Y-50905833D01*
X187822114Y-51032833D01*
X187863238Y-51202167D01*
X187863238Y-51540833D01*
X187822114Y-51625500D01*
X187780990Y-51667833D01*
X187698743Y-51710167D01*
X187534247Y-51710167D01*
X187452000Y-51667833D01*
X187410876Y-51625500D01*
X187369752Y-51540833D01*
X187369752Y-51329167D01*
X187410876Y-51244500D01*
X187452000Y-51202167D01*
X187534247Y-51159833D01*
X187698743Y-51159833D01*
X187780990Y-51202167D01*
X187822114Y-51244500D01*
X187863238Y-51329167D01*
X186382781Y-50778833D02*
X187123009Y-51921833D01*
X185642552Y-51710167D02*
X186136038Y-51710167D01*
X185889295Y-51710167D02*
X185889295Y-50821167D01*
X185971543Y-50948167D01*
X186053790Y-51032833D01*
X186136038Y-51075167D01*
X185354686Y-50821167D02*
X184778952Y-50821167D01*
X185149067Y-51710167D01*
X195882381Y-53246867D02*
X195882381Y-52357867D01*
X195882381Y-52696533D02*
X195800133Y-52654200D01*
X195635638Y-52654200D01*
X195553390Y-52696533D01*
X195512267Y-52738867D01*
X195471143Y-52823533D01*
X195471143Y-53077533D01*
X195512267Y-53162200D01*
X195553390Y-53204533D01*
X195635638Y-53246867D01*
X195800133Y-53246867D01*
X195882381Y-53204533D01*
X195183277Y-52654200D02*
X194977658Y-53246867D01*
X194772038Y-52654200D02*
X194977658Y-53246867D01*
X195059905Y-53458533D01*
X195101029Y-53500867D01*
X195183277Y-53543200D01*
X193785067Y-53246867D02*
X193785067Y-52357867D01*
X193373829Y-52654200D02*
X193373829Y-53246867D01*
X193373829Y-52738867D02*
X193332705Y-52696533D01*
X193250458Y-52654200D01*
X193127086Y-52654200D01*
X193044838Y-52696533D01*
X193003715Y-52781200D01*
X193003715Y-53246867D01*
X192222363Y-52654200D02*
X192222363Y-53373867D01*
X192263486Y-53458533D01*
X192304610Y-53500867D01*
X192386858Y-53543200D01*
X192510229Y-53543200D01*
X192592477Y-53500867D01*
X192222363Y-53204533D02*
X192304610Y-53246867D01*
X192469106Y-53246867D01*
X192551353Y-53204533D01*
X192592477Y-53162200D01*
X192633601Y-53077533D01*
X192633601Y-52823533D01*
X192592477Y-52738867D01*
X192551353Y-52696533D01*
X192469106Y-52654200D01*
X192304610Y-52654200D01*
X192222363Y-52696533D01*
X191687754Y-53246867D02*
X191770001Y-53204533D01*
X191811125Y-53162200D01*
X191852249Y-53077533D01*
X191852249Y-52823533D01*
X191811125Y-52738867D01*
X191770001Y-52696533D01*
X191687754Y-52654200D01*
X191564382Y-52654200D01*
X191482134Y-52696533D01*
X191441011Y-52738867D01*
X191399887Y-52823533D01*
X191399887Y-53077533D01*
X191441011Y-53162200D01*
X191482134Y-53204533D01*
X191564382Y-53246867D01*
X191687754Y-53246867D01*
X190371792Y-53246867D02*
X190371792Y-52357867D01*
X189878306Y-53246867D02*
X190248421Y-52738867D01*
X189878306Y-52357867D02*
X190371792Y-52865867D01*
X189384821Y-53246867D02*
X189467068Y-53204533D01*
X189508192Y-53162200D01*
X189549316Y-53077533D01*
X189549316Y-52823533D01*
X189508192Y-52738867D01*
X189467068Y-52696533D01*
X189384821Y-52654200D01*
X189261449Y-52654200D01*
X189179201Y-52696533D01*
X189138078Y-52738867D01*
X189096954Y-52823533D01*
X189096954Y-53077533D01*
X189138078Y-53162200D01*
X189179201Y-53204533D01*
X189261449Y-53246867D01*
X189384821Y-53246867D01*
X188726840Y-53246867D02*
X188726840Y-52654200D01*
X188726840Y-52823533D02*
X188685716Y-52738867D01*
X188644592Y-52696533D01*
X188562345Y-52654200D01*
X188480097Y-52654200D01*
X188192230Y-53246867D02*
X188192230Y-52357867D01*
X188192230Y-52696533D02*
X188109982Y-52654200D01*
X187945487Y-52654200D01*
X187863239Y-52696533D01*
X187822116Y-52738867D01*
X187780992Y-52823533D01*
X187780992Y-53077533D01*
X187822116Y-53162200D01*
X187863239Y-53204533D01*
X187945487Y-53246867D01*
X188109982Y-53246867D01*
X188192230Y-53204533D01*
M02*
