G04 #@! TF.FileFunction,Soldermask,Top*
%FSLAX46Y46*%
G04 Gerber Fmt 4.6, Leading zero omitted, Abs format (unit mm)*
G04 Created by KiCad (PCBNEW 4.0.5) date 11/08/17 14:45:23*
%MOMM*%
%LPD*%
G01*
G04 APERTURE LIST*
%ADD10C,0.100000*%
%ADD11R,1.700000X1.100000*%
%ADD12R,1.650000X1.400000*%
%ADD13R,1.000000X1.900000*%
%ADD14R,1.000000X1.950000*%
%ADD15R,1.400000X1.650000*%
%ADD16R,1.200100X1.200100*%
%ADD17R,1.100000X1.700000*%
%ADD18R,1.441400X1.441400*%
%ADD19C,1.441400*%
%ADD20R,2.650000X5.400000*%
%ADD21R,1.598880X1.598880*%
G04 APERTURE END LIST*
D10*
D11*
X183515000Y-61148000D03*
X183515000Y-59248000D03*
D12*
X187833000Y-50419000D03*
X187833000Y-52419000D03*
D13*
X193294000Y-55466000D03*
X192024000Y-55466000D03*
X190754000Y-55466000D03*
X189484000Y-55466000D03*
X188214000Y-55466000D03*
X186944000Y-55466000D03*
X185674000Y-55466000D03*
X185674000Y-60866000D03*
X186944000Y-60866000D03*
X188214000Y-60866000D03*
X189484000Y-60866000D03*
X190754000Y-60866000D03*
X192024000Y-60866000D03*
X193294000Y-60866000D03*
D14*
X177546000Y-60866000D03*
X178816000Y-60866000D03*
X180086000Y-60866000D03*
X181356000Y-60866000D03*
X181356000Y-55466000D03*
X180086000Y-55466000D03*
X178816000Y-55466000D03*
X177546000Y-55466000D03*
D15*
X178165000Y-46990000D03*
X176165000Y-46990000D03*
D12*
X179451000Y-52689000D03*
X179451000Y-50689000D03*
X183515000Y-55642000D03*
X183515000Y-57642000D03*
D16*
X184470000Y-48625760D03*
X186370000Y-48625760D03*
X185420000Y-46626780D03*
X194122000Y-51038760D03*
X196022000Y-51038760D03*
X195072000Y-49039780D03*
X189931000Y-51038760D03*
X191831000Y-51038760D03*
X190881000Y-49039780D03*
D11*
X182626000Y-46675000D03*
X182626000Y-48575000D03*
X180467000Y-46675000D03*
X180467000Y-48575000D03*
D17*
X183774000Y-50546000D03*
X185674000Y-50546000D03*
X188595000Y-47117000D03*
X190495000Y-47117000D03*
X194122000Y-52959000D03*
X196022000Y-52959000D03*
X193675000Y-47117000D03*
X195575000Y-47117000D03*
X191831000Y-52959000D03*
X189931000Y-52959000D03*
D11*
X195707000Y-57465000D03*
X195707000Y-55565000D03*
D16*
X175275240Y-49088000D03*
X175275240Y-50988000D03*
X177274220Y-50038000D03*
D18*
X175133000Y-61849000D03*
D19*
X175133000Y-60579000D03*
X175133000Y-59309000D03*
X175133000Y-58039000D03*
X175133000Y-56769000D03*
X175133000Y-55499000D03*
X175133000Y-52959000D03*
D17*
X183708000Y-53086000D03*
X185608000Y-53086000D03*
D20*
X175387000Y-42746000D03*
X179349400Y-42746000D03*
X183311800Y-42746000D03*
X187274200Y-42746000D03*
X191236600Y-42746000D03*
X195199000Y-42746000D03*
D21*
X195707000Y-61882020D03*
X195707000Y-59783980D03*
M02*
